<?xml version="1.0" encoding="UTF-8"?><svg id="uuid-ad32af78-9062-4848-89eb-45e4066cfe2f" xmlns="http://www.w3.org/2000/svg" width="194.2211mm" height="19.5145mm" viewBox="0 0 550.5481 55.3166"><defs><style>.uuid-58f42ca4-b7b8-472f-81ce-b0c5fd3f45b3{fill:#fff;}.uuid-ba5c6972-164a-4f81-b8ce-219cbe7bfcef{fill:#ff9a00;}.uuid-3d8ebfa5-060c-4da7-96ce-aec25349de51{fill:#ff7400;opacity:.61;}.uuid-63e71df2-0f0c-4e31-882a-0a593413d114{fill:#ffc100;}</style></defs><path class="uuid-ba5c6972-164a-4f81-b8ce-219cbe7bfcef" d="M86.6591,18.1808l-9.73,6.35-2.5,1.63-3.04,1.99-8,5.22c-1.07,.7-2.26,1.03-3.45,1.03-2.06,0-4.08-1.01-5.29-2.86-.67-1.03-1-2.19-1.02-3.33v-.11c0-1.77,.7401-3.52,2.13-4.75,.23-.2,.47-.38,.73-.55l8.89-5.8,14.38-9.39c2.92-1.9,6.83-1.08,8.73,1.84,1.91,2.91,1.09,6.83-1.83,8.73Z"/><path class="uuid-3d8ebfa5-060c-4da7-96ce-aec25349de51" d="M77.5391,35.4308l-5.41,8.28-15.64-10.21c-1.86-1.21-2.86-3.23-2.86-5.29v-.11c0-1.77,.7401-3.52,2.13-4.75l7.18-4.68,11.4901,7.49,.06,.04-3.04,1.99-2.5,1.63,8.59,5.61Z"/><path class="uuid-63e71df2-0f0c-4e31-882a-0a593413d114" d="M88.4891,46.8609c-1.9,2.92-5.81,3.74-8.73,1.83l-6.68-4.36-.95-.62-15.64-10.21c-1.86-1.21-2.86-3.23-2.86-5.29v-.11c.02-1.14,.35-2.3,1.02-3.33,1.21-1.86,3.24-2.86,5.3-2.86,1.18,0,2.38,.33,3.44,1.02l8,5.22,.06,.04,8.53,5.57,6.68,4.36c2.92,1.91,3.74,5.82,1.83,8.7401Z"/><path class="uuid-58f42ca4-b7b8-472f-81ce-b0c5fd3f45b3" d="M1.0422,53.8002c-.6948-.6948-1.0422-1.5515-1.0422-2.571V4.1904c0-1.0651,.3474-1.9336,1.0422-2.6056C1.737,.9138,2.5937,.5773,3.613,.5773H20.2192c3.1028,0,5.8591,.6146,8.2682,1.8414,2.4079,1.2278,4.2959,2.9421,5.6627,5.1416,1.3659,2.2006,2.0498,4.69,2.0498,7.4693,0,2.2702-.6146,4.3078-1.8414,6.1144-1.2278,1.8066-2.9073,3.2656-5.0374,4.3774,3.1496,.7415,5.6281,2.2234,7.4345,4.4466,1.8066,2.2235,2.7099,5.0496,2.7099,8.4769,0,3.1504-.7535,5.9755-2.2581,8.4769-1.5058,2.5011-3.613,4.4468-6.3229,5.8364-2.7097,1.3896-5.7789,2.0844-9.2063,2.0844H3.613c-1.0193,0-1.876-.3474-2.5708-1.0422ZM20.2192,22.8809c2.7324,0,4.9212-.6709,6.566-2.0149,1.6436-1.343,2.4666-3.2885,2.4666-5.8366s-.8231-4.4815-2.4666-5.8016c-1.6448-1.3203-3.8335-1.9803-6.566-1.9803H7.226v15.6333h12.9932Zm1.459,25.2912c3.2418,0,5.8593-.8448,7.8514-2.536,1.9911-1.6906,2.9877-4.0875,2.9877-7.1914,0-2.8715-.9847-5.072-2.953-6.6007-1.9694-1.5287-4.5977-2.2928-7.8862-2.2928H7.226v18.6209h14.4522Z"/><path class="uuid-58f42ca4-b7b8-472f-81ce-b0c5fd3f45b3" d="M162.0043,53.2095c-1.5981-1.0877-2.838-2.6164-3.7173-4.5858-.8804-1.9681-1.3201-4.1797-1.3201-6.6354V4.0513c0-1.0183,.3235-1.852,.9727-2.5012,.6482-.6482,1.4819-.9728,2.5014-.9728,1.0183,0,1.852,.3247,2.5014,.9728,.648,.6492,.9727,1.4829,.9727,2.5012V41.9883c0,1.7143,.3235,3.1267,.9727,4.2384,.6482,1.1114,1.4819,1.6675,2.5014,1.6675h1.737c.926,0,1.6783,.3247,2.2581,.9727,.5786,.6494,.8685,1.4829,.8685,2.5014,0,1.0195-.4407,1.8531-1.3201,2.5014-.8806,.649-2.0151,.9727-3.4047,.9727h-.1389c-1.9922,0-3.7867-.5438-5.3848-1.6329Z"/><path class="uuid-58f42ca4-b7b8-472f-81ce-b0c5fd3f45b3" d="M210.328,37.4371c-.6025,.5798-1.3669,.8685-2.2929,.8685h-26.403c.5092,3.243,1.9803,5.8605,4.4121,7.8516,2.4319,1.9922,5.4075,2.9876,8.9283,2.9876,1.3896,0,2.8368-.2541,4.3426-.7644,1.5048-.5089,2.7445-1.1345,3.7173-1.8758,.6482-.5092,1.4124-.7644,2.2929-.7644,.8794,0,1.5742,.2324,2.0844,.6948,.8337,.6948,1.2505,1.4829,1.2505,2.3623,0,.8339-.3712,1.5287-1.1116,2.0844-1.5754,1.2509-3.5328,2.27-5.8712,3.0571-2.3396,.7885-4.575,1.1813-6.7051,1.1813-3.7986,0-7.2033-.8217-10.2138-2.4665-3.0117-1.6437-5.3621-3.926-7.0523-6.844-1.6916-2.9184-2.5362-6.2296-2.5362-9.9361s.7991-7.0282,2.3971-9.9703c1.5981-2.9411,3.8215-5.234,6.6703-6.8788,2.8488-1.6436,6.0796-2.4666,9.6926-2.4666,3.5664,0,6.6464,.7883,9.2411,2.3625,2.5937,1.5752,4.5858,3.7759,5.9755,6.6007,1.3896,2.8259,2.0844,6.0686,2.0844,9.7272,0,.8804-.3019,1.6102-.9033,2.1886Zm-24.6312-12.1243c-2.1084,1.8531-3.4395,4.3317-3.9952,7.4343h23.1372c-.4168-3.1026-1.5752-5.5813-3.4741-7.4343-1.8999-1.852-4.3772-2.7793-7.4345-2.7793-3.3818,0-6.1263,.9272-8.2335,2.7793Z"/><path class="uuid-58f42ca4-b7b8-472f-81ce-b0c5fd3f45b3" d="M245.798,19.0942c2.8943,1.6914,5.1874,4.0071,6.8786,6.9482,1.6906,2.9419,2.536,6.2186,2.536,9.8314v15.4946c0,1.0195-.3366,1.8649-1.0073,2.536-.6721,.6721-1.5179,1.0076-2.536,1.0076-1.0195,0-1.8653-.3355-2.5363-1.0076-.6717-.6711-1.0073-1.5165-1.0073-2.536v-2.571c-1.622,1.9922-3.5904,3.5436-5.9059,4.6554-2.3168,1.1118-4.8182,1.6675-7.5042,1.6675-3.335,0-6.3575-.8339-9.0672-2.5014s-4.841-3.9711-6.3923-6.9132c-1.5525-2.9411-2.3277-6.2187-2.3277-9.8319s.8337-6.8895,2.5014-9.8314c1.6675-2.9411,3.9713-5.2567,6.9134-6.9482,2.9411-1.6904,6.1946-2.5362,9.762-2.5362s6.7975,.8458,9.6928,2.5362Zm-3.4045,28.0703c1.8758-1.1345,3.3458-2.6856,4.4121-4.6551,1.065-1.9684,1.5979-4.1797,1.5979-6.6357,0-2.4546-.533-4.6778-1.5979-6.67-1.0663-1.9911-2.5363-3.5545-4.4121-4.69-1.8761-1.1345-3.9725-1.7024-6.2883-1.7024s-4.412,.5679-6.2879,1.7024c-1.876,1.1355-3.3591,2.6989-4.4468,4.69-1.089,1.9922-1.6329,4.2154-1.6329,6.67,0,2.4559,.5438,4.6673,1.6329,6.6357,1.0877,1.9694,2.5708,3.5206,4.4468,4.6551,1.876,1.1359,3.9713,1.7024,6.2879,1.7024s4.4121-.5666,6.2883-1.7024Z"/><path class="uuid-58f42ca4-b7b8-472f-81ce-b0c5fd3f45b3" d="M293.8294,18.8784c2.5472,1.3896,4.5394,3.4166,5.9758,6.0796,1.4351,2.6641,2.1537,5.8712,2.1537,9.6231v17.0925c0,1.0195-.3366,1.8649-1.0076,2.536-.6717,.6721-1.5179,1.0076-2.5357,1.0076-1.0198,0-1.8653-.3355-2.5363-1.0076-.6717-.6711-1.0076-1.5165-1.0076-2.536v-17.0925c0-3.7519-1.0076-6.5889-3.0222-8.5115-2.0152-1.9216-4.69-2.8834-8.0253-2.8834-1.9457,0-3.7173,.3941-5.3153,1.1812-1.5979,.7883-2.8488,1.8532-3.7523,3.196-.9031,1.3442-1.3547,2.8488-1.3547,4.5163v19.5939c0,1.0195-.3247,1.8649-.9727,2.536-.6494,.6721-1.5057,1.0076-2.571,1.0076-1.0192,0-1.8653-.3355-2.536-1.0076-.6721-.6711-1.0073-1.5165-1.0073-2.536V20.6848c0-1.065,.3352-1.9216,1.0073-2.5708,.6707-.6482,1.5169-.9727,2.536-.9727,1.0653,0,1.9216,.3245,2.571,.9727,.648,.6492,.9727,1.5058,.9727,2.5708v.7644c1.4819-1.4819,3.2417-2.6283,5.2807-3.4393,2.0376-.81,4.2144-1.2159,6.5312-1.2159,3.1962,0,6.0678,.6948,8.6156,2.0844Z"/><g><path class="uuid-ba5c6972-164a-4f81-b8ce-219cbe7bfcef" d="M330.7707,52.5198c-3.3835-1.8647-5.8127-4.3853-7.2856-7.5621-.1841-.3217-.2758-.6906-.2758-1.105,0-.6441,.2414-1.1846,.725-1.623,.4836-.437,1.1391-.6559,1.9679-.6559,.5523,0,1.0703,.1501,1.5538,.4488,.4836,.3001,.8396,.725,1.0703,1.2777,1.0588,2.0718,2.8197,3.7409,5.2833,5.0068,2.4623,1.2669,5.3285,1.8991,8.598,1.8991,3.7747,0,6.8129-.9088,9.116-2.728,2.3011-1.8182,3.453-4.3614,3.453-7.6309,0-2.9006-1.071-5.3403-3.2115-7.3204-2.1406-1.979-5.3521-3.2459-9.6339-3.7983-5.3413-.6441-9.5422-2.3136-12.6033-5.0068-3.0625-2.6932-4.592-5.9962-4.592-9.9101,0-2.7624,.7472-5.1902,2.2444-7.2856,1.4952-2.0944,3.5669-3.7055,6.2153-4.8342,2.6464-1.1276,5.6509-1.6921,9.0121-1.6921,3.6364,0,6.8365,.8063,9.5988,2.4171,2.7624,1.6122,4.9259,3.7065,6.4919,6.2845,.3217,.5072,.4836,1.0595,.4836,1.6574,0,.875-.4148,1.5656-1.2429,2.0718-.3696,.1845-.7837,.2762-1.2436,.2762-.5072,0-.9786-.1261-1.4156-.3797-.4377-.2526-.7938-.6097-1.0703-1.0703-2.5789-4.0508-6.4689-6.1-11.6713-6.1466-3.7288,0-6.676,.7837-8.8395,2.3483-2.1642,1.5656-3.2459,3.7983-3.2459,6.6986,0,5.3868,4.3513,8.6564,13.0525,9.8066,5.7082,.8285,9.9671,2.5789,12.776,5.2486,2.8076,2.6707,4.2124,6.1924,4.2124,10.5659,0,3.223-.783,6.0083-2.3476,8.3563-1.566,2.348-3.7065,4.1328-6.4224,5.3521-2.7172,1.2193-5.7561,1.83-9.116,1.83-4.3749,0-8.2527-.9324-11.6369-2.7968Z"/><path class="uuid-ba5c6972-164a-4f81-b8ce-219cbe7bfcef" d="M389.2978,50.068c.4599,.5072,.6906,1.1516,.6906,1.9339,0,.7368-.2765,1.3583-.8288,1.8644-.5523,.5072-1.2429,.7597-2.0718,.7597h-1.45c-2.4407,0-4.6271-.5871-6.5606-1.7609-1.9335-1.1741-3.4422-2.7624-4.5233-4.7654-1.0824-2.0027-1.6233-4.2697-1.6233-6.8021V22.8587h-4.4889c-.7371,0-1.3239-.2178-1.7609-.6562-.4384-.437-.6562-.9776-.6562-1.6226,0-.6906,.2178-1.2541,.6562-1.6921,.437-.437,1.0238-.6562,1.7609-.6562h4.4889V7.5274c0-.7823,.2421-1.4264,.725-1.9335,.4836-.5061,1.1161-.7597,1.8991-.7597,.7823,0,1.427,.2536,1.9342,.7597,.5058,.5072,.7594,1.1512,.7594,1.9335v10.7042h7.8036c.7358,0,1.3232,.2192,1.7609,.6562,.437,.438,.6562,1.0015,.6562,1.6921,0,.6451-.2192,1.1856-.6562,1.6226-.4377,.4384-1.0251,.6562-1.7609,.6562h-7.8036v18.439c0,2.348,.6906,4.2707,2.0718,5.7662,1.3812,1.4968,3.1529,2.2444,5.3177,2.2444h1.8647c.7358,0,1.3347,.2536,1.7953,.7597Z"/><path class="uuid-ba5c6972-164a-4f81-b8ce-219cbe7bfcef" d="M432.1834,17.5757c.5058,.4832,.7594,1.1168,.7594,1.8991V51.9328c0,.7833-.2536,1.4274-.7594,1.9335-.5072,.5072-1.1519,.7597-1.9342,.7597-.783,0-1.4156-.2526-1.8991-.7597-.4829-.5061-.725-1.1502-.725-1.9335v-2.348c-1.5194,1.7036-3.3612,3.0385-5.5247,4.0053-2.1642,.9668-4.5125,1.4503-7.0442,1.4503-3.2695,0-6.2046-.6906-8.8051-2.0718-2.6012-1.3812-4.6386-3.3946-6.1115-6.0427-1.4743-2.6471-2.21-5.8117-2.21-9.4957V19.4749c0-.7361,.2529-1.3576,.7601-1.8647,.5058-.5061,1.1276-.7597,1.8641-.7597,.7823,0,1.427,.2536,1.9342,.7597,.5058,.5072,.7594,1.1286,.7594,1.8647v17.9554c0,4.098,1.1397,7.2165,3.4186,9.3574s5.259,3.2112,8.9433,3.2112c2.2552,0,4.2919-.437,6.1115-1.3121,1.8182-.874,3.2567-2.0826,4.3162-3.6256,1.0588-1.542,1.5882-3.2564,1.5882-5.1447V19.4749c0-.7823,.2421-1.4159,.725-1.8991,.4836-.4836,1.1161-.7253,1.8991-.7253,.7823,0,1.427,.2418,1.9342,.7253Z"/><path class="uuid-ba5c6972-164a-4f81-b8ce-219cbe7bfcef" d="M481.7672,19.4749v16.229c0,3.5909-.841,6.8604-2.5209,9.8062-1.6813,2.9472-3.9831,5.2604-6.9059,6.9407-2.9242,1.681-6.1809,2.5206-9.7722,2.5206s-6.8486-.8396-9.7715-2.5206c-2.9242-1.6803-5.226-3.9935-6.9059-6.9407-1.6813-2.9458-2.5209-6.2153-2.5209-9.8062s.8167-6.8476,2.4515-9.7718c1.6341-2.9232,3.8677-5.225,6.6989-6.9059,2.8318-1.6803,5.9962-2.5209,9.4957-2.5209,2.9923,0,5.7318,.6336,8.2183,1.8991,2.4859,1.2669,4.534,3.0041,6.1459,5.2142V3.3838c0-.7823,.2529-1.4264,.7601-1.9335,.5058-.5061,1.1499-.7597,1.9335-.7597,.7823,0,1.4156,.2536,1.8991,.7597,.4836,.5072,.725,1.1512,.725,1.9335v15.4696c.0452,.1379,.0695,.3453,.0695,.6215Zm-12.0854,28.7632c2.117-1.2659,3.7861-2.9923,5.0068-5.1795,1.2193-2.1861,1.8297-4.6379,1.8297-7.3548,0-.7823-.0236-1.3576-.0688-1.7265-.0465-.0917-.0695-.2074-.0695-.3453-.4606-3.5912-1.9679-6.537-4.5233-8.8398-2.5553-2.3014-5.6522-3.453-9.2886-3.453-2.6241,0-5.0068,.6218-7.1474,1.8647s-3.8219,2.9586-5.0412,5.1451c-1.2207,2.1871-1.8303,4.6386-1.8303,7.3548s.6097,5.1687,1.8303,7.3548c1.2193,2.1871,2.9006,3.9136,5.0412,5.1795,2.1406,1.2669,4.5233,1.8991,7.1474,1.8991s4.9953-.6323,7.1137-1.8991Z"/><path class="uuid-ba5c6972-164a-4f81-b8ce-219cbe7bfcef" d="M495.2668,8.5633c-.7142-.7358-1.0703-1.6334-1.0703-2.6932,0-1.105,.3682-2.0027,1.1054-2.6932,.7358-.6906,1.6334-1.0359,2.6929-1.0359,1.0123,0,1.8877,.3453,2.6241,1.0359s1.1054,1.5882,1.1054,2.6932c0,1.0598-.3689,1.9575-1.1054,2.6932-.7365,.7371-1.6348,1.105-2.6929,1.105-1.0595,0-1.9457-.3679-2.6592-1.105Zm.7945,45.303c-.5072-.5061-.7594-1.1502-.7594-1.9335V19.544c0-.7823,.2522-1.4267,.7594-1.9339,.5058-.5061,1.1505-.7597,1.9335-.7597,.7823,0,1.4156,.2536,1.8991,.7597,.4836,.5072,.725,1.1516,.725,1.9339V51.9328c0,.7833-.2414,1.4274-.725,1.9335-.4836,.5072-1.1168,.7597-1.8991,.7597-.783,0-1.4277-.2526-1.9335-.7597Z"/><path class="uuid-ba5c6972-164a-4f81-b8ce-219cbe7bfcef" d="M521.5087,52.4851c-2.9242-1.6574-5.2138-3.947-6.8715-6.8712-1.6577-2.9232-2.4859-6.2035-2.4859-9.841s.8282-6.9289,2.4859-9.8757c1.6577-2.9458,3.9473-5.2486,6.8715-6.9059,2.9229-1.6574,6.2032-2.4862,9.841-2.4862s6.9059,.8288,9.8066,2.4862c2.9,1.6574,5.1902,3.9601,6.8709,6.9059,1.6806,2.9468,2.5209,6.2393,2.5209,9.8757s-.8288,6.9177-2.4859,9.841c-1.6577,2.9242-3.9487,5.2138-6.8715,6.8712-2.9242,1.6574-6.2046,2.4862-9.841,2.4862s-6.9181-.8288-9.841-2.4862Zm17.0227-4.2127c2.1176-1.2429,3.7747-2.9576,4.9724-5.1447,1.1971-2.1861,1.7959-4.6379,1.7959-7.3548,0-2.7624-.5989-5.2368-1.7959-7.4239-1.1977-2.1864-2.8548-3.9021-4.9724-5.1451s-4.5125-1.8647-7.1818-1.8647c-2.6241,0-5.0068,.6218-7.148,1.8647-2.1406,1.2429-3.8219,2.9586-5.0412,5.1451-1.22,2.1871-1.8297,4.6615-1.8297,7.4239,0,2.7169,.6097,5.1687,1.8297,7.3548,1.2193,2.1871,2.9006,3.9018,5.0412,5.1447,2.1412,1.2433,4.5239,1.8647,7.148,1.8647,2.6693,0,5.0641-.6215,7.1818-1.8647Z"/></g><path class="uuid-ba5c6972-164a-4f81-b8ce-219cbe7bfcef" d="M128.4791,22.1609l-13.26-5.53V6.5609h-11.59v11.59h10.68l13.76,5.74v7.93l-13.36,6.38h-11.08v11.6h11.59v-9.9l12.88-6.15h11.56v-11.59h-11.18Zm-15.26-6.02h-7.58v-7.58h7.58v7.58Zm24.44,15.61h-7.58v-7.58h7.58v7.58Z"/></svg>