<?xml version="1.0" encoding="UTF-8"?><svg id="uuid-f500e0c5-a14b-47e4-8c26-5ebe184d3067" xmlns="http://www.w3.org/2000/svg" width="180.0935" height="92.9586" viewBox="0 0 180.0935 92.9586"><defs><style>.uuid-208fcff9-04c8-4539-861c-cf14d3acacb6{fill:#ff9a00;}.uuid-cbb983f4-6f2d-424e-8a0f-74b605f91555{fill:#ff7400;opacity:.61;}.uuid-2319e687-94ba-4374-ad3b-a3b4e4ce13b8{fill:#ffc100;}</style></defs><path class="uuid-208fcff9-04c8-4539-861c-cf14d3acacb6" d="M71.5481,25.0406l-21.0156,13.7154-5.3997,3.5206-6.5661,4.2982-17.2791,11.2745c-2.3111,1.5119-4.8814,2.2247-7.4516,2.2247-4.4494,0-8.8122-2.1815-11.4257-6.1772-1.4471-2.2247-2.1599-4.7302-2.2031-7.1925v-.2376c0-3.823,1.5984-7.6028,4.6006-10.2595,.4969-.432,1.0152-.8208,1.5768-1.1879l19.2013-12.5274L56.6448,2.2108c6.307-4.1038,14.7521-2.3327,18.8559,3.9741,4.1253,6.2853,2.3542,14.7521-3.9526,18.8558Z"/><path class="uuid-cbb983f4-6f2d-424e-8a0f-74b605f91555" d="M51.85,62.2987l-11.6851,17.8839L6.3844,58.1301C2.3669,55.5167,.207,51.1537,.207,46.7044v-.2376c0-3.823,1.5984-7.6028,4.6006-10.2595l15.508-10.1083,24.8172,16.1775,.1296,.0863-6.5661,4.2982-5.3997,3.5206,18.5535,12.1169Z"/><path class="uuid-2319e687-94ba-4374-ad3b-a3b4e4ce13b8" d="M75.2937,86.7793c-4.1038,6.3068-12.5489,8.078-18.8559,3.9525l-14.428-9.4171-2.0519-1.3391L6.1774,57.9231c-4.0175-2.6134-6.1774-6.9764-6.1774-11.4257v-.2376c.0432-2.4623,.756-4.9677,2.2031-7.1925,2.6135-4.0174,6.998-6.1772,11.4474-6.1772,2.5486,0,5.1405,.7127,7.43,2.203l17.2791,11.2747,.1296,.0863,18.4239,12.0306,14.428,9.4171c6.3068,4.1255,8.078,12.5706,3.9526,18.8775Z"/><path class="uuid-208fcff9-04c8-4539-861c-cf14d3acacb6" d="M156.0584,33.5373l-28.5068-11.8886V0h-24.9166V24.9164h22.9602l29.5817,12.34v17.0481l-28.7217,13.7159h-23.8201v24.9381h24.9166v-21.2834l27.6898-13.2215h24.852v-24.9164h-24.0351Zm-32.8064-12.942h-16.2957V4.2995h16.2957V20.5953Zm52.5418,33.5588h-16.2957v-16.2956h16.2957v16.2956Z"/></svg>