<?xml version="1.0" encoding="UTF-8"?><svg id="uuid-44c0ec37-c529-4e25-a307-3b70a2f4d844" xmlns="http://www.w3.org/2000/svg" width="1922.0198" height="5527.0099" viewBox="0 0 1922.0198 5527.0099"><defs><style>.uuid-4443071b-5d26-45e6-b539-82bb0e82eed0{fill:#5a5a5a;}.uuid-c7d26e04-02f0-4f5e-9c8f-a61e787fd968{fill:#f59916;}.uuid-a0eec2ed-fcc2-4642-9810-b3ca9972389c{fill:#f39719;}</style></defs><g id="uuid-c09f1989-1dce-42a9-8486-eae657566dc5"><g><path class="uuid-4443071b-5d26-45e6-b539-82bb0e82eed0" d="M1396.9744,347.7153c-16.016-3.2689-31.3748-4.9202-45.6553-4.9202-44.72,0-65.9595,15.8306-69.4896,18.7457-3.9177-.5392-7.7763-.8088-11.5002-.8088-4.4063,0-7.4056,.3791-8.6272,.5729-14.609-10.4218-33.2031-16.2519-55.2935-17.3303-3.8839-.1853-8.0628-.2864-12.41-.2864-24.5169,0-48.1912,3.0499-48.4271,3.0835l-.7667,.1011-.3202,.7077c-2.4938,5.4847-1.07,11.3401-1.011,11.5928l.1685,.674,1.4323,.5898c2.4264,.9688,4.3389,1.7271,4.8696,5.7711,.0253,.1853,1.3817,9.4023,3.8587,19.9926,.0084,.0421,.0169,.0927,.0337,.1348,.2106,.9352,.4381,1.8703,.674,2.8139,2.7971,11.2474,6.7737,23.2447,11.7023,27.3898,9.2928,7.8268,31.7034,8.9895,44.2398,8.9895,1.8619,0,3.6817-.0252,5.4426-.0758,19.1669-.5139,27.9963-9.3434,30.8946-12.2416,4.4568-4.4568,12.6965-26.7495,14.0782-33.1946,1.2722-5.9649,5.1392-9.1159,11.1716-9.1159,7.296,0,9.377,5.611,9.5876,6.2514,.1434,.4297,.4129,1.2974,.7752,2.477,1.9798,6.462,6.6304,21.6102,10.0594,26.859,.3117,.4802,.6234,.9689,.9436,1.4744,3.8586,6.0828,8.6608,13.6486,25.0897,16.0834,5.0719,.7582,10.6156,1.1374,16.471,1.1374,11.9719,0,22.9076-1.626,28.6367-3.0162,9.1075-2.2158,16.8501-9.8404,19.5124-15.8812,1.862-4.2294,5.013-20.4054,7.8184-35.2335,.6234-3.2689,1.1036-5.847,1.3227-6.8074,.7246-3.2605,4.7265-4.2799,4.7602-4.2883l1.0784-.2528v-11.7613l-1.1205-.2275Zm-153.7905,59.6745c-5.4847,10.3459-24.2051,12.5111-38.9489,12.5111-.7667,0-1.5334-.0084-2.2831-.0168-15.62-.2191-28.4008-5.5016-33.6664-10.3123-5.232-4.777-8.3492-22.7476-10.0174-32.4026-2.0304-11.7192,.2865-18.0043,3.1341-19.9758,6.8411-4.7433,17.3976-7.1444,31.3916-7.1444,12.3932,0,24.4158,1.8282,33.5063,3.4206,16.0665,2.8224,26.4041,8.6525,27.6509,15.5947,1.4997,8.3239-4.4231,26.3788-10.7672,38.3254Zm131.3882,1.3985c-3.9513,7.4983-27.7183,10.8683-43.3383,10.8683-14.0446,0-23.708-2.4433-31.5517-14.9039-7.3131-11.6097-9.5119-30.0099-10.009-35.3682-.7077-7.6499,10.2449-11.3485,17.4988-13.7918,1.0784-.3707,2.081-.7077,2.9572-1.0194,6.3862-2.3506,28.0722-4.3305,47.3402-4.3305,18.2319,0,25.3847,8.8294,26.741,14.0445,1.4492,5.5942-5.1223,35.9581-9.6382,44.501Z"/><path class="uuid-a0eec2ed-fcc2-4642-9810-b3ca9972389c" d="M1313.5248,238.9848s8.5189,6.6267,18.4579,9.4651c9.939,2.8402,36.9159,17.0379,34.0757,44.0148-2.8402,26.9769,2.8402,41.6485,15.6178,48.2751,0,0-10.8852-14.1993-5.6787-34.0757,5.2065-19.8782-2.8402-76.1982-47.3272-75.7243,0,0-6.1527,5.6787-15.1455,8.0449h0Z"/><path class="uuid-a0eec2ed-fcc2-4642-9810-b3ca9972389c" d="M1335.2956,226.6797s68.6254,3.3124,74.778,57.2663c6.1527,53.9538,12.7775,64.839,20.8242,75.2521,8.045,10.4112,19.8781,44.4869,3.7864,69.5715-16.0917,25.0829-20.352,38.3343,3.7864,66.7314,24.1367,28.397,52.5337,29.3432,33.6018,56.7922-18.9302,27.4509-47.8012,42.5965-32.1834,63.8929,15.6195,21.2982,72.4118,40.2284,30.2911,97.4947-42.1225,57.268,32.6556,118.3206,61.5248,68.6254,0,0-11.3574,13.7254-29.8154,3.3142-18.458-10.413-22.2444-33.1296,8.5189-56.3201,30.7615-23.1905,18.4579-73.3579-21.2982-93.71-39.7544-20.3503-65.7852-27.4491-22.2444-55.3721,43.5426-27.9249,41.6485-36.4438,27.9231-48.7474-13.7237-12.3053-76.1964-49.6952-56.7923-70.0455,19.4041-20.3503,48.2733-47.8011,8.0449-103.1751-40.2284-55.3722-16.5639-53.0059-17.51-80.4568-.9479-27.4491-76.6722-93.7082-93.236-51.1136h0Z"/><path class="uuid-a0eec2ed-fcc2-4642-9810-b3ca9972389c" d="M1365.5854,240.8779s22.7165,23.6645,17.5118,54.4279c-5.2065,30.7615,7.571,37.3881,20.8242,50.1656,13.2515,12.7793,11.8314,41.1763-2.8402,53.9538-14.6716,12.7793-52.0597,39.7562-14.6716,86.6094,37.3882,46.855-3.3124,45.4349-18.458,61.5266-15.1456,16.0917-64.839,67.6793,8.045,129.678,72.8858,61.9988,7.1006,96.0745-15.1438,75.7242,0,0,14.6716,20.3503,45.9071,6.1527,31.2373-14.1994,41.6485-61.0526-11.3574-88.5035-53.0076-27.4491-74.778-81.8769-19.4059-105.5396,55.3739-23.6645,73.8319-50.1674,47.329-79.5106-26.5047-29.3432-17.0379-53.9538-1.4201-76.6721,15.6177-22.7165,1.8923-49.2196-11.8314-66.7313-13.7254-17.5119-6.6266-37.8621-6.1527-57.2663,.4722-19.4041-23.1906-41.6485-38.3361-44.0148h0Z"/><path class="uuid-a0eec2ed-fcc2-4642-9810-b3ca9972389c" d="M1290.2161,236.027s21.6523,.7101,31.2355-9.5831c9.5849-10.295,25.2026-23.7825,41.5304-17.7479,0,0-3.5485-26.2669-22.3624-22.0083-18.8121,4.2604-22.3624,12.0693-25.911,24.8468-3.5503,12.7793-12.7793,21.6523-24.4925,24.4925h0Z"/><path class="uuid-a0eec2ed-fcc2-4642-9810-b3ca9972389c" d="M1283.827,234.6072s15.9736-5.6786,21.2982-21.2981c5.3228-15.6178,17.392-36.2042,35.4958-31.2355,0,0-14.1994-19.168-31.5914-2.4843-17.3938,16.6819-13.8435,19.8763-15.6195,35.85-1.7743,15.9736-9.5831,19.168-9.5831,19.168h0Z"/><path class="uuid-a0eec2ed-fcc2-4642-9810-b3ca9972389c" d="M1266.4341,225.0233s13.1334-26.6209-4.6145-45.0789c0,0,9.939-15.2636,43.6606-2.1301,0,0-17.7479,9.939-15.9737,23.4265,1.7743,13.4893-3.5503,29.4612-12.7793,34.4316l-10.2932-10.6491Z"/><path class="uuid-a0eec2ed-fcc2-4642-9810-b3ca9972389c" d="M1444.1494,519.1646s.9461,26.503-30.7633,41.6485c-31.7094,15.1456-27.923,35.4959-8.0449,53.4799,19.8763,17.984,20.8242,55.3739,13.2515,61.0526,0,0,8.0449,8.9929,12.7775,21.7704,0,0,26.0308-39.2805-8.0449-73.8302-34.0758-34.5496-5.6787-35.4958,19.4041-53.0076,25.0846-17.51,30.2894-37.8621,1.4202-51.1136h0Z"/><path class="uuid-a0eec2ed-fcc2-4642-9810-b3ca9972389c" d="M1383.5698,696.6433s-19.4041,19.8781-41.6485,2.8403c-22.2444-17.0379,.4739-31.2373,.4739-31.2373,0,0-23.6645,9.4668-11.8331,35.9698,11.8331,26.503,45.4349,27.9231,67.2053,18.458,0,0-1.8923-17.5118-14.1976-26.0308h0Z"/><path class="uuid-c7d26e04-02f0-4f5e-9c8f-a61e787fd968" d="M1263.6559,195.9664c-5.5222-14.0761-23.2568-23.6863-45.5947-23.6863-4.5603,0-9.301,.3951-14.1791,1.2367-8.2532,1.46-22.0974,5.0327-36.414,14.7546-18.4646,12.5301-27.6797,28.487-31.5788,36.4053,0,0-3.7874,9.6617-3.1347,17.4941,0,0,34.7135-4.2683,57.163-31.0377,10.7782-12.8651,23.9696-16.2059,34.7736-16.2059,11.68,0,20.5687,3.9076,20.5687,3.9076,0,0,10.3316,3.4696,16.558,15.6649l1.9667,3.1347c3.2807-10.9585,1.1852-18.3186-.1288-21.668Zm-16.455-2.044c-1.4686-.6183-10.6665-4.2855-22.5097-4.2855-15.4759,0-28.8992,6.2608-38.8272,18.0953-15.2526,18.1984-36.9207,25.3867-47.4842,27.9374,.6098-3.693,1.7348-7.2227,2.3532-8.863,4.8008-9.6875,13.8356-23.3943,29.7066-34.1639,10.3574-7.0337,21.9171-11.7143,34.3442-13.9129,4.4745-.7729,8.9403-1.168,13.2774-1.168,19.5553,0,35.9072,8.176,40.6737,20.3368,.6098,1.5373,1.0306,3.1862,1.271,4.9125-5.651-6.0031-11.491-8.3993-12.805-8.8888Z"/><path class="uuid-c7d26e04-02f0-4f5e-9c8f-a61e787fd968" d="M1242.3829,204.9068c-4.4401-2.1986-9.4213-3.2807-14.6171-3.2807-13.5007,0-28.427,7.3171-39.0248,21.2901-3.8475,4.191-10.366,10.2629-19.9676,15.0809-8.3821,4.1996-16.0427,5.9001-21.3331,6.6559-3.8561,.5067-21.5993,3.2979-34.6533,19.375-12.5473,15.4502-12.1437,32.5493-11.9462,36.6115,1.8378-4.9382,6.673-15.871,18.0094-24.8628,9.447-7.4803,18.9971-10.1255,24.0813-11.1561,7.7724-.7042,21.3073-3.0488,35.0484-11.9462,6.6387-4.3027,11.6456-9.052,15.2698-13.1142,2.4133-1.9667,9.6961-7.3429,20.1651-7.4374,.0945,0,.189-.0086,.292-.0086,5.6339,0,10.1083,1.5459,12.8222,2.7482,0,0,5.7369,2.2329,13.1485,2.2329,2.6452,0,5.4965-.2834,8.3821-1.0563,10.9671-2.9372,11.7486-7.2484,12.1437-9.2066-1.46-4.2769-6.1578-16.1458-17.8205-21.9256Zm11.8774,22.5268c-.7214,.7386-2.6537,2.1814-7.5662,3.4954-2.1728,.584-4.5345,.8846-7.0165,.8846-5.8228,0-10.5291-1.6231-11.1647-1.855-4.7407-2.0698-9.7218-3.1261-14.806-3.1261h-.3435c-11.2934,.1117-19.5381,5.4449-23.4458,8.6226l-.335,.2662-.2834,.3178c-4.191,4.7063-8.9661,8.8114-14.1963,12.2038-9.5844,6.2093-20.8693,10.0482-32.6437,11.1131l-.292,.0258-.2834,.0515c-9.593,1.9495-18.6965,6.1663-26.3142,12.2038-1.271,1.0049-2.4648,2.0355-3.5985,3.0832,1.3312-2.4562,2.9457-4.9296,4.921-7.3601,10.9328-13.4663,25.4898-16.704,31.2868-17.477,8.0127-1.1336,15.7421-3.5469,22.9648-7.1626,8.1073-4.0708,15.3385-9.5243,21.4962-16.2231l.1632-.1889,.1546-.1975c9.1121-12.0235,22.1232-19.2032,34.808-19.2032,4.483,0,8.6139,.9189,12.2725,2.7396,8.2704,4.0966,12.5645,12.0665,14.5913,17.331-.0945,.1374-.2061,.2834-.3693,.4552Z"/><path class="uuid-c7d26e04-02f0-4f5e-9c8f-a61e787fd968" d="M1179.2047,296.1477c-9.842,4.9812-13.4405,5.9774-13.4405,5.9774-1.7778,.4981-4.526,1.1165-8.0901,1.3226-9.6617,.3693-18.0781,6.2264-21.0153,14.5914-2.8427,8.1158,0,17.0819,7.1797,22.6127,4.9125-1.2367,9.8335-2.4734,14.746-3.7101,0,0-4.3027-17.9493,9.5329-23.0936,13.8356-5.1444,11.0873-17.7003,11.0873-17.7003Zm-12.8565,12.9596c-11.6456,4.3284-13.9644,15.7765-13.4148,24.0383l-2.9543,.7386-4.8094,1.211c-4.1481-4.1824-5.6167-10.0053-3.7358-15.3815,2.2501-6.4154,8.8544-10.9242,16.4378-11.2162h.0945c3.1604-.1803,6.2436-.687,9.155-1.4943,.2577-.0687,1.8207-.5325,5.256-2.0182-1.3312,1.7606-3.3237,3.1175-6.0289,4.1223Z"/><path class="uuid-c7d26e04-02f0-4f5e-9c8f-a61e787fd968" d="M1148.6084,429.2561c-4.629,11.0959-9.2667,22.1919-13.8957,33.2878,2.3961,3.6071,6.4583,10.8726,7.0423,20.7491,1.0735,18.0352-9.6875,27.508-12.5215,32.6953-4.5088,6.2007-9.0091,12.3928-13.5093,18.5935,4.2426,12.659,8.4765,25.3266,12.7191,37.9856,.8932-4.9382,2.3703-10.8984,4.8953-17.4254,2.4992-6.4669,4.6978-10.2801,8.0299-16.0513,8.0557-12.8823,17.2537-22.879,20.7491-40.7253,6.9049-35.2459-9.5071-62.9085-13.5092-69.1092Zm8.322,68.0958c-2.5249,12.8823-8.3649,21.4963-14.557,30.6169-1.8036,2.6623-3.6672,5.4106-5.4879,8.3134l-.0515,.0773-.0429,.0859c-3.3236,5.7627-5.7198,9.9194-8.3821,16.7899-.1546,.4037-.3092,.8073-.4552,1.211l-2.6365-7.8668-3.7187-11.0959,9.7991-13.4921,2.1127-2.9028,.1975-.2662,.1546-.3006c.4208-.7644,1.3054-1.9581,2.2416-3.2292,4.4487-6.0289,11.8946-16.1201,10.9328-32.3174-.438-7.2742-2.6366-14.4453-6.3982-20.9122l2.1127-5.0585,6.527-15.6391c5.6682,11.8517,12.3326,32.1199,7.6521,55.9864Z"/><path class="uuid-c7d26e04-02f0-4f5e-9c8f-a61e787fd968" d="M1484.6386,2191.5449c-20.3282-58.1334-71.5997-168.6892-186.5269-256.0141-21.8054-16.5667-68.7313-52.2249-138.3901-77.2422l205.7559,43.0181v.0172c0,5.84,4.7321,10.5721,10.5635,10.5721,5.84,0,10.5721-4.7321,10.5721-10.5721s-4.7321-10.5719-10.5721-10.5719c-4.3371,0-8.0642,2.6106-9.6875,6.3552l-256.9415-53.7192c-.0086,0-.0258-.0084-.0344-.0084-8.5281-2.0097-17.3052-3.8477-26.3228-5.5052-.0172,0-.0429-.0086-.0601-.0086l-4.6462-.9706v-15.6391h-34.1639v8.3823l-144.316-59.3016c.1202-.6355,.1803-1.2796,.1803-1.9494,0-5.84-4.7321-10.5721-10.5635-10.5721-5.84,0-10.5721,4.7321-10.5721,10.5721s4.7321,10.572,10.5721,10.572c3.6414,0,6.8534-1.8465,8.7514-4.6548l138.3214,56.8368c-37.3586-4.0794-78.0924-5.5396-121.8922-4.3543-7.549,.2061-14.7116,.5066-21.6337,.7986-23.0679,.962-44.8561,1.8722-77.4311-.7729-23.3943-1.898-66.9278-5.4364-113.7764-20.5773-71.3765-23.0766-123.4467-63.9479-154.5617-94.1783-32.9615-32.0254-91.636-101.3407-114.2574-205.7989-4.3972-20.3111-8.3134-46.256-9.0519-76.143h13.0627v-34.1553h-12.4958c1.3054-22.2949,4.5517-46.1615,10.5978-71.0501,6.5356-26.8982,45.7149-165.2282,175.6372-247.0135,60.8559-38.3034,133.5378-58.9753,178.5829-62.4706,12.5903-.9705,30.1274-2.4906,65.0642-5.5051l.1632-.0172c51.2973-4.4228,61.4056-5.5221,72.9395-8.2189l-92.2716,42.2196c-1.8636-2.4562-4.7836-4.0794-8.1073-4.1824-5.8314-.1804-10.7095,4.4057-10.8812,10.2458-.1804,5.8313,4.4057,10.7009,10.2371,10.8812,5.84,.1803,10.7095-4.4057,10.8898-10.2371,.0343-.9792-.0687-1.9237-.292-2.8255l116.3271-53.2382v5.9172h34.1639v-21.5476l146.3858-66.9965c1.855,2.5249,4.818,4.2081,8.1931,4.3112,5.84,.1804,10.7095-4.4057,10.8898-10.2458,.1804-5.8313-4.4057-10.7008-10.2457-10.8812-5.8314-.1804-10.7095,4.4057-10.8812,10.2371-.0258,.919,.0601,1.8208,.2576,2.6796l-122.2272,55.9348c39.2738-27.13,63.4238-59.748,76.9932-82.9705,26.9583-46.1443,34.0951-91.0005,35.3318-120.5095,.1374-3.2292,.2061-6.4755,.2147-9.7304,7.2914-50.5845-12.1695-83.2883-13.054-84.7397-2.4391-3.9849-3.9849-8.2962-4.5947-12.8136l-.1117-.7644c-.5239-3.8218-1.0735-7.7723,.876-11.491,1.8121-3.4524,5.3934-7.0681,9.0004-10.4604l.5497-.5668c4.1481-4.2855,7.4202-7.6693,10.9757-18.3358,7.7294-23.1623-1.1422-43.7568-5.359-51.615-5.6081-12.1265-8.3048-25.4898-7.8152-38.6555,.3693-10.177,2.5851-20.1393,6.5785-29.6121,2.5335-6.0117,4.1481-9.6875,6.1921-14.3423,2.628-5.9945,5.9001-13.4491,12.5989-29.2428,2.1986-5.1873,3.9248-9.0434,5.3075-12.1437,3.0145-6.7503,4.5346-10.1341,5.6854-15.6735,1.4257-6.819,3.1948-15.2956,2.2072-26.1768-.1717-1.9323-.4723-3.8218-.8674-5.6682-.2405-.9619-.4724-1.9152-.6871-2.8684-.0171-.0429-.0257-.0945-.0343-.1374-1.7176-6.2694-4.3628-11.9204-6.6301-16.7556-.6956-1.4943-1.3569-2.9114-1.9495-4.2426-.9877-2.2415-1.8207-4.0364-2.5593-5.6253-1.9924-4.2941-3.5641-7.6864-6.673-16.6267-2.2158-6.3724-2.1986-11.0015-2.19-13.4835,0-.5153,0-.9533-.0172-1.2882-.146-3.5297-.4552-10.8726,4.2426-17.7174,4.3284-6.3209,10.615-8.7428,15.2097-10.5119,2.877-1.1079,4.5088-1.3569,7.2141-1.7692,1.46-.2147,3.2721-.4981,5.6682-.9705,9.2151-1.8464,19.6497-3.9334,27.6797-9.8678,6.8362-5.0585,11.8689-13.0455,14.557-23.1108,.5926-2.2673,2.6022-7.9441,8.322-11.8002,4.6977-3.1776,9.5415-3.5297,12.0149-3.461l15.7593,.438-14.7545-5.5566c-4.5775-1.7262-16.6611-5.1271-29.9041,.5669-8.2876,3.5641-12.0235,8.4078-15.0293,12.3068-1.0821,1.3999-2.1041,2.7311-3.2378,3.8647-3.3494,3.0317-7.0423,5.1959-10.9843,6.4497-3.942,1.2453-6.9908,1.211-10.2285,1.1766-.9447-.0085-1.8894-.0171-2.8084,0-.1288,0-13.9558,.3178-26.6062,7.3859-13.243,7.403-19.1345,19.3921-21.96,25.1548-2.5163,5.1186-6.7503,15.8109-6.8018,29.8698-.0773,19.186,6.5356,29.9986,12.367,39.54,1.2796,2.0955,2.4906,4.0794,3.6071,6.0805,5.0327,9.5157,8.0987,19.7185,9.0949,30.3335,1.7778,18.8081-.0343,26.589-6.0031,39.0419-3.6156,7.3172-8.0471,13.827-12.3326,20.1136-2.1814,3.212-4.4401,6.5184-6.5442,9.8678-.5497,.8158-1.3655,1.9066-2.3102,3.1604-6.8362,9.1293-21.0754,28.1177-20.8436,57.06,.1804,23.6347,10.1083,41.4036,16.0685,49.9403l4.234,7.4202,.1632,.189c.4466,.5325,4.3714,5.3504,2.8427,11.199-.8073,3.1003-2.7998,5.1357-3.9763,6.1148-4.191,2.8341-13.9386,10.7868-16.6783,24.8456-1.8636,9.5759,.335,17.623,2.5163,22.69l15.2612,27.1387c11.886,21.1098,18.602,66.3009,19.7185,74.3136v.0172c-.0085,.4208-.0257,.8331-.0429,1.2539-1.2023,28.7361-8.1588,72.4071-34.4043,117.3319-14.0675,24.0899-39.8234,58.5371-82.6012,85.8733-2.7053,1.7262-6.3295,4.045-10.8297,6.6816v-3.7616h-34.1639v20.2251c-7.7809,2.9715-16.3691,5.7456-25.7131,8.03-11.9548,2.9285-20.2166,3.8733-73.721,8.5022l-.1632,.0086c-34.9196,3.0145-52.4395,4.526-65.004,5.5051-45.8867,3.5555-119.8654,24.5708-181.709,63.5012-57.2145,36.0188-103.8313,86.5775-138.5705,150.2934-25.3524,46.505-36.4741,86.0623-40.0897,100.9113-3.0832,12.7019-5.4535,25.1462-7.2141,37.2555v-169.1272c4.8094-.9963,8.425-5.256,8.425-10.3574,0-5.8314-4.7321-10.5634-10.5721-10.5634-5.8314,0-10.5635,4.732-10.5635,10.5634,0,5.1014,3.6156,9.3612,8.4164,10.3574v204.5449h-14.0675v34.1553h14.0675v210.0759c-4.8008,.9962-8.4164,5.2559-8.4164,10.3573,0,5.8399,4.7321,10.572,10.5635,10.572,5.84,0,10.5721-4.7321,10.5721-10.572,0-5.1014-3.6156-9.3612-8.425-10.3573v-160.6852c1.4771,10.2886,3.2292,19.7271,5.0671,28.2037,22.9992,106.2273,82.6614,176.7107,116.1811,209.277,31.6389,30.7372,84.6023,72.304,157.2413,95.7841,47.6044,15.39,91.6618,18.9712,115.3308,20.8951,32.9958,2.6794,54.9902,1.7604,78.2728,.7815,6.9049-.2921,14.0417-.5925,21.5392-.79,46.7971-1.2712,90.03,.498,129.3296,5.2731v16.4893h34.1639v-11.4135c.4809,.0772,.9533,.1631,1.4342,.2575,14.6429,2.6366,28.6416,5.7455,41.9705,9.3269,88.4412,23.7635,147.1415,68.3619,172.2019,87.4021,113.493,86.2426,164.1204,195.4156,184.1996,252.8191,26.4946,75.765,35.7956,158.1861,26.8896,238.3568-8.1502,73.3861-31.845,145.9307-68.5251,209.801-35.4692,61.7576-84.1729,117.2718-140.8464,160.539-13.2172,10.0911-132.8937,98.8502-263.1423,107.2151-19.0486,1.2195-64.1796,2.3875-102.7406,2.6538-33.9663,.2403-56.8539-.2491-73.5578-.6013-9.5071-.1975-17.0132-.3606-23.7636-.3348-102.2166,.3348-188.7942,43.6453-198.3271,48.5835-7.7294,3.9934-15.3042,8.2531-22.7243,12.7791l45.1825-37.831c1.7864,1.4086,4.0536,2.2502,6.5184,2.2502,5.84,0,10.5721-4.7235,10.5721-10.5635s-4.7321-10.5721-10.5721-10.5721-10.5635,4.7321-10.5635,10.5721c0,1.8208,.4638,3.5384,1.2796,5.0326l-72.3985,60.6155h-32.0597v26.8381l-100.0439,83.7607c-1.7606-1.3312-3.9677-2.1299-6.3638-2.1299-5.8314,0-10.5635,4.7321-10.5635,10.5721s4.7321,10.5635,10.5635,10.5635c5.84,0,10.5721-4.7235,10.5721-10.5635,0-1.8982-.4981-3.6844-1.3741-5.2217l70.157-58.7346c-8.4851,9.4898-16.6181,19.4608-24.4076,29.9039-25.7217,34.5159-41.3436,65.8114-49.9146,85.9765-20.4313,48.0509-50.2066,146.2226-20.1994,263.9238,23.0507,90.3993,71.2391,153.0072,107.6101,189.6186,16.7555,16.8757,61.2767,61.6979,128.883,88.055,18.1984,7.1025,45.2169,15.6047,66.9364,22.432,28.4012,8.9404,46.3591,13.8958,60.7959,17.8809,9.7905,2.7052,17.5285,4.8434,25.61,7.4115,.6355,.2063,64.3084,20.792,120.9218,64.9956,12.6676,9.8936,24.1843,20.3022,34.6705,31.0118v32.6951h28.3324c37.874,49.3305,56.9483,99.9237,65.9659,131.2794,12.1695,42.314,23.2998,109.0441,7.1969,186.6641-24.8284,119.7109-99.4341,193.1228-130.3516,219.1281-27.9288,23.4884-130.24,99.4339-274.0836,90.4163-16.5323-1.0391-33.0731-3.169-49.3907-6.3552v-14.3852h-34.3528v34.3528h34.3528v-12.9599c16.1802,3.1006,32.575,5.1789,48.9613,6.2009,8.1759,.5154,16.3347,.7729,24.4678,.7729,56.6649,0,112.2391-12.4185,165.5374-37.0148,32.326-14.9178,63.9047-34.7222,88.9307-55.7721,31.4672-26.4599,107.3954-101.1688,132.6619-222.9836,16.3777-79.003,5.0584-146.9013-7.3258-189.9626-8.1674-28.375-20.2424-57.4461-34.9368-84.0695-6.0375-10.9328-12.4872-21.4621-19.3406-31.5532l58.9666,63.4671c-1.2367,1.7344-1.9753,3.8647-1.9753,6.1661,0,5.8314,4.7321,10.5633,10.5721,10.5633s10.5721-4.7319,10.5721-10.5633c0-5.8398-4.7321-10.5721-10.5721-10.5721-1.9839,0-3.8475,.5498-5.4363,1.5029l-74.5885-80.2824v-28.2035h-26.2111l-2.9457-3.169-100.3617-108.0225c1.2367-1.726,1.9667-3.8475,1.9667-6.1317,0-5.8314-4.7321-10.5637-10.5635-10.5637-5.84,0-10.5721,4.7323-10.5721,10.5637,0,5.8398,4.7321,10.5721,10.5721,10.5721,1.9924,0,3.8561-.5586,5.4535-1.5117l68.2933,73.4978c-.0773-.06-.1632-.1287-.2405-.1891-57.6096-44.9932-122.4161-65.9228-123.0602-66.1291-8.2103-2.6108-16.0084-4.7663-25.8762-7.4887-14.3766-3.9678-32.2744-8.9144-60.564-17.8121-21.6079-6.8018-48.5147-15.2696-66.4984-22.2777-66.2407-25.8334-110.0233-69.9078-126.5041-86.5005-35.7613-36.0016-83.1509-97.5787-105.8152-186.4665-29.5176-115.7517-.2318-212.2917,19.8559-259.5438,9.6102-22.6042,39.394-84.1643,98.2146-139.4896h31.0034v-26.2797c16.1802-12.3155,34.0608-23.8666,53.7621-34.0695,9.3783-4.8608,94.5904-47.4756,195.1925-47.8104,6.6644-.0258,14.1362,.1373,23.5917,.3348,16.747,.3523,39.6947,.8416,73.7554,.6013,39.3168-.2749,83.649-1.4258,103.127-2.671,55.9521-3.5898,116.0609-21.711,178.6688-53.8393,46.6511-23.944,79.312-47.9737,88.2094-54.7669,57.3864-43.817,106.7083-100.0439,142.6242-162.5831,37.1525-64.6777,61.1479-138.1498,69.4011-212.4548,9.0176-81.1926-.3951-164.6614-27.2332-241.3882Zm-384.2958-1509.5383l-15.0723-26.7608c-1.5459-3.6328-3.8046-10.8813-2.1299-19.4609,2.3875-12.2382,10.9671-19.1431,14.5398-21.5477l.1976-.146c2.877-2.336,4.9554-5.5136,5.8486-8.9489,2.0526-7.8754-2.4562-14.1361-3.7702-15.7507l-4.0622-7.111-.1288-.2061c-5.5995-7.9956-15.0121-24.7512-15.1839-47.0547-.2147-27.1559,13.2945-45.1825,19.7958-53.8394,.9877-1.3226,1.8379-2.4648,2.5077-3.4611,2.087-3.3236,4.3199-6.5957,6.4755-9.7648,4.3972-6.4411,8.9317-13.1056,12.7277-20.7834,6.8534-14.3079,8.2532-23.3084,6.5098-41.8503-1.0649-11.3106-4.3284-22.1833-9.7132-32.3517-1.1937-2.147-2.4905-4.2684-3.7444-6.321-5.7369-9.3783-11.6542-19.0743-11.5855-36.7661,.0515-13.4834,4.3886-23.7635,6.2522-27.5595,2.5937-5.2818,7.9871-16.2746,19.7958-22.8704,11.388-6.3639,23.961-6.7074,24.0899-6.7074,.9103-.0258,1.8035-.0086,2.6881,0,3.5125,.0343,7.1368,.0687,11.886-1.4342,4.6892-1.4858,9.0606-4.0451,12.9853-7.6092l.0945-.0859c1.3827-1.3913,2.5249-2.8599,3.7358-4.4229,2.8942-3.7702,5.9001-7.6607,12.9252-10.6837,5.1529-2.2072,10.1083-2.8341,14.3509-2.7138-.8331,.4294-1.6747,.9275-2.5163,1.4943-7.1969,4.8609-9.7218,11.9891-10.469,14.8232-2.3703,8.8888-6.7246,15.8796-12.5903,20.2166-7.0767,5.2302-16.9016,7.1969-25.5756,8.9317-2.2673,.4551-3.9506,.7128-5.4277,.9361-2.8427,.438-4.9039,.7472-8.3134,2.0612-4.9468,1.898-12.41,4.775-17.6745,12.4529-5.6854,8.2962-5.3161,17.1421-5.1615,20.9208,.0172,.2834,.0086,.6355,.0086,1.0564-.0086,2.6022-.0257,8.0127,2.482,15.2354,3.1948,9.1979,4.818,12.6933,6.8792,17.1163,.7644,1.6403,1.5545,3.3408,2.5163,5.5308,.6012,1.3741,1.2882,2.8255,2.0011,4.3542,3.0917,6.5957,6.9392,14.8146,7.7379,23.6605,.9189,10.1083-.7643,18.1555-2.1213,24.6653-1.0306,4.9382-2.3789,7.9527-5.3333,14.557-1.3913,3.1175-3.1347,7.008-5.3504,12.2382-6.6816,15.7594-9.9451,23.1967-12.5731,29.1741-2.0526,4.6805-3.6757,8.3735-6.2178,14.4196-4.2426,10.0653-6.5957,20.646-6.9994,31.4672-.5153,14.0245,2.3703,28.2466,8.3392,41.146l.0687,.146c3.8819,7.1969,12.1351,26.2284,5.0413,47.5013-3.1776,9.5329-5.9345,12.3842-9.7562,16.3347l-.4208,.438c-3.9248,3.6929-7.8496,7.6864-10.0139,11.8088-2.7396,5.2216-2.0096,10.4604-1.4256,14.6686l.1031,.7558c.7128,5.2474,2.5077,10.2457,5.3247,14.849,.1717,.2834,13.8356,23.2482,13.8613,59.8082,0,4.38-.1889,8.9489-.6269,13.7067-.7214-4.0708-1.5888-8.6311-2.6108-13.4405-3.4009-16.0771-8.4594-34.8509-15.2011-46.8228Zm-140.0649,291.1742h20.4227v20.414h-20.4227v-20.414Zm-550.5461,450.0642v-20.4142h20.4142v20.4142h-20.4142Zm661.7461,425.3045h-20.4227v-20.4227h20.4227v20.4227Zm-91.3784,2005.455h20.4227v20.4225h-20.4227v-20.4225Zm-403.4304-834.4032h-20.4227v-20.4227h20.4227v20.4227Z"/><path class="uuid-c7d26e04-02f0-4f5e-9c8f-a61e787fd968" d="M1194.6154,683.5611c.0258,1.0993,.0773,14.0417-10.9585,21.9343-4.7407,3.3838-10.3831,5.0155-15.6219,5.0155-3.2807,0-6.3982-.6441-9.052-1.8894-12.3584-5.8142-17.6144-27.6024-9.593-49.7256,1.8379-4.1824,4.1996-5.9259,7.8324-9.9795,2.6538-2.9543,3.7101-3.7788,5.0928-5.6768,3.6844-5.0842,4.2941-10.5291,4.6978-14.1018,1.5888-14.1104-4.8094-26.1768-5.4793-27.4049-8.7428-16.017-24.2015-21.5993-28.1951-22.9048,.7386,3.5555,1.3827,8.6397,.7816,14.6858-.481,4.8781-1.6318,8.9231-2.7396,11.9376,6.6301,3.358,10.9585,9.7304,11.1647,16.6439,.1889,6.5528-3.3838,11.1818-4.5088,12.5302-4.4057,5.7111-12.2554,17.5113-14.2908,34.0608-.5669,4.6548-4.3027,39.2996,19.186,54.4234,1.211,.773,10.9757,6.8534,22.4753,6.8534,4.6462,0,9.5672-.9877,14.3337-3.7187,13.0025-7.4545,19.6154-24.9316,14.8747-42.6833Zm-17.5027,38.0972c-3.4954,2.0011-7.4374,3.0145-11.7057,3.0145-9.9881,0-18.6536-5.3934-19.6155-6.0031-20.1565-12.9767-17.5285-43.379-16.7985-49.3392,1.3655-11.1389,5.9259-21.9944,13.1743-31.407,2.2415-2.7138,5.8829-8.3305,5.6596-15.9912-.2233-7.3601-4.0107-14.2392-10.1513-18.7824,.8331-2.9887,1.3999-6.0375,1.709-9.1207,.2233-2.2329,.3006-4.4744,.2405-6.7074,5.7112,3.1347,12.6075,8.4079,17.2708,16.9445,.6441,1.1852,6.2608,11.9033,4.8609,24.2874-.3607,3.212-.8588,7.6263-3.7187,11.5769-.6355,.8846-1.1766,1.4428-2.1642,2.4734-.6699,.7042-1.5029,1.5717-2.5851,2.7826-.833,.9275-1.606,1.7348-2.3446,2.5164-2.482,2.6108-4.629,4.8609-6.3896,8.8716l-.0687,.1546-.0601,.1632c-4.1395,11.4051-5.2216,23.4286-3.0574,33.8547,2.2587,10.8898,7.7208,18.8596,15.3643,22.4581,3.3236,1.5631,7.2227,2.3875,11.3021,2.3875,6.6387,0,13.2773-2.1299,18.6879-6.0031,.5153-.3607,1.0048-.73,1.4771-1.1165-2.3961,5.6596-6.2866,10.2286-11.0873,12.9853Z"/><path class="uuid-c7d26e04-02f0-4f5e-9c8f-a61e787fd968" d="M1112.7871,386.9765c-3.2549-7.7466-5.7798-9.5415-10.7696-20.7577-5.4363-12.2038-8.1502-22.8789-9.5931-29.947-4.3714,5.2474-10.4089,13.9043-13.7067,25.8419-1.5631,5.6682-2.3446,11.4824-2.147,27.2074,.1202,10.1255,.6355,23.9439,2.3446,40.5277,.438,4.5603,.6699,13.5092-3.3236,23.6863-4.1653,10.6064-10.804,17.1506-14.2908,20.1651-1.5888,1.0735-31.1408,21.668-28.5901,51.6837,1.5459,18.1211,14.0846,30.9089,19.7786,36.8004,10.5034,10.8813,21.8226,16.1372,28.384,18.6021-1.9238-2.8856-4.3714-7.3-5.8743-13.1142-1.0821-4.1824-1.3655-7.8926-1.3655-10.7696-2.0096-1.8465-15.0809-15.8194-12.9252-39.875,1.6318-18.1297,9.4642-26.5547,28.0662-41.7644,5.4535-3.8046,21.0755-18.3788,27.3362-41.6957,.5067-1.8637,6.1491-24.0469-3.3236-46.591Zm-1.7778,45.2168c-5.7283,21.3073-20.1823,35.1859-25.2665,38.7413l-.1632,.1117-.1546,.1288c-19.0057,15.5361-28.1521,25.0775-29.9814,45.38-2.0783,23.1451,8.6827,37.7193,12.951,42.5116,.1546,3.358,.6527,6.6816,1.4857,9.9279,.0515,.1975,.1117,.395,.1632,.5926-5.0327-3.1175-9.6789-6.8448-13.7497-11.0702l-.2061-.2061c-5.4363-5.6253-16.7384-17.331-18.1039-33.3738-.9447-11.1217,2.9543-22.2005,11.5855-32.9357,6.9736-8.6655,14.3766-13.7068,14.6858-13.9215l.2576-.1717,.2405-.2062c4.8523-4.191,11.5167-11.448,15.7593-22.2348,3.2378-8.2533,4.5002-17.2794,3.6586-26.1597-1.3741-13.4148-2.1556-26.8896-2.3188-40.0468-.1803-15.0895,.5153-20.5086,1.9667-25.7474,1.4084-5.1186,3.5039-10.0396,6.235-14.7288,1.9238,6.6902,4.3113,13.243,7.1368,19.5897,2.7482,6.1749,4.775,9.6188,6.5699,12.6504,1.5373,2.6022,2.7482,4.6634,4.1481,7.9956,8.863,21.0926,3.3408,42.2797,3.1003,43.1728Z"/><path class="uuid-c7d26e04-02f0-4f5e-9c8f-a61e787fd968" d="M1063.843,622.7481c3.9763-19.5381,23.1709-26.7522,24.2788-27.1473-4.1395-.7472-10.5806-2.4133-17.4941-6.527-6.9221-4.1224-11.4652-8.9919-14.0932-12.2726-3.4009,.8502-10.0911,3.066-15.141,9.1379-8.3563,10.0396-6.0547,23.1709-5.2216,27.9288,1.8207,10.3831,5.6854,11.1475,11.2248,24.2788,2.1556,5.11,7.5405,19.1345,7.5748,36.809,.0086,7.4545-.9189,19.5209-6.527,33.6657-.6785,1.3999-10.2457,20.3712-31.0635,22.9734-1.563,.1976-3.1175,.292-4.672,.292-14.952,0-29.3115-8.8716-36.5685-23.2654,.0343,2.6795,.5668,19.7185,14.3508,31.0635,8.4079,6.9135,17.8463,8.5109,25.1033,8.5109,4.4487,0,8.0729-.6012,10.1341-.9361,22.7587-3.7702,34.7135-22.2262,36.809-25.5842,4.1653-6.381,12.9338-21.7625,12.7878-42.8121-.0859-12.6075-3.3494-22.6557-6.0031-28.968-1.8293-6.2694-8.3134-13.2258-5.4793-27.1473Zm-5.7283,96.0332l-.0344,.0515-.0257,.0429c-2.8857,4.629-13.8012,19.959-33.1848,23.1624-1.9667,.3264-5.256,.876-9.2752,.876-8.5367,0-15.8452-2.4648-21.7453-7.3085-2.147-1.7692-3.9334-3.7101-5.4106-5.7026,7.2484,4.6462,15.6477,7.2656,24.2702,7.2656,1.7778,0,3.5727-.1116,5.3247-.3263,23.4286-2.9372,34.035-23.5746,35.1687-25.9192l.0859-.1717,.0687-.1804c4.5947-11.6027,6.9221-23.5832,6.8963-35.6324-.0344-17.4083-5.0155-31.8107-7.9871-38.8444-2.5163-5.9774-4.7321-9.5845-6.5184-12.4787-2.1814-3.5555-3.504-5.7026-4.3714-10.6579-.7386-4.234-2.7052-15.4845,4.0794-23.6347,2.7654-3.3236,6.2436-5.2818,9.3182-6.4411,3.8303,4.2082,8.236,7.8152,13.1571,10.7352,2.2157,1.3226,4.5088,2.482,6.862,3.4868-6.4755,4.8609-13.7154,12.7363-16.1287,24.588-2.4562,12.075,1.1508,19.77,3.7874,25.3867,.7729,1.6575,1.4428,3.0831,1.7949,4.2941l.0859,.292,.1202,.2748c3.6414,8.6655,5.5223,17.7346,5.5909,26.9669,.1202,17.6659-6.424,31.4414-11.929,39.875Z"/></g><path class="uuid-c7d26e04-02f0-4f5e-9c8f-a61e787fd968" d="M520.883,4387.7911c-1.1147,.8145-3.7767,2.9978-4.8887,6.78-.1694,.5761-.4891,1.8624-.4891,3.4625,0,6.8671,5.5714,12.4386,12.4388,12.4386,1.3297,0,2.609-.2104,3.8125-.5975,18.776,27.8146,37.5436,55.6296,56.3112,83.4442,1.1446,1.9441,.5723,4.2166-.749,5.0496-1.498,.9513-4.2332,.2104-5.2347-2.247-9.2407-10.0404-25.5509-25.0963-49.9319-35.9026-15.9483-7.0693-30.5331-10.1748-41.5243-11.597-.5134-11.0755-2.3228-25.4665-7.4818-41.516-3.4842-10.8483-7.7174-20.0385-11.7824-27.4949l62.2108-41.3056c5.2263,6.6909,11.9843,14.2315,20.5518,21.7385,12.6828,11.1092,25.1721,18.4814,35.1282,23.3543-3.055,10.6461-5.9922,25.2647-5.8491,42.711,.2356,26.6701,7.5828,47.6176,13.1205,60.0817,1.8515,1.8936,1.4476,4.7044-.0168,5.6976-1.2877,.8835-3.6021,.5046-4.9317-1.3129-18.027-28.2021-36.0456-56.387-54.0726-84.5891,1.7926-2.1628,2.8698-4.9316,2.8698-7.9528,0-6.8676-5.5629-12.439-12.4304-12.439-1.6911,0-3.3277,.4516-3.3278,.4516-1.2403,.3448-2.2221,.8264-2.9168,1.2316-.2721,.1709-.5442,.3423-.8163,.5133Z"/><path class="uuid-c7d26e04-02f0-4f5e-9c8f-a61e787fd968" d="M528.8081,4337.3843l-56.6793,37.6928c-.8854,.5888-2.0463,.5532-2.894-.0887l-11.8852-8.9999c-1.3724-1.0392-1.3086-3.1221,.1249-4.0753l64.861-43.1338c1.4334-.9533,3.3789-.2066,3.8066,1.4609l3.7035,14.4409c.2641,1.03-.152,2.1143-1.0374,2.7031Z"/></g></svg>