<?xml version="1.0" encoding="UTF-8"?><svg id="uuid-a4a405a6-d0de-4f68-a8ac-125a0e442d93" xmlns="http://www.w3.org/2000/svg" width="1922.0198" height="5527.0099" viewBox="0 0 1922.0198 5527.0099"><defs><style>.uuid-225ff75a-a836-4422-8ca8-35dda6295734{fill:#f09916;}.uuid-78a908ee-7c52-453b-a19b-1f196729dc12{fill:#5a5a5a;}.uuid-5796c6a8-5f6c-40aa-8cd2-98b2633ec631{fill:#f59916;}.uuid-c965d25a-7e19-4a3f-a834-3c33ea39d5d8{fill:#f39719;}</style></defs><g id="uuid-b40ef371-4b9e-4d95-9643-e0f47740ccb7"><g><path class="uuid-5796c6a8-5f6c-40aa-8cd2-98b2633ec631" d="M668.3,3673.13v-23.8506h23.8599v11.3691l2.8066-.3467c34.1997-4.2207,66.9277-13.8135,97.2729-28.5117,32.7334-15.8477,62.2563-37.2637,87.749-63.6533,25.1411-26.0283,45.3325-55.8457,60.0132-88.625,16.0552-35.8613,25.0337-74.0508,26.686-113.5068,1.7871-42.1104-5.2476-85.1494-20.3442-124.4619l-.521-1.3584-19.2974-2.9141,3.563-23.5928,4.2378,.6426-2.2798-4.3682c-14.9404-28.6201-34.0664-54.5732-56.8467-77.1387-15.8589-15.7178-29.71-25.9346-38.8755-32.6953-28.7183-21.1836-49.5254-30.8125-71.5537-41.0068-10.1094-4.6768-20.5615-9.5117-32.0347-15.6279-43.1294-22.9971-81.8486-53.415-111.9707-87.9658-37.5923-43.1182-57.0649-84.9873-65.3267-106.1084-7.9092-20.2295-21.5703-62.3223-24.2007-116.9297-.4966-10.4204-.5669-20.9771-.209-31.374,.0107-.3428,1.2114-34.0649,7.5591-64.6582,7.8442-37.7632,21.9868-73.8579,42.0361-107.2817l-3.2432-2.3164,19.5195-23.1562v-25.373h20.9297l.7451-.835c1.729-1.9365,3.5527-3.9307,5.4204-5.9268l24.5093-29.0713,2.8271,2.7964c23.627-20.3594,49.7764-37.3574,77.7236-50.5215,15.729-7.4131,63.5918-29.9712,123.6909-32.0435,4.2114-.1465,9.2817-.2178,15.4995-.2178,9.9648,0,21.3936,.1855,32.4458,.3657l.8081,.0132c24.2939,.4014,39.4888,1.1011,52.8955,1.7178,9.8071,.4585,17.4302,.7964,26.2446,.9722,.0186,.0005,2.4648,.0469,6.7686,.0469,14.5996,0,52.3828-.5439,87.833-5.582,91.0156-12.9414,161.7959-62.4575,195.8877-90.8223,39.2783-32.6982,73.1416-73.6265,97.9287-118.3604,28.4297-51.2988,46.0254-109.3701,50.8828-167.9351,7.3555-88.6147-14.8574-160.4272-34.7871-205.0659-20.168-45.1938-59.332-110.3804-131.377-164.272-52.7617-39.4746-108.4756-64.5913-165.5928-74.6509-9.4521-1.6636-20.8174-3.2256-33.7822-4.6436l-2.7715-.3032v10.6387h-23.8506v-12.9004l-2.292-.1914c-5.0342-.4199-9.6777-.7905-13.7314-1.1104-38.2207-3.0249-64.2026-3.3364-85.0801-3.5869-7.061-.0801-13.1265-.1494-18.8921-.3198-70.251-2.0498-134.6719-16.5591-191.4746-43.1255-28.3643-13.2725-87.3105-40.8545-137.7104-105.2466-40.2363-51.4038-57.6289-104.3569-65.1338-139.728-1.4678-6.8931-2.7466-14.0498-3.8013-21.272l-3.9736,.2886v-43.3472h-11.0601v-23.8604h11.0601v-32.8579l3.9746,.2852c1.0015-6.9458,2.251-13.9849,3.7119-20.9219,6.8804-32.7246,18.5103-64.2114,34.5669-93.5864,18.499-33.8521,42.4985-64.2002,71.3301-90.2026,35.5112-32.0161,70.4731-50.3672,93.5498-60.1235,23.8062-10.0723,50.9414-18.0928,78.4722-23.1943,18.0332-3.3467,32.002-4.2217,36.5928-4.5088l.7383-.0439c.4829-.0312,47.3003-3.1431,83.6958-12.4941,11.2241-2.8779,22.4668-6.6367,33.4146-11.1719l1.543-.6392v-16.1704h23.8599v4.7085l3.7363-2.126c4.8467-2.7573,9.4111-5.5806,13.5645-8.3921,31.873-21.5654,52.0205-46.5972,63.3096-63.7988,.7002-1.0552,1.4658-2.209,2.3125-3.4629,7.2637-10.8198,19.416-28.9199,26.4229-55.2661,2.4727-9.2979,4.0322-18.583,4.7676-28.3857l.0068-.0933v-.2739l-.0254-.189c-2.1709-14.9512-7.0605-42.248-15.416-57.0781l-.7754-1.3784,.7783,1.3828c4.0938,7.2612,7.7969,18.2612,11.0078,32.6958,.9873,4.3799,1.9053,9.0342,2.8066,14.2344l2.7725,15.9839c-.0771,.3955-.1562,.7915-.2373,1.1895l-1.8604,9.1089c-.7588,4.3965-1.7148,8.7646-2.8564,13.0581-7.0469,26.4824-19.25,44.6729-26.541,55.541-.8516,1.2617-1.626,2.4199-2.3223,3.478-10.7773,16.4038-29.9131,40.3921-59.8818,61.52l1.9756,3.4497-23.5449,10.6821v17.2715h-23.8599v-6.4497l-34.0806,15.4653-1.3149-3.7485c-36.2524,9.2056-82.7124,12.3184-83.1719,12.3477l-.687,.0396c-4.5635,.2822-18.4204,1.1387-36.541,4.4971-27.4253,5.0791-54.4897,13.0762-78.2676,23.126-23.0127,9.7373-57.8735,28.043-93.2715,59.9556-28.7451,25.915-52.6763,56.1743-71.1289,89.938-16.0083,29.2954-27.6035,60.6875-34.4629,93.3042-3.4878,16.5913-5.7451,33.6338-6.7095,50.6538l-.1499,2.6411h10.9854v23.8604h-11.3574l.0688,2.5669c.5557,20.8159,2.9961,41.5283,7.2534,61.562,7.4839,35.2637,24.8247,88.0586,64.9365,139.311,50.3101,64.271,109.0981,91.7495,137.3506,104.9546,56.668,26.5146,120.9551,40.9932,191.0757,43.0342,5.7705,.1714,11.8291,.2412,18.8442,.3213,20.9331,.2495,46.9385,.5605,85.1807,3.5918,3.5791,.2803,7.6055,.5996,11.9521,.9595l4.9951,.4131v12.8252h21.8506v-21.8599h-21.8506v5.7983l-1-.519v-6.2793h23.8506v12.2271s2.7471,.2891,2.8828,.3018c13.2949,1.4619,24.377,2.9854,33.8438,4.6528l.1514,.0269c.8389,.1499,1.6787,.2998,2.5186,.4585l39.293,5.5322-.8623,3.8813c42.8389,13.1255,84.8701,34.9712,124.9258,64.9307,72.1885,54.0107,111.4551,119.3589,131.6836,164.668,19.9756,44.7397,42.2402,116.7207,34.8721,205.564-4.8711,58.708-22.5088,116.918-51.0049,168.335-24.8506,44.8418-58.7988,85.8667-98.1738,118.6406-34.1553,28.4302-105.0869,78.0635-196.3818,91.0464-35.5098,5.0469-73.3867,5.5918-88.0234,5.5918-4.2842,0-6.71-.0459-6.7314-.0464-8.7861-.1738-16.4727-.5229-25.373-.9272l-.897-.0405c-13.3979-.6187-28.585-1.3198-52.8618-1.7222-11.2983-.1846-22.9805-.3755-33.1528-.3755-6.2397,0-11.3281,.0708-15.5547,.2163-59.7852,2.0552-107.5425,24.5239-123.2363,31.9072-41.0078,19.3159-77.3735,46.293-108.1489,80.2109l-.6484,.7148v25.6255h-20.9478l-.749,1.0229c-20.2295,27.6196-46.9702,73.1919-59.4814,133.4492-6.3223,30.4331-7.5405,64.1567-7.5508,64.4888-.354,10.4126-.2788,20.9419,.2217,31.2896,2.6274,54.5259,16.2456,96.4644,24.1289,116.6108,8.2339,21.0566,27.647,62.8057,65.1543,105.8223,30.0459,34.4648,68.6636,64.8057,111.6777,87.7432,11.2393,5.9902,21.5532,10.7686,31.5273,15.3887l.458,.2129c22.1094,10.2334,42.9507,19.8789,71.7271,41.1035l.0874,.0645c9.1772,6.7773,23.0469,17.0176,38.9067,32.7305,9.9009,9.8164,19.2227,20.3994,27.7056,31.4561l3.3354-2.1621,24.6992,45.6582c1.207,2.2363,2.3306,4.4307,3.27,6.2822l.5474,1.0781,1.3965,.2842,16.8101,2.5352-3.6011,23.8652,4.3159,7.9805-3.6416,1.6035c12.7192,36.7236,18.5786,76.6133,16.9438,115.3574-1.665,39.5771-10.6768,77.8887-26.7832,113.873-14.7241,32.8906-34.9805,62.8066-60.2061,88.915-25.5688,26.4805-55.1865,47.9648-88.0308,63.8555-30.6978,14.8574-63.7749,24.5098-98.312,28.6895l-2.1997,.2656v11.4863h-23.8599Zm259.3643-436.7002l13.4028,2.0215,5.7319,.8711,2.4668,.3701,.6758-4.4365,2.5942-17.1748-11.2935-1.7031-.4756-.0771-4.4751-.6729-2.7329-.4199-2.6348-.3428-3.2598,21.5645Zm-329.7642-735.25h21.8501v-21.8599h-21.8501v21.8599Zm-102.27-1328.0996h21.8496v-21.8604h-21.8496v21.8604Zm452.6499-365.6304h21.8599v-21.8599h-21.8599v21.8599Zm45.022,2519.1616c-1.0938,0-2.1855-.2793-3.1562-.8076-1.5576-.8467-2.6914-2.248-3.1934-3.9453s-.3125-3.4883,.5332-5.0449c.3857-.6982,.8818-1.3154,1.4678-1.8213l1.1396-.9834,1.4219-.4053c.5928-.1689,1.2041-.2539,1.8174-.2539,1.1064,0,2.1621,.2705,3.1396,.8047,1.5596,.8486,2.6934,2.25,3.1963,3.9473,.501,1.6973,.3125,3.4883-.5342,5.043-1.1631,2.1387-3.3975,3.4668-5.832,3.4668Zm-124.46-231.1748c-1.0889,0-2.1729-.2773-3.1362-.8018-3.2129-1.748-4.4058-5.7812-2.6597-8.9912,1.1626-2.1367,3.3999-3.4648,5.8379-3.4648,1.0972,0,2.1899,.2793,3.1611,.8076,1.5566,.8467,2.6904,2.248,3.1924,3.9453s.3125,3.4883-.5332,5.0439c-.4409,.8105-1.0449,1.5156-1.7954,2.0986l-1.1157,.8643-1.5283,.3418c-.4663,.1035-.9448,.1562-1.4229,.1562Zm-341.502-503.3667c-3.6558,0-6.6299-2.9746-6.6299-6.6304s2.9741-6.6299,6.6299-6.6299c1.0801,0,2.1064,.25,3.0498,.7446l1.311,.687,.9233,1.207c.8804,1.1514,1.3457,2.5317,1.3457,3.9912,0,3.6558-2.9741,6.6304-6.6299,6.6304Zm169.3398-200.8804c-1.0811,0-2.1074-.2505-3.0493-.7441l-1.3252-.6938-.9092-1.1895c-.8809-1.1523-1.3462-2.5361-1.3462-4.0024,0-3.6558,2.9741-6.6299,6.6299-6.6299s6.6299,2.9741,6.6299,6.6299-2.9741,6.6299-6.6299,6.6299Zm593.5898-819.9795c-3.0693,0-5.7178-2.0806-6.4404-5.0596l-.3555-1.4624,.3125-1.4834c.6416-3.0449,3.3682-5.2549,6.4834-5.2549,3.6562,0,6.6299,2.9746,6.6299,6.6304s-2.9736,6.6299-6.6299,6.6299Zm-394.4795-105.46c-3.6562,0-6.6304-2.9741-6.6304-6.6304s2.9741-6.6299,6.6304-6.6299,6.6299,2.9741,6.6299,6.6299c0,.5898-.0718,1.1533-.2139,1.6768l-.397,1.4653-.9502,1.126c-1.2671,1.501-3.1147,2.3623-5.0688,2.3623Zm-390.6001-104.79c-3.6558,0-6.6304-2.979-6.6304-6.6401,0-3.082,2.1738-5.7983,5.1689-6.4585l1.46-.3223,1.4644,.3223c2.9937,.6587,5.167,3.3755,5.167,6.4585,0,3.6611-2.9741,6.6401-6.6299,6.6401Zm-1.4614-377.0615c-2.9951-.6606-5.1689-3.377-5.1689-6.4585,0-3.6616,2.9746-6.6401,6.6304-6.6401s6.6299,2.9785,6.6299,6.6401c0,3.083-2.1733,5.7993-5.167,6.4585l-1.4644,.3223-1.46-.3223Zm341.501-127.6987c-3.6558,0-6.6299-2.9741-6.6299-6.6299s2.9741-6.6299,6.6299-6.6299c1.9102,0,3.7251,.8223,4.978,2.2554l.9785,1.1191,.4233,1.4541c.1665,.5708,.2505,1.1768,.2505,1.8013,0,3.6558-2.9746,6.6299-6.6304,6.6299Zm250.75-114.48c-2.1064,0-4.0352-.959-5.291-2.6313l-.8936-1.189-.3223-1.4893c-.0879-.4067-.1328-.8506-.1328-1.3203,0-3.6616,2.9785-6.6401,6.6396-6.6401,3.6562,0,6.6299,2.9785,6.6299,6.6401,0,3.6558-2.9736,6.6299-6.6299,6.6299Zm-7.3867-124.7939c.3652-4.8975,.458-9.8462,.2754-14.71-.9912-25.6528-9.3467-42.0322-10.9941-45.0283,2.1055,3.7241,14.0479,26.689,10.5068,62.5732l.2119-2.835Zm-32.7539-72.5332c-1.2354-3.8994-2.0498-9.0845-.8945-15.0039,.3564-1.8311,.8662-3.5322,1.4824-5.1074-.6152,1.5757-1.124,3.2783-1.4814,5.1104-1.1543,5.9185-.335,11.1104,.8936,15.001Zm29.0186-23.356c2.002-2.2471,3.792-4.8008,5.6367-9.5049-1.8418,4.7202-3.5928,7.2192-5.6367,9.5049Zm-16.6572-11.3662l-.0557,.0376c.0107-.0068,.0557-.0376,.0557-.0376Zm.1621-.124c.6406-.5288,1.5557-1.3994,2.3936-2.6123-.6738,.9805-1.4941,1.877-2.4365,2.6504l-.0186,.0127,.0615-.0508Zm4.4971-9.248c0-3.6309-1.71-6.5454-2.6953-7.9229,1.0137,1.3989,2.7109,4.2886,2.6953,7.9229Zm-6.8145-14.8667l-.0645-.0918c-1.0303-1.4795-2.2109-3.3018-3.4316-5.438,1.2344,2.1577,2.4287,3.9961,3.4727,5.4897l.0547,.0864,2.4199,4.2402-2.4512-4.2866Zm23.3848-14.2988c-.8232-1.9453-1.6279-3.561-2.2891-4.7886l-.0283-.061c-2.1865-4.7197-3.8701-9.6699-5.0283-14.7354,1.1572,5.0503,2.8408,9.9946,5.0264,14.7217l.0654,.1309c.6514,1.2158,1.4434,2.8135,2.2539,4.7324Zm-36.6816-25.854q-.001-.0156,0,0Zm-.0186-1.166c0,.0088,.0078,.7139,.0156,1.0552-.0078-.3413-.0156-1.0464-.0156-1.0552Zm3.7773-23.0547c3.9072-11.2729,9.9248-19.3037,13.5029-24.0781l.1084-.145c.7754-1.0376,1.4453-1.9331,1.9219-2.6484,1.1582-1.8369,2.3545-3.6416,3.5469-5.4111-1.1953,1.7749-2.3955,3.5845-3.5439,5.415-.4893,.7363-1.1895,1.668-2.002,2.7471-3.5996,4.8042-9.625,12.8467-13.5342,24.1206Zm26.4082-5.7432c.8418-3.0176,1.8789-5.9927,3.1094-8.9155,2.1875-5.1914,3.5537-8.2993,5.2832-12.2334,1.2012-2.7358,2.5566-5.8228,4.4287-10.1567-1.9463,4.5103-3.2998,7.5918-4.4258,10.1553-1.7324,3.9414-3.125,7.126-5.2832,12.2314-1.2314,2.9253-2.2695,5.9014-3.1123,8.9189Zm-2.9443-33.0034c1.5312-2.2803,3.0566-4.6133,4.5176-7.0391-1.4619,2.4297-2.9863,4.7612-4.5176,7.0391Zm26.6133-23.4536c1.6357-3.6587,2.7344-6.1152,3.5566-8.6304-.8135,2.5-1.8994,4.9351-3.5898,8.7231-.415,.9248-.8564,1.9121-1.3311,2.981,.3301-.7461,1.3643-3.0737,1.3643-3.0737Zm-14.2041-.8223c1.5947-5.5972,2.1074-11.5747,1.4951-20.4175,.6201,8.4819,.2666,14.3496-1.4951,20.4175Zm20.6895-33.5527c-.7197-7.9102-4.0791-15.0894-6.7793-20.8579-.3643-.7778-.7158-1.5283-1.0469-2.2534,.2812,.6133,.5771,1.2437,.8789,1.8877l.1641,.3506c2.7002,5.7588,6.0605,12.9248,6.7842,20.8765,.0059,.0747,.0127,.1504,.0195,.2251l-.0205-.2285Zm-23.1045-7.0488c-1.1943-3.4307-2.6582-6.7832-4.3857-10.0449-.9736-1.7603-1.999-3.4346-3.084-5.208l-.0537-.0869c-.8379-1.3716-1.6943-2.7744-2.5371-4.2397,.835,1.4429,1.6914,2.8447,2.542,4.2383,1.0557,1.7275,2.1445,3.5093,3.1387,5.2939,1.7246,3.2563,3.1855,6.6108,4.3799,10.0474Zm9.2568-29.6353c-.7197-1.834-1.5371-4.0464-2.54-6.9385-.5977-1.7168-1.0156-3.3096-1.3086-4.7539,.2939,1.4375,.7148,3.0244,1.3154,4.7539,.999,2.8862,1.8145,5.1016,2.5332,6.9385Zm-4.4941-16.9502c-.0381-.8672-.0381-1.5894-.0381-2.1494l.001-.0312c0,.6084,.001,1.3364,.0371,2.1807Zm-22.4648-.2861q-.0029-.3022,0,0Zm-.002-1.0112c.0664-11.4697,3.5049-20.1548,5.5518-24.3179,.0059-.0122,.0117-.0244,.0186-.0366-.0059,.0112-.0117,.022-.0166,.0332-1.6465,3.3452-5.4814,12.4087-5.5537,24.3213Zm26.8564-18.9419c4.0391-5.4912,9.5049-7.5977,13.5342-9.1504,1.251-.4795,2.2578-.7876,3.2158-1.0161-.9561,.2285-1.958,.5356-3.1973,1.0137-3.8008,1.4604-9.4814,3.6421-13.5527,9.1528Zm20.668-10.8599c.3848-.0605,.7861-.1235,1.2139-.1938-.457,.0757-.873,.1411-1.25,.1992l.0361-.0054Zm-29.2588-11.5386c1.5156-1.2207,3.1914-2.3726,5.0439-3.4092,10.1904-5.688,21.084-5.9834,21.542-5.9927,.377-.0049,1.1787-.0068,1.1836-.0068-.3867,0-.7754,.0024-1.166,.0073-.0781,0-11.2842,.2573-21.5596,5.9976-1.8525,1.0352-3.5283,2.1851-5.0439,3.4038Zm30.4365-9.3882c-.4873,0-.9688-.0063-1.4482-.0127,.4561,.0049,.8975,.0093,1.3389,.0093,1.9736,0,3.7861-.1016,5.7646-.5195-1.9619,.4204-3.7344,.5229-5.6553,.5229Zm-1.6748-.0156q-.2158-.002,0,0Zm-.7021-.0044q-.0117,0,0,0Zm40.7432-9.3936c1.1553-2.5112,3.2236-5.6938,6.8398-8.1382,.376-.2466,.7754-.502,1.166-.7295l6.4873-3.7671c1.6562,.3862,2.9854,.8271,3.8896,1.1665,0,0-.3096-.0063-.4707-.0063-2.792,0-6.9775,.5801-11.0703,3.3428-3.6133,2.4365-5.6836,5.6201-6.8418,8.1318Zm-17.2617-1.2505c2.0527-2.6582,4.3203-5.5967,8.5869-8.1074-4.2725,2.5156-6.54,5.458-8.585,8.1128,0,0-.5117,.6567-.7217,.9229,.2158-.2759,.7197-.9282,.7197-.9282Zm8.5918-8.1104h0Z"/><path class="uuid-5796c6a8-5f6c-40aa-8cd2-98b2633ec631" d="M1095.98,730.95c2.2773,0,4.13,1.8572,4.13,4.14,0,2.2773-1.8527,4.13-4.13,4.13-1.3127,0-2.5127-.595-3.2923-1.6327l-.564-.751-.2069-.955c-.0509-.2346-.0768-.5009-.0768-.7914,0-2.2827,1.8573-4.14,4.14-4.14m-250.75,114.49c1.2064,0,2.3059,.4977,3.0959,1.4009l.6147,.7031,.269,.9237c.0995,.3432,.1505,.7141,.1505,1.1023,0,2.2773-1.8527,4.13-4.13,4.13s-4.13-1.8527-4.13-4.13,1.8527-4.13,4.13-4.13m-340.04,127.86c2.2773,0,4.13,1.8573,4.13,4.14,0,1.9191-1.3477,3.6082-3.2046,4.0168l-.9264,.2039-.9218-.2034c-1.8586-.41-3.2073-2.0995-3.2073-4.0173,0-2.2827,1.8527-4.14,4.13-4.14m-.001,376.7993l.9264,.2039c1.8568,.4087,3.2046,2.0978,3.2046,4.0168,0,2.2827-1.8527,4.14-4.13,4.14s-4.13-1.8573-4.13-4.14c0-1.9177,1.3486-3.6073,3.2073-4.0173l.9218-.2034m390.601,104.8906c2.2773,0,4.13,1.8528,4.13,4.13,0,.3691-.0427,.7141-.1268,1.0255l-.2504,.9263-.5933,.7028c-.7918,.9377-1.9432,1.4755-3.1595,1.4755-2.2773,0-4.13-1.8527-4.13-4.13s1.8527-4.13,4.13-4.13m394.48,105.4601c2.2773,0,4.13,1.8527,4.13,4.13s-1.8527,4.13-4.13,4.13c-1.9118,0-3.5613-1.2946-4.0109-3.1482l-.2217-.9143,.1953-.9271c.399-1.8949,2.0972-3.2704,4.0372-3.2704m-593.59,819.9799c2.2773,0,4.13,1.8528,4.13,4.1301s-1.8528,4.1299-4.13,4.1299c-.6723,0-1.3082-.1545-1.89-.459l-.8333-.4365-.5748-.7517c-.5441-.7114-.8318-1.5701-.8318-2.4827,0-2.2773,1.8527-4.1301,4.13-4.1301m-169.34,200.8801c.6723,0,1.3082,.1545,1.89,.459l.8207,.4299,.5875,.7683c.5441,.7114,.8318,1.5669,.8318,2.4727,0,2.2773-1.8527,4.1301-4.13,4.1301s-4.13-1.8528-4.13-4.1301,1.8527-4.1299,4.13-4.1299m341.5455,503.3687c.69,0,1.3509,.1694,1.965,.5037,2.0013,1.0886,2.7445,3.5999,1.6559,5.6013-.2732,.5027-.6536,.9456-1.1304,1.3154l-.6725,.5215-.9838,.22c-.2864,.064-.5818,.0962-.8777,.0962-.6813,0-1.3336-.1672-1.9423-.499-2.0013-1.0886-2.7446-3.5999-1.6573-5.5981,.725-1.3328,2.1209-2.1609,3.6432-2.1609m124.4464,231.1709c.6823,0,1.3359,.1682,1.9487,.5027,.9705,.5278,1.6772,1.4009,1.99,2.4583,.3123,1.0564,.1941,2.1719-.3328,3.1399-.725,1.3328-2.1182,2.1609-3.6354,2.1609-.6882,0-1.3486-.1694-1.9627-.5037-.9705-.5276-1.6773-1.4009-1.99-2.458-.3123-1.0564-.1941-2.1719,.3195-3.1165,.2482-.4509,.5568-.8367,.9164-1.1467l.7225-.6233,.8929-.2544c.3696-.1055,.75-.1592,1.1309-.1592m-303.6718,335.9304v18.8501h-18.86v-18.8501h18.86M1166.1935,193.3876c-3.9789-.0001-8.5163,.6809-13.2236,2.7024-7.11,3.06-10.31,7.21-12.88,10.54-.92,1.19-1.78,2.31-2.73,3.27-2.82,2.55-5.93,4.37-9.24,5.42-2.7666,.875-5.0195,1-7.2734,1-.4509,0-.9016-.005-1.3566-.01-.4-.005-.8025-.0075-1.2075-.0075s-.8125,.0025-1.2225,.0075c-.49,.01-11.96,.31-22.71,6.31-11.33,6.34-16.36,16.58-18.78,21.51-2.15,4.37-5.76,13.51-5.81,25.51-.06,16.39,5.58,25.62,10.55,33.76,1.09,1.78,2.12,3.46,3.06,5.16,4.27,8.06,6.87,16.71,7.72,25.7,1.5,15.94-.03,22.53-5.08,33.07-3.07,6.21-6.84,11.73-10.48,17.08-1.86,2.73-3.78,5.55-5.57,8.39-.46,.69-1.15,1.61-1.95,2.68-5.83,7.78-17.97,23.98-17.78,48.68,.16,20.16,8.62,35.32,13.7,42.61l3.5,6.12,.27,.38c.37,.44,3.6299,4.45,2.37,9.29-.67,2.56-2.32,4.25-3.3,5.06-3.59,2.44-11.93,9.25-14.28,21.29-1.6,8.2,.29,15.1,2.16,19.44l12.9901,23.11c8.35,14.82,13.22,43.1201,15.12,56.21v.01c-.63,8.4-1.98,17.74-4.69,27.93-6.9,25.94-18.91,43.83-26.08,54.51-.85,1.26-1.62,2.42-2.33,3.49-11.17,17.02-31.11,41.78-62.62,63.1-3,2.03-7.53,4.95-13.4,8.29v-2.91h-28.86v17c-9.8,4.06-20.91,7.94-33.08,11.06-36.35,9.34-82.75,12.39-83.22,12.42l-.68,.04c-4.63,.29-18.69,1.16-36.96,4.55-27.68,5.13-55,13.2-78.99,23.35-23.25,9.83-58.48,28.32-94.25,60.57-29.03,26.18-53.21,56.75-71.85,90.86-16.18,29.6-27.89,61.3099-34.82,94.27-1.47,6.98-2.72,14.01-3.74,21.08v-130.95c4.09-.9,7.13-4.55,7.13-8.9,0-5.05-4.08-9.14-9.13-9.14-5.04,0-9.13,4.09-9.13,9.14,0,4.35,3.05,8,7.13,8.9v161.3801h-11.06v28.86h11.06v168.84c-4.08,.9-7.13,4.55-7.13,8.9,0,5.0499,4.09,9.14,9.13,9.14,5.05,0,9.13-4.0901,9.13-9.14,0-4.35-3.04-8-7.13-8.9v-127.92c1.05,7.1901,2.32,14.3401,3.83,21.4301,7.56,35.63,25.08,88.97,65.61,140.75,50.79,64.89,110.11,92.63,138.62,105.97,57.11,26.7101,121.86,41.3,192.46,43.36,5.76,.17,11.85,.24,18.9,.3201,20.85,.25,46.79,.5599,84.95,3.58,4.05,.3201,8.69,.6901,13.72,1.11v13.1h28.85v-10.35c11.43,1.25,23.11,2.77,33.62,4.62,56.72,9.99,112.08,34.9501,164.53,74.1901,71.6,53.5599,110.54,118.36,130.59,163.2899,19.8101,44.37,41.89,115.76,34.5801,203.8401-4.8301,58.22-22.3201,115.9401-50.5801,166.9301-24.6399,44.47-58.2999,85.1499-97.34,117.6499-33.88,28.1899-104.2,77.4099-194.64,90.27-35.171,4.9976-72.5566,5.5562-87.4844,5.5562-4.1887,0-6.6082-.0439-6.7156-.0461-9.03-.1799-16.98-.54-26.18-.97-13.48-.6201-28.75-1.3201-52.97-1.72-11.4083-.1858-23.0677-.3796-33.2941-.3796-5.7474,0-11.0416,.0613-15.5859,.2195-60.59,2.0901-108.82,24.8101-124.67,32.28-31.44,14.8101-57.39,32.8801-78.29,50.8901l42.77-50.73c1.26,.6599,2.69,1.0298,4.21,1.0298,5.04,0,9.13-4.0798,9.13-9.1299,0-5.04-4.09-9.1301-9.13-9.1301s-9.13,4.0901-9.13,9.1301c0,2.0801,.69,3.99,1.86,5.52l-67.24,79.77c-1.89,2.02-3.71,4.01-5.46,5.97h-22.31v26.96l-62.85,74.5601c-1.26-.6602-2.69-1.03-4.21-1.03-5.04,0-9.13,4.0901-9.13,9.1299s4.09,9.1301,9.13,9.1301,9.13-4.0901,9.13-9.1301c0-2.0698-.69-3.98-1.86-5.51l43.87-52.0498c-16.85,28.0898-33.25,64.2998-42.34,108.0598-6.42,30.9402-7.6,64.74-7.61,65.0801-.36,10.46-.29,21.0801,.21,31.5801,2.65,55.01,16.41,97.3599,24.37,117.72,8.32,21.27,27.94,63.45,65.77,106.8401,30.33,34.7898,69.3,65.3999,112.68,88.5298,11.5,6.1301,22,10.99,32.16,15.6902,21.91,10.1399,42.61,19.72,71.12,40.75,9.11,6.72,22.88,16.8799,38.6,32.46,26.41,26.1599,44.42,53.5898,56.39,76.52l-1.84-.28-4.31,28.54,20.33,3.0698c14.98,39.01,21.96,81.51,20.18,123.4602-1.64,39.1499-10.55,77.0298-26.47,112.5898-14.56,32.51-34.59,62.0901-59.53,87.9102-25.29,26.1799-54.57,47.4199-87.04,63.1399-30.08,14.5701-62.86,24.1301-96.49,28.28v-11.04h-28.86v28.8501h28.86v-11.77c34.54-4.1802,68.21-13.97,99.1-28.9202,33.11-16.0198,62.97-37.6799,88.74-64.3699,25.43-26.3201,45.85-56.48,60.69-89.6301,16.23-36.26,25.32-74.8799,27-114.7898,1.66-39.3501-4.23-79.1802-17.08-116.28l34.21,63.23c-.8,.6899-1.4901,1.54-2.03,2.52-2.41,4.4299-.77,9.97,3.66,12.3799,1.3854,.7537,2.8795,1.1113,4.3524,1.1113,3.2367,0,6.3713-1.7268,8.0276-4.7712,2.41-4.4299,.77-9.97-3.66-12.3801-1.3809-.7537-2.8701-1.1104-4.338-1.1104-.8495,0-1.6918,.1194-2.502,.3503l-38.16-70.5498,3.85-25.51-19.22-2.9001-.15-.03c-1.05-2.0698-2.14-4.1899-3.3-6.3398l-1.86-3.4402-57.55-106.3799c.98-.76,1.83-1.72,2.46-2.8799,2.41-4.4302,.77-9.9702-3.66-12.3801-1.3854-.7537-2.8805-1.1113-4.3547-1.1113-3.2396,0-6.379,1.7268-8.0353,4.7712-2.41,4.4302-.77,9.9702,3.66,12.3801,1.376,.7498,2.8655,1.1069,4.332,1.1069,.665,0,1.3253-.0735,1.968-.217l34.79,64.3201c-8.08-10.53-17.35-21.22-27.93-31.71-16.04-15.8901-30.02-26.2-39.27-33.03-29-21.3899-49.97-31.0901-72.16-41.3601-10.08-4.6699-20.51-9.49-31.86-15.5398-42.74-22.79-81.12-52.9402-110.97-87.1802-37.24-42.71-56.53-84.1699-64.71-105.0898-7.83-20.01-21.35-61.6702-23.96-115.8201-.5-10.3301-.57-20.79-.22-31.0901,.01-.3298,1.18-33.6399,7.5-64.0598,12.09-58.2302,37.37-102.8801,59.05-132.4802h22.18v-27.1599c23.6-26.01,58.81-56.76,107.3-79.5999,15.58-7.3301,62.97-29.6602,122.32-31.7002,4.4928-.1548,9.7507-.2151,15.4675-.2151,10.1504,0,21.7513,.1897,33.1125,.3752,24.12,.3999,39.35,1.0999,52.79,1.72,9.24,.4199,17.22,.79,26.33,.97,.1074,.0022,2.5518,.0466,6.7816,.0466,15.0741,0,52.8326-.5645,88.3784-5.6167,91.91-13.0701,163.27-63,197.63-91.5999,39.61-32.9702,73.7599-74.24,98.7599-119.3501,28.67-51.73,46.41-110.28,51.3101-169.34,7.41-89.35-14.98-161.77-35.08-206.79-20.3501-45.58-59.8401-111.3099-132.47-165.65-40.39-30.21-82.51-52.09-125.69-65.3199l151.21,21.2899c.97,4,4.57,6.9701,8.87,6.9701,5.04,0,9.13-4.0901,9.13-9.13s-4.09-9.13-9.13-9.13c-4.39,0-8.06,3.11-8.93,7.24l-189.85-26.72c-.9-.17-1.8-.3301-2.7-.49-10.67-1.88-22.49-3.41-34.04-4.6801-.21-.02-.42-.05-.62-.0699v-12.4701h-28.85v5.8l-120.66-62.61c.2-.74,.3-1.52,.3-2.3301,0-5.0399-4.09-9.13-9.13-9.13-5.05,0-9.13,4.0901-9.13,9.13s4.08,9.13,9.13,9.13c2.8,0,5.3-1.26,6.98-3.25l121.22,62.89c-4.35-.36-8.38-.6799-11.96-.96-38.35-3.04-64.41-3.35-85.35-3.6-7.02-.0801-13.08-.15-18.8-.3201-69.77-2.0299-133.73-16.4299-190.09-42.7999-28.09-13.13-86.53-40.4701-136.44-104.23-39.82-50.88-57.03-103.28-64.46-138.29-4.25-20-6.65-40.52-7.2-61.11h11.29v-28.86h-10.84c.96-16.9301,3.19-33.77,6.66-50.28,6.81-32.38,18.32-63.54,34.21-92.62,18.32-33.52,42.08-63.56,70.61-89.28,35.15-31.69,69.74-49.85,92.57-59.51,23.59-9.97,50.48-17.92,77.75-22.97,17.91-3.32,31.7-4.18,36.23-4.46l.7-.04c.47-.03,46.85-3.08,83.63-12.42l-60.41,27.41c-1.67-1.91-4.12-3.11-6.86-3.11-5.04,0-9.13,4.09-9.13,9.13s4.09,9.13,9.13,9.13c5.05,0,9.13-4.09,9.13-9.13,0-.87-.12-1.71-.35-2.5l90.77-41.19v5.07h28.86v-18.16l115.05-52.2c1.66,2.21,4.31,3.63,7.29,3.63,5.04,0,9.13-4.09,9.13-9.13,0-5.05-4.09-9.14-9.13-9.14-5.05,0-9.14,4.09-9.14,9.14,0,.63,.06,1.25,.19,1.85l-92.88,42.15c30.17-21.27,49.5-45.4,60.53-62.19,.69-1.05,1.46-2.2,2.29-3.43,7.38-11,19.74-29.41,26.9-56.32,1.21-4.55,2.16-8.96,2.89-13.2l1.86-9.11c9.73-47.72-8.12-78.16-8.9-79.45-2.05-3.36-3.35-6.9901-3.87-10.8l-.09-.65c-.44-3.21-.91-6.53,.71-9.62,1.53-2.9,4.56-5.96,7.61-8.83l.48-.49c3.54-3.67,6.34-6.56,9.39-15.69,6.6-19.78-.97-37.37-4.57-44.09-4.75-10.27-7.04-21.6-6.63-32.75,.32-8.63,2.2-17.07,5.58-25.1,2.16-5.11,3.53-8.24,5.27-12.2,2.24-5.1,5.02-11.44,10.71-24.87,1.87-4.4,3.34-7.69,4.52-10.32,2.57-5.76,3.86-8.65,4.85-13.39,1.21-5.81,2.72-13.04,1.88-22.33-.76-8.35-4.22-15.76-7.01-21.71-.59-1.26-1.16-2.47-1.66-3.61-.84-1.9-1.53-3.4-2.1801-4.78-1.69-3.64-3.03-6.52-5.66-14.12-1.87-5.38-1.86-9.29-1.86-11.39,.01-.44,.01-.81-.01-1.1-.12-2.98-.38-9.16,3.56-14.91,3.65-5.32,8.95-7.36,12.83-8.85,2.41-.93,3.79-1.14,6.08-1.49,1.2401-.19,2.79-.43,4.83-.84,7.86-1.57,16.77-3.35,23.64-8.43,5.86-4.33,10.18-11.18,12.47-19.8,.5-1.89,2.19-6.65,6.98-9.88,3.7002-2.4981,7.5066-2.9148,9.6707-2.9148,.1403,0,.2733,.0018,.3993,.0048l14.92,.42-13.97-5.26c-2.2928-.8598-6.7898-2.2122-12.3964-2.2124h0Zm-.1136,4.9924c-.43,.25-.87,.53-1.31,.82-6.2,4.19-8.37,10.32-9.0099,12.75-2,7.51-5.67,13.41-10.61,17.06-5.98,4.42-14.3,6.08-21.65,7.55-1.93,.39-3.35,.6-4.61,.8-2.4301,.37-4.2,.64-7.1201,1.76-4.23,1.63-10.6299,4.09-15.15,10.69-4.88,7.13-4.57,14.71-4.43,17.95,.01,.23,.01,.52,0,.88,0,2.22-.02,6.86,2.13,13.04,2.72,7.84,4.11,10.81,5.86,14.59,.63,1.35,1.32,2.83,2.14,4.69,.5099,1.17,1.09,2.41,1.7,3.71,2.6201,5.6,5.88,12.56,6.56,20.04,.78,8.55-.65,15.38-1.8,20.9-.87,4.17-2.02,6.73-4.52,12.32-1.1801,2.66-2.66,5.97-4.55,10.42-5.68,13.4-8.46,19.73-10.69,24.81-1.75,3.98-3.1299,7.12-5.3,12.27-3.61,8.58-5.62,17.62-5.96,26.85-.44,11.96,2.0099,24.1,7.11,35.11l.07,.14c3.28,6.09,10.27,22.2,4.27,40.2-2.69,8.05-5.02,10.46-8.24,13.79l-.36,.3701c-3.35,3.16-6.7,6.56-8.56,10.11-2.37,4.51-1.74,9.01-1.24,12.63l.09,.63c.61,4.5,2.14,8.79,4.55,12.72,.1299,.22,9.86,16.89,10.92,44.33,.17,4.52,.11,9.34-.27,14.43-.76-4.38-1.69-9.29-2.83-14.35-2.65-11.91-6.36-24.67-11.27-33.38l-12.81-22.75c-1.57-3.7-3.13-9.52-1.79-16.39,2.01-10.32,9.25-16.14,12.26-18.17l.18-.13c2.49-2.02,4.29-4.78,5.06-7.75,1.77-6.78-2.08-12.18-3.24-13.6l-3.44-6.03-.12-.19c-4.75-6.78-12.72-20.98-12.87-39.88-.18-23.01,11.28-38.3,16.78-45.64,.85-1.13,1.58-2.1,2.15-2.96,1.77-2.82,3.67-5.6,5.5-8.3,3.74-5.48,7.61-11.16,10.84-17.7,5.86-12.22,7.06-19.9,5.56-35.73-.91-9.65-3.69-18.93-8.29-27.62-1.02-1.83-2.12-3.63-3.19-5.38-4.85-7.94-9.87-16.16-9.8199-31.13,.05-11.41,3.72-20.12,5.3-23.33,2.19-4.47,6.76-13.77,16.73-19.34,9.63-5.38,20.26-5.68,20.37-5.68,.385-.005,.7675-.0075,1.1475-.0075s.7575,.0025,1.1325,.0075c.5015,.0067,1.0059,.0131,1.5166,.0131,2.554,0,5.2732-.1597,8.6734-1.2431,4.02-1.27,7.77-3.47,11.13-6.52l.09-.08c1.19-1.2,2.21-2.52,3.2-3.79,2.45-3.18,4.98-6.46,10.9-9.01,3.95-1.7,7.77-2.28,11.1299-2.3h0Zm-215.3,606.57v-16.86h16.86v16.86h-16.86Zm-452.65,365.63v-16.86h16.85v16.86h-16.85Zm533.15,370.5399v-16.86h16.85v16.86h-16.85Zm-430.88,957.5599v-16.8599h16.85v16.8599h-16.85Zm346.77,738.1702l-1.2-.1799-4.53-.6902-10.93-1.6499,2.52-16.6699,.15,.0198,2.74,.4202,4.45,.6699,.5,.0801,8.82,1.3298-1.77,11.7002-.45,3-.3,1.97h0Z"/></g><path class="uuid-5796c6a8-5f6c-40aa-8cd2-98b2633ec631" d="M1054.7499,1530.8c-.21-.02-.42-.05-.62-.0701v-.02l.62,.0901Z"/><path class="uuid-5796c6a8-5f6c-40aa-8cd2-98b2633ec631" d="M937.2999,3212.2399l-.15-.03c-1.05-2.0701-2.14-4.1899-3.3-6.3401l3.45,6.3701Z"/><g><path class="uuid-78a908ee-7c52-453b-a19b-1f196729dc12" d="M1322.6599,285.6199c-13.46-2.75-26.36-4.14-38.36-4.14-37.58,0-55.42,13.3-58.39,15.76-3.29-.46-6.54-.69-9.66-.69-3.71,0-6.23,.33-7.26,.49-12.27-8.76-27.89-13.66-46.45-14.56-3.27-.16-6.78-.24-10.4301-.24-20.6,0-40.49,2.56-40.69,2.59l-.65,.08-.27,.59c-2.09,4.61-.9,9.54-.85,9.74l.15,.57,1.2,.49c2.04,.82,3.65,1.46,4.09,4.86,.04,.34,5.19,35.15,13.67,42.29,7.81,6.57,26.64,7.55,37.17,7.55,1.57,0,3.1-.02,4.58-.06,16.1-.43,23.52-7.85,25.96-10.29,3.74-3.7401,10.66-22.48,11.82-27.89,1.08-5.01,4.3199-7.66,9.39-7.66,6.13,0,7.88,4.71,8.06,5.25,.12,.37,.35,1.09,.65,2.08,1.66,5.44,5.57,18.16,8.45,22.57,.27,.4,.53,.82,.8,1.24,3.24,5.11,7.27,11.47,21.08,13.52,4.2599,.63,8.92,.95,13.83,.95,10.07,0,19.26-1.36,24.07-2.53,7.65-1.86,14.16-8.27,16.4-13.35,1.56-3.55,4.21-17.14,6.57-29.61,.51-2.74,.92-4.91,1.11-5.72,.6-2.73,3.97-3.59,4-3.6l.9-.21v-9.88l-.94-.19Zm-129.23,50.14c-4.6,8.69-20.33,10.51-32.72,10.51-.65,0-1.29,0-1.92-.01-13.1201-.19-23.86-4.62-28.29-8.67-4.4-4.0099-7.01-19.11-8.41-27.23-1.71-9.84,.24-15.12,2.63-16.78,5.75-3.98,14.62-6,26.38-6,10.41,0,20.5099,1.54,28.15,2.87,13.5,2.37,22.19,7.27,23.24,13.1,1.25,7-3.72,22.17-9.06,32.21Zm110.41,1.18c-3.32,6.29-23.3,9.13-36.42,9.13-11.8,0-19.92-2.05-26.5099-12.53-6.14-9.75-7.9901-25.21-8.41-29.72-.6-6.43,8.61-9.53,14.7-11.58,.91-.31,1.75-.6,2.48-.86,5.38-1.97,23.59-3.64,39.78-3.64,15.33,0,21.34,7.42,22.47,11.8,1.22,4.7-4.3,30.21-8.09,37.4Z"/><path class="uuid-c965d25a-7e19-4a3f-a834-3c33ea39d5d8" d="M1253.0897,192.3494s7.2452,5.6359,15.6981,8.0499c8.4529,2.4156,31.3962,14.4904,28.9807,37.4337-2.4156,22.9433,2.4156,35.4212,13.2826,41.057,0,0-9.2576-12.0762-4.8296-28.9806,4.428-16.906-2.4156-64.805-40.2508-64.4019,0,0-5.2327,4.8296-12.8809,6.842h0Z"/><path class="uuid-c965d25a-7e19-4a3f-a834-3c33ea39d5d8" d="M1271.6052,181.8841s58.3644,2.8172,63.5971,48.7038c5.2327,45.8866,10.867,55.1442,17.7106,64.0003,6.8421,8.8545,16.9059,37.8352,3.2203,59.1691-13.6857,21.3325-17.309,32.6026,3.2202,56.7536,20.5277,24.151,44.6788,24.9557,28.5776,48.3006-16.0997,23.3464-40.6539,36.2274-27.3713,54.3395,13.2841,18.1137,61.5847,34.2134,25.762,82.9172-35.8243,48.7052,27.7729,100.6292,52.3256,58.3645,0,0-9.6593,11.6732-25.3573,2.8186-15.6981-8.856-18.9184-28.176,7.2452-47.899,26.162-19.723,15.6981-62.3894-18.1137-79.6984-33.8103-17.3075-55.9489-23.3449-18.9184-47.0928,37.0321-23.7495,35.4212-30.9947,23.748-41.4586-11.6717-10.4654-64.8035-42.2647-48.3006-59.5723,16.5028-17.3075,41.0554-40.6538,6.842-87.7482-34.2134-47.0929-14.0873-45.0804-14.8919-68.4268-.8062-23.3449-65.2081-79.6969-79.2953-43.471h0Z"/><path class="uuid-c965d25a-7e19-4a3f-a834-3c33ea39d5d8" d="M1297.3662,193.9594s19.3199,20.1262,14.8934,46.2898c-4.428,26.162,6.439,31.7978,17.7106,42.6648,11.2701,10.8685,10.0623,35.0196-2.4156,45.8866-12.4779,10.8685-44.2757,33.8118-12.4779,73.6595,31.7978,39.8492-2.8172,38.6414-15.6981,52.327-12.881,13.6857-55.1442,57.5598,6.8421,110.2885,61.9878,52.7286,6.0389,81.7093-12.8795,64.4019,0,0,12.4779,17.3075,39.043,5.2327,26.5666-12.0763,35.4212-51.924-9.6593-75.2704-45.0819-23.3449-63.5971-69.6346-16.5043-89.7592,47.0943-20.1261,62.7925-42.6663,40.2523-67.6221-22.5417-24.9557-14.4904-45.8866-1.2078-65.208,13.2825-19.3199,1.6094-41.8602-10.0623-56.7536-11.6732-14.8935-5.6358-32.201-5.2327-48.7038,.4016-16.5028-19.7231-35.4212-32.604-37.4337h0Z"/><path class="uuid-c965d25a-7e19-4a3f-a834-3c33ea39d5d8" d="M1233.2661,189.8338s18.4148,.6039,26.5651-8.1502c8.1518-8.7557,21.4343-20.2265,35.3208-15.0942,0,0-3.018-22.3394-19.0187-18.7176-15.9993,3.6234-19.0188,10.2647-22.0367,21.1317-3.0194,10.8685-10.8685,18.4148-20.8304,20.8303h0Z"/><path class="uuid-c965d25a-7e19-4a3f-a834-3c33ea39d5d8" d="M1227.8323,188.6263s13.5852-4.8296,18.1137-18.1136c4.5269-13.2826,14.7915-30.7909,30.1885-26.5652,0,0-12.0763-16.302-26.8678-2.1128-14.7931,14.1876-11.7736,16.9044-13.284,30.4896-1.509,13.5852-8.1502,16.302-8.1502,16.302h0Z"/><path class="uuid-c965d25a-7e19-4a3f-a834-3c33ea39d5d8" d="M1213.04,180.4754s11.1697-22.6405-3.9246-38.3387c0,0,8.4529-12.9814,37.1324-1.8116,0,0-15.0942,8.4529-13.5853,19.9238,1.509,11.4724-3.0194,25.0562-10.8685,29.2834l-8.7541-9.0568Z"/><path class="uuid-c965d25a-7e19-4a3f-a834-3c33ea39d5d8" d="M1364.1831,430.6364s.8047,22.5402-26.1636,35.4212c-26.9682,12.881-23.748,30.1885-6.842,45.4835,16.9044,15.295,17.7106,47.0943,11.2701,51.9239,0,0,6.842,7.6483,10.867,18.5153,0,0,22.1386-33.4072-6.842-62.791-28.9807-29.3837-4.8296-30.1885,16.5028-45.0819,21.334-14.8919,25.7605-32.2009,1.2078-43.471h0Z"/><path class="uuid-c965d25a-7e19-4a3f-a834-3c33ea39d5d8" d="M1312.6615,581.5783s-16.5028,16.9059-35.4212,2.4156c-18.9184-14.4904,.4031-26.5666,.4031-26.5666,0,0-20.1261,8.0513-10.0638,30.5915,10.0638,22.5402,38.6414,23.748,57.1567,15.6981,0,0-1.6094-14.8934-12.0748-22.1386h0Z"/><path class="uuid-5796c6a8-5f6c-40aa-8cd2-98b2633ec631" d="M1171.8975,140.6159h0c16.4297,.0018,30.1459,6.8228,34.127,16.9738,.3121,.7957,.5657,1.6252,.7609,2.4849-4.4735-4.3067-8.8196-6.1095-9.9165-6.5193-1.2958-.5443-9.1956-3.677-19.3324-3.677-13.3145,.0002-24.8651,5.3835-33.4031,15.568-12.536,14.9534-30.2112,21.1065-39.369,23.412,.5244-2.8012,1.3523-5.3912,1.8325-6.6674,4.0609-8.178,11.6906-19.747,25.0845-28.8388,8.7499-5.9395,18.5178-9.8949,29.0124-11.7529,3.7749-.6527,7.5444-.9835,11.2038-.9833m.0002-5c-3.8754-.0002-7.9098,.3396-12.0559,1.0564-7.0181,1.2425-18.7956,4.2798-30.9687,12.5429-15.7062,10.6614-23.543,24.2335-26.8618,30.9687,0,0-3.2189,8.2139-2.6639,14.8739,0,0,29.5257-3.6259,48.6175-26.3992,9.1695-10.9377,20.3881-13.7801,29.5715-13.7802,9.9374-.0002,17.492,3.3278,17.492,3.3278,0,0,8.7879,2.9484,14.087,13.3199l1.6749,2.6639c2.788-9.3208,1.0059-15.5777-.111-18.4258-4.6968-11.9758-19.7844-20.1472-38.7816-20.1482h0Z"/><path class="uuid-225ff75a-a836-4422-8ca8-35dda6295734" d="M1180.1534,165.575c3.7328,0,7.1691,.7647,10.2134,2.273,6.7477,3.3429,10.3244,9.8089,12.0617,14.2107-.0317,.0359-.0667,.0735-.1055,.1137-.5743,.594-2.1439,1.7529-6.2026,2.8408-1.8055,.484-3.7697,.7294-5.8378,.7294-4.8328,0-8.7512-1.3387-9.3022-1.5359-4.097-1.7896-8.3983-2.6969-12.7867-2.6969l-.2962,.0014c-9.753,.0922-16.8751,4.7036-20.2525,7.4442l-.3137,.2545-.2688,.3016c-3.5369,3.9692-7.5651,7.4298-11.9727,10.2856-8.0819,5.2365-17.6027,8.4775-27.5333,9.3728l-.2736,.0246-.2692,.0545c-8.2393,1.6672-16.0518,5.2885-22.5932,10.4724-.2413,.1912-.4794,.3833-.7147,.5765,.7581-1.1716,1.6018-2.3403,2.54-3.4955,9.1872-11.312,21.4185-14.0342,26.2889-14.6848,6.8749-.972,13.4993-3.0385,19.6893-6.142,6.9496-3.4843,13.1484-8.1636,18.4243-13.9079l.1599-.1741,.1428-.1884c7.6535-10.1002,18.5703-16.1302,29.2024-16.1302m0-5c-11.4833,0-24.1786,6.2215-33.1875,18.1105-3.2709,3.5613-8.8183,8.7269-16.9828,12.8204-7.1286,3.5741-13.647,5.0245-18.1483,5.6609-3.2747,.4373-18.3663,2.8115-29.4702,16.4833-10.6674,13.1344-10.3297,27.677-10.1564,31.1351,1.5624-4.203,5.6701-13.4996,15.3178-21.1453,8.0305-6.3641,16.1522-8.6148,20.4793-9.4904,6.6076-.5957,18.1207-2.587,29.8032-10.1564,5.6528-3.6626,9.9074-7.6995,12.9869-11.1553,2.0579-1.6698,8.2518-6.2428,17.1493-6.3269,.083-.0008,.1664-.0012,.2489-.0012,4.794,0,8.5972,1.3107,10.9066,2.3322,0,0,4.8826,1.9007,11.1823,1.9007,2.2495,0,4.6791-.2422,7.1324-.8998,9.3239-2.4993,9.9899-6.1622,10.3229-7.8272-1.2377-3.6365-5.234-13.7345-15.1514-18.6478-3.7791-1.8722-8.0166-2.7927-12.433-2.7927h0Z"/><path class="uuid-5796c6a8-5f6c-40aa-8cd2-98b2633ec631" d="M1128.3015,250.4498c-.3639,.1728-.7528,.3372-1.1678,.4915-10.0136,3.7236-12.2252,13.3636-11.8941,20.56l-2.6575,.6683-2.995,.7531c-3.1318-3.3456-4.2128-7.8846-2.7427-12.0804,1.8177-5.1883,7.1804-8.8334,13.3441-9.0703l.0479-.0018,.0477-.0027c2.7396-.1578,5.408-.5929,7.9333-1.2936l.0842-.024m10.0098-9.8809c-8.3763,4.2393-11.4327,5.0874-11.4329,5.0874-1.5146,.4203-3.8486,.9445-6.882,1.1192-8.2194,.3159-15.3777,5.2974-17.8708,12.4134-2.4177,6.9005-.0006,14.5302,6.1049,19.2305,4.181-1.0514,8.3619-2.1028,12.5428-3.1542,0,0-3.663-15.2624,8.103-19.6375,11.7656-4.3751,9.4349-15.0585,9.4349-15.0588h0Z"/><path class="uuid-5796c6a8-5f6c-40aa-8cd2-98b2633ec631" d="M1113.432,365.7163c4.6689,10.1335,9.8022,26.7845,5.9835,46.2706-2.1276,10.8566-7.0696,18.141-12.3019,25.8531-1.5385,2.2677-3.1294,4.6126-4.6783,7.0872l-.048,.0767-.0452,.0784c-2.7905,4.8389-4.819,8.3565-7.0484,14.0641l-4.8722-14.5417,4.2303-5.8244,5.7442-7.9087,.1876-.2582,.1532-.28c.3394-.6203,1.0802-1.6242,1.8644-2.687,3.8246-5.1832,10.226-13.8582,9.3964-27.815-.3676-6.184-2.2186-12.2824-5.3828-17.7924l5.9431-14.23,.874-2.0928m-.5982-11.5417c-3.9404,9.4349-7.8809,18.8698-11.8214,28.3047,2.0384,3.0738,5.4948,9.2515,5.994,17.6488,.9116,15.3358-8.2417,23.393-10.6559,27.8052-3.8295,5.2725-7.6589,10.5449-11.4883,15.8173,3.6075,10.7669,7.2149,21.5338,10.8224,32.3007,.7573-4.1962,2.0152-9.2682,4.1625-14.8184,2.1271-5.4981,3.9944-8.742,6.8264-13.6529,6.8558-10.9522,14.6741-19.4524,17.6488-34.6316,5.8744-29.9757-8.0848-53.5015-11.4884-58.7739h0Z"/><path class="uuid-5796c6a8-5f6c-40aa-8cd2-98b2633ec631" d="M1105.7132,489.4713c4.6319,2.6731,10.0175,7.0006,13.7209,13.7843,.5408,.9904,5.2496,9.9766,4.0819,20.3547-.3018,2.6823-.7151,6.3558-3.0758,9.6127-.5201,.7175-.9721,1.1904-1.7927,2.0487-.5728,.5991-1.2856,1.3448-2.2102,2.3757-.7065,.7878-1.3552,1.4689-1.9825,2.1275-2.0582,2.1608-4.0023,4.2018-5.5339,7.6939l-.0656,.1495-.0557,.1534c-3.5494,9.7827-4.4792,20.106-2.6179,29.0681,1.9552,9.4139,6.6956,16.3221,13.3479,19.4521,2.8878,1.3587,6.2843,2.077,9.8221,2.077,5.5919,0,11.1818-1.744,15.7972-4.9201-1.953,3.7943-4.779,6.9314-8.3282,8.9657-2.8958,1.6597-6.1603,2.5013-9.7031,2.5013-8.3478,0-15.606-4.5166-16.4062-5.0316-16.8947-10.8738-14.6765-36.455-14.0602-41.4727,1.1519-9.3801,4.9881-18.526,11.0963-26.4557,1.955-2.3671,5.1212-7.2592,4.9227-13.9291-.1877-6.3046-3.3782-12.2009-8.5597-16.1618,.6651-2.4597,1.1267-4.9711,1.3781-7.5045,.1614-1.627,.2362-3.2587,.2247-4.889m-5.8662-8.092c.6288,3.0269,1.1755,7.3509,.666,12.4874-.4114,4.1477-1.3893,7.5924-2.3309,10.1564,5.6359,2.8571,9.3153,8.2713,9.4904,14.1524,.1659,5.5739-2.8771,9.5142-3.8295,10.6559-3.7526,4.8574-10.4258,14.8952-12.1544,28.9707-.4865,3.9616-3.6648,33.4258,16.3168,46.2865,1.0248,.6596,9.3304,5.8272,19.1123,5.8272,3.9501,0,8.139-.8417,12.1894-3.1633,11.0633-6.3411,16.6851-21.2036,12.6539-36.2966,.02,.9319,.0626,11.9395-9.3239,18.6478-4.0262,2.8774-8.8256,4.2652-13.2853,4.2652-2.7877,0-5.4423-.542-7.6935-1.6012-10.5117-4.9458-14.9849-23.4763-8.1584-42.2905,1.5609-3.559,3.5685-5.0443,6.6599-8.4915,2.2532-2.5126,3.1557-3.2097,4.329-4.8284,3.1335-4.3232,3.6541-8.9496,3.996-11.9879,1.3504-12.0015-4.091-22.264-4.662-23.3098-7.4359-13.6204-20.5806-18.3675-23.9757-19.4803h0Z"/><path class="uuid-5796c6a8-5f6c-40aa-8cd2-98b2633ec631" d="M1062.8846,287.0176c1.5806,5.3143,3.5046,10.5249,5.7551,15.5786,2.3506,5.2784,4.0853,8.2188,5.6158,10.8129,1.2963,2.1971,2.3201,3.9325,3.4997,6.7391,7.4723,17.7789,2.8132,35.64,2.6113,36.3915-4.8319,17.9774-17.0048,29.6725-21.2875,32.6619l-.1558,.1088-.1471,.1202c-16.2731,13.304-24.1114,21.4828-25.6801,38.9433-1.7648,19.6443,7.2596,32.1225,11.0198,36.3999,.1273,2.5769,.4932,5.1361,1.0925,7.6388-3.8348-2.489-7.3812-5.3994-10.5283-8.6587l-.1713-.1773c-4.5811-4.7426-14.1136-14.6113-15.26-28.0755-1.9464-22.8594,21.8833-39.2245,22.1242-39.3871l.2457-.1659,.2244-.1937c4.1681-3.5987,9.9008-9.8347,13.541-19.1067,2.7834-7.0898,3.8741-14.8513,3.15-22.4853-1.1727-11.3951-1.8362-22.8391-1.9721-34.0141-.1553-12.7675,.4343-17.3423,1.6516-21.752,1.0879-3.9408,2.6502-7.7437,4.671-11.3786m2.1642-11.9297c-3.7148,4.4626-8.8528,11.8273-11.6549,21.9778-1.3322,4.8261-1.9942,9.7668-1.8315,23.1433,.1047,8.6088,.5469,20.364,1.998,34.4651,.3677,3.8773,.5692,11.487-2.8304,20.1462-3.5417,9.0213-9.1889,14.5891-12.1544,17.1494-1.3492,.9107-26.4824,18.4268-24.3088,43.9555,1.3124,15.4138,11.9728,26.2855,16.8163,31.3018,8.9307,9.2491,18.5579,13.7192,24.1422,15.8173-1.6343-2.4542-3.7152-6.2106-4.9949-11.1554-.9202-3.5557-1.1642-6.7139-1.1655-9.1573-1.7077-1.5713-12.8264-13.4573-10.9889-33.9102,1.3851-15.4181,8.0474-22.5883,23.8647-35.5197,4.641-3.2394,17.9244-15.6339,23.2543-35.4641,.4262-1.5859,5.2277-20.4536-2.8305-39.6266-2.767-6.5837-4.9118-8.1151-9.1574-17.6488-4.6234-10.3821-6.9328-19.4638-8.1584-25.4742h0Z"/><path class="uuid-5796c6a8-5f6c-40aa-8cd2-98b2633ec631" d="M1032.8871,485.4211c3.2337,3.5075,6.9452,6.5161,11.069,8.9688,1.659,.9868,3.3652,1.8719,5.1133,2.6535-5.3998,4.2226-11.2296,10.8745-13.2287,20.6889-2.1247,10.431,.9872,17.0647,3.2593,21.9084,.6506,1.3869,1.2125,2.5847,1.502,3.5773l.0803,.2751,.1112,.2642c3.0735,7.304,4.6598,14.954,4.7146,22.7376,.1049,14.9019-5.4153,26.5181-10.0646,33.6388l-.0286,.0438-.0276,.0443c-2.4233,3.8865-11.5949,16.7765-27.8744,19.4683-1.658,.2741-4.4329,.7329-7.8049,.7329-7.1389,0-13.2531-2.0521-18.1727-6.0992-.993-.8169-1.8912-1.675-2.7042-2.561,5.6407,3.0787,11.9601,4.7874,18.4235,4.7874,1.5312,0,3.0757-.0961,4.5908-.2857,20.1837-2.5256,29.3231-20.3026,30.2987-22.3213l.0791-.1637,.067-.169c3.9361-9.9263,5.9218-20.1847,5.902-30.4904-.0286-14.8978-4.2922-27.2178-6.8312-33.2357-2.159-5.1175-4.0546-8.2017-5.5778-10.6799-1.8885-3.0728-2.9288-4.7653-3.6498-8.8844-.6194-3.5388-2.2647-12.9391,3.3575-19.6926,2.1901-2.6308,4.9297-4.2326,7.3961-5.2066m1.6371-5.7624c-2.8893,.7218-8.5781,2.6074-12.8759,7.7699-7.104,8.5334-5.1489,19.7035-4.4399,23.7537,1.5455,8.8293,4.834,9.4774,9.5459,20.6458,1.8346,4.3484,6.4091,16.2745,6.4379,31.3017,.0122,6.3439-.7792,16.6067-5.5499,28.6377-.5742,1.1881-8.7092,17.3199-26.4177,19.5358-1.325,.1658-2.6497,.247-3.97,.247-12.7175,0-24.9313-7.5461-31.1057-19.7828,.0337,2.2801,.4843,16.7716,12.2098,26.4177,7.1497,5.8817,15.1785,7.2379,21.3491,7.2379,3.7821,0,6.8672-.5099,8.6206-.7999,19.3527-3.2,29.5226-18.9026,31.3016-21.7559,3.5433-5.4268,11.0038-18.5117,10.8779-36.4076-.0755-10.7228-2.8472-19.274-5.106-24.6417-1.554-5.3279-7.0742-11.2452-4.6619-23.0878,3.3845-16.6161,19.7062-22.7527,20.6458-23.0878-3.5154-.6313-8.9931-2.0522-14.8738-5.55-5.8884-3.5023-9.7549-7.644-11.9879-10.4339h0Z"/></g><path class="uuid-5796c6a8-5f6c-40aa-8cd2-98b2633ec631" d="M621.1474,3577.0466c-.7584,.5541-2.5695,2.0396-3.3261,4.6129-.1153,.392-.3327,1.2671-.3327,2.3558,0,4.6721,3.7905,8.4627,8.4628,8.4627,.9047,0,1.775-.1431,2.5938-.4065,12.7745,18.924,25.5432,37.8482,38.3119,56.7722,.7787,1.3227,.3894,2.8688-.5096,3.4355-1.0192,.6472-2.8801,.1431-3.5615-1.5288-6.287-6.8311-17.3838-17.0745-33.9717-24.4267-10.8506-4.8097-20.7735-6.9225-28.2515-7.8902-.3493-7.5354-1.5804-17.3264-5.0903-28.2459-2.3705-7.3808-5.2506-13.6334-8.0162-18.7064l42.3258-28.1027c3.5558,4.5522,8.1537,9.6826,13.9827,14.79,8.6289,7.5583,17.1261,12.574,23.8999,15.8893-2.0785,7.2432-4.0768,17.1891-3.9795,29.0589,.1603,18.1453,5.159,32.3971,8.9266,40.8772,1.2597,1.2883,.9849,3.2007-.0114,3.8764-.8761,.6011-2.4507,.3433-3.3554-.8933-12.2649-19.1876-24.524-38.3635-36.7888-57.5511,1.2196-1.4715,1.9525-3.3553,1.9525-5.4108,0-4.6724-3.7848-8.463-8.4572-8.463-1.1506,0-2.2641,.3073-2.2641,.3073-.8439,.2346-1.5118,.5622-1.9845,.8379-.1851,.1163-.3703,.2329-.5554,.3492Z"/><path class="uuid-5796c6a8-5f6c-40aa-8cd2-98b2633ec631" d="M626.5393,3542.7518l-38.5623,25.6447c-.6024,.4006-1.3922,.3764-1.969-.0603l-8.0862-6.1232c-.9337-.707-.8903-2.1241,.085-2.7727l44.1288-29.3465c.9752-.6486,2.2989-.1406,2.5898,.9939l2.5197,9.825c.1797,.7008-.1034,1.4385-.7058,1.8391Z"/></g></svg>