<?xml version="1.0" encoding="UTF-8"?><svg id="uuid-bb24db2f-b370-47b3-aebb-82be6be6d9a8" xmlns="http://www.w3.org/2000/svg" width="1922.0198" height="5527.0099" viewBox="0 0 1922.0198 5527.0099"><defs><style>.uuid-38d0517d-7b4b-4e2a-891e-594db82113da{fill:#5a5a5a;}.uuid-eb576e6f-6bb1-4147-a432-591deb8fd00c{fill:#f59916;}.uuid-15cb9bb0-bde5-463d-840d-9a6a80dda6d9{fill:#f39719;}</style></defs><g><path class="uuid-38d0517d-7b4b-4e2a-891e-594db82113da" d="M1464.6046,380.1146c-18.6488-3.8063-36.5325-5.729-53.1605-5.729-52.0715,0-76.8025,18.433-80.9129,21.8273-4.5617-.6279-9.0547-.9418-13.3907-.9418-5.1306,0-8.623,.4415-10.0454,.6671-17.0106-12.135-38.6613-18.9235-64.3831-20.1792-4.5224-.2158-9.3882-.3335-14.4501-.3335-28.5472,0-56.1133,3.5512-56.388,3.5904l-.8927,.1177-.3728,.8241c-2.9038,6.3863-1.2459,13.2042-1.1772,13.4986l.1962,.7848,1.6677,.6867c2.8253,1.1281,5.0521,2.011,5.6702,6.7198,.0295,.2158,1.6089,10.9479,4.493,23.2791,.0098,.049,.0196,.108,.0392,.157,.2453,1.0889,.5101,2.1778,.7848,3.2765,3.2569,13.0964,7.8872,27.0658,13.6261,31.8924,10.8205,9.1135,36.9151,10.4673,51.5124,10.4673,2.168,0,4.287-.0294,6.3373-.0883,22.3178-.5984,32.5986-10.8793,35.9733-14.254,5.1895-5.1895,14.7837-31.1468,16.3925-38.6514,1.4813-6.9455,5.9841-10.6144,13.0081-10.6144,8.4954,0,10.9184,6.5334,11.1637,7.279,.1669,.5003,.4808,1.5107,.9027,2.8841,2.3052,7.5243,7.7204,25.1627,11.7131,31.2743,.363,.5592,.7259,1.1282,1.0987,1.7168,4.4929,7.0828,10.0846,15.8922,29.2141,18.7273,5.9056,.8829,12.3607,1.3243,19.1786,1.3243,13.94,0,26.6734-1.8933,33.3442-3.512,10.6047-2.58,19.62-11.4581,22.72-18.4918,2.1681-4.9246,5.837-23.7599,9.1037-41.0255,.7259-3.8063,1.285-6.8081,1.5401-7.9265,.8438-3.7965,5.5035-4.9834,5.5427-4.9933l1.2557-.2943v-13.6947l-1.3047-.2649Zm-179.072,69.4843c-6.3863,12.0467-28.1842,14.5678-45.3517,14.5678-.8927,0-1.7854-.0098-2.6585-.0196-18.1878-.2551-33.0696-6.406-39.2008-12.0075-6.092-5.5623-9.7218-26.487-11.6641-37.7293-2.3642-13.6458,.3336-20.964,3.6494-23.2596,7.9657-5.523,20.2576-8.3189,36.552-8.3189,14.4305,0,28.4294,2.1288,39.0144,3.9829,18.7077,3.2863,30.7446,10.0749,32.1965,18.1583,1.7462,9.6923-5.1503,30.7151-12.5372,44.6257Zm152.9871,1.6284c-4.6008,8.7309-32.2748,12.6549-50.4626,12.6549-16.3533,0-27.6054-2.8449-36.7384-17.3539-8.5153-13.5182-11.0755-34.9432-11.6544-41.1824-.824-8.9075,11.929-13.2141,20.3754-16.059,1.2557-.4316,2.423-.8241,3.4433-1.187,7.4361-2.737,32.687-5.0424,55.1224-5.0424,21.229,0,29.5577,10.2809,31.137,16.3533,1.6874,6.5139-5.9643,41.8692-11.2226,51.8165Z"/><path class="uuid-15cb9bb0-bde5-463d-840d-9a6a80dda6d9" d="M1367.4368,253.5101s9.9193,7.7161,21.4922,11.0211c11.5729,3.3071,42.9845,19.8388,39.6774,51.2504-3.3071,31.4116,3.3071,48.4951,18.1852,56.211,0,0-12.6746-16.5335-6.6122-39.6773,6.0624-23.1459-3.3071-88.7244-55.1073-88.1725,0,0-7.1641,6.6123-17.6353,9.3674h0Z"/><path class="uuid-15cb9bb0-bde5-463d-840d-9a6a80dda6d9" d="M1392.7864,239.1821s79.9066,3.857,87.0707,66.6802c7.1641,62.8233,14.878,75.4978,24.2475,87.6227,9.3675,12.1227,23.1459,51.8001,4.4089,81.0083-18.737,29.2062-23.6977,44.6361,4.4088,77.7013,28.1045,33.0651,61.1697,34.1669,39.1256,66.1283-22.0421,31.9635-55.6592,49.5989-37.4741,74.3962,18.1872,24.7994,84.3156,46.8415,35.2707,113.5217-49.047,66.6822,38.0238,137.7713,71.6389,79.9067,0,0-13.2245,15.9817-34.7167,3.859-21.4923-12.1248-25.9011-38.5757,9.9193-65.5785,35.8184-27.0028,21.4922-85.4172-24.7994-109.1149-46.2896-23.6956-76.5996-31.9614-25.9011-64.4747,50.7005-32.5154,48.4951-42.4348,32.5134-56.7609-15.9797-14.3281-88.7223-57.8646-66.1283-81.5603,22.594-23.6956,56.2089-55.6591,9.3674-120.1359-46.8415-64.4748-19.2868-61.7195-20.3885-93.683-1.1037-31.9614-89.2763-109.1129-108.563-59.5161h0Z"/><path class="uuid-15cb9bb0-bde5-463d-840d-9a6a80dda6d9" d="M1428.0556,255.7143s26.4509,27.5547,20.3906,63.3752c-6.0624,35.8184,8.8156,43.5343,24.2475,58.4123,15.4299,14.88,13.7763,47.9452-3.3071,62.8232-17.0834,14.88-60.6178,46.2917-17.0834,100.8471,43.5344,54.5574-3.857,52.9039-21.4923,71.6409-17.6353,18.737-75.4978,78.805,9.3675,150.9957,84.8674,72.1907,8.2678,111.8681-17.6333,88.1725,0,0,17.0834,23.6956,53.4537,7.1641,36.3723-16.5337,48.4951-71.089-13.2245-103.0526-61.7215-31.9614-87.0707-95.3366-22.596-122.8892,64.4768-27.5547,85.9691-58.4144,55.1093-92.5813-30.8618-34.1669-19.8387-62.8233-1.6536-89.2762,18.1851-26.4509,2.2034-57.3107-13.7763-77.7012-15.9818-20.3906-7.716-44.0863-7.1641-66.6802,.5498-22.594-27.0028-48.4951-44.6381-51.2504h0Z"/><path class="uuid-15cb9bb0-bde5-463d-840d-9a6a80dda6d9" d="M1340.2963,250.0659s25.2117,.8268,36.3703-11.1584c11.1606-11.9874,29.3457-27.6921,48.3576-20.6655,0,0-4.1319-30.5849-26.0385-25.6262-21.9046,4.9608-26.0386,14.0533-30.1705,28.9314-4.1339,14.88-14.88,25.2116-28.5188,28.5188h0Z"/><path class="uuid-15cb9bb0-bde5-463d-840d-9a6a80dda6d9" d="M1332.8569,248.4128s18.5995-6.6121,24.7994-24.7993c6.1978-18.1852,20.2511-42.1558,41.331-36.3703,0,0-16.5336-22.319-36.7847-2.8927-20.2531,19.4242-16.1192,23.1438-18.1872,41.7433-2.066,18.5995-11.1585,22.319-11.1585,22.319h0Z"/><path class="uuid-15cb9bb0-bde5-463d-840d-9a6a80dda6d9" d="M1312.6049,237.2534s15.2924-30.9971-5.3731-52.4894c0,0,11.5729-17.7728,50.838-2.4803,0,0-20.6655,11.5729-18.5996,27.2776,2.066,15.7068-4.1339,34.3044-14.88,40.0918l-11.9852-12.3997Z"/><path class="uuid-15cb9bb0-bde5-463d-840d-9a6a80dda6d9" d="M1519.5346,579.7484s1.1017,30.8598-35.8205,48.4951c-36.9221,17.6353-32.5133,41.331-9.3674,62.2714,23.1437,20.9403,24.2475,64.4768,15.4299,71.089,0,0,9.3674,10.4712,14.878,25.3493,0,0,30.31-45.7378-9.3674-85.9671-39.6775-40.2292-6.6123-41.331,22.5939-61.7215,29.2083-20.3885,35.2686-44.0862,1.6536-59.5161h0Z"/><path class="uuid-15cb9bb0-bde5-463d-840d-9a6a80dda6d9" d="M1448.9964,786.4026s-22.594,23.1459-48.4951,3.3072c-25.9011-19.8387,.5518-36.3723,.5518-36.3723,0,0-27.5547,11.0231-13.7784,41.8828,13.7784,30.8598,52.9039,32.5134,78.2531,21.4923,0,0-2.2034-20.3906-16.5315-30.31h0Z"/><path class="uuid-eb576e6f-6bb1-4147-a432-591deb8fd00c" d="M1309.3699,203.4199c-6.43-16.39-27.08-27.58-53.09-27.58-5.31,0-10.83,.46-16.51,1.44-9.61,1.7-25.73,5.86-42.4,17.1801-21.5,14.59-32.23,33.17-36.77,42.39,0,0-4.41,11.25-3.65,20.37,0,0,40.42-4.97,66.56-36.14,12.55-14.98,27.91-18.87,40.49-18.87,13.6,0,23.95,4.55,23.95,4.55,0,0,12.03,4.04,19.28,18.24l2.29,3.65c3.82-12.76,1.38-21.33-.15-25.23Zm-19.16-2.38c-1.71-.72-12.42-4.99-26.21-4.99-18.02,0-33.65,7.29-45.21,21.07-17.76,21.19-42.9901,29.56-55.29,32.53,.71-4.3,2.02-8.41,2.74-10.32,5.59-11.28,16.11-27.2401,34.59-39.78,12.06-8.19,25.52-13.64,39.99-16.2,5.21-.9,10.41-1.36,15.46-1.36,22.77,0,41.81,9.52,47.36,23.68,.71,1.79,1.2,3.71,1.48,5.72-6.58-6.99-13.38-9.78-14.91-10.35Z"/><path class="uuid-eb576e6f-6bb1-4147-a432-591deb8fd00c" d="M1284.6,213.8299c-5.17-2.56-10.97-3.82-17.02-3.82-15.72,0-33.1,8.52-45.44,24.79-4.48,4.88-12.07,11.95-23.25,17.56-9.76,4.89-18.68,6.87-24.84,7.75-4.49,.59-25.15,3.84-40.35,22.56-14.61,17.99-14.14,37.9-13.91,42.63,2.14-5.75,7.77-18.48,20.97-28.95,11-8.71,22.12-11.79,28.04-12.99,9.05-.82,24.81-3.55,40.81-13.91,7.73-5.01,13.56-10.54,17.78-15.27,2.81-2.29,11.29-8.55,23.48-8.66,.11,0,.22-.01,.34-.01,6.56,0,11.77,1.8,14.93,3.2,0,0,6.68,2.6,15.31,2.6,3.08,0,6.4-.33,9.76-1.23,12.77-3.42,13.68-8.44,14.14-10.72-1.7-4.98-7.17-18.8-20.75-25.53Zm13.83,26.23c-.84,.86-3.09,2.54-8.81,4.07-2.53,.68-5.28,1.03-8.17,1.03-6.78,0-12.26-1.89-13-2.16-5.52-2.41-11.32-3.64-17.24-3.64h-.4c-13.15,.13-22.75,6.34-27.3,10.04l-.39,.31-.33,.37c-4.88,5.48-10.44,10.2599-16.53,14.21-11.16,7.23-24.3,11.7-38.01,12.94l-.34,.03-.33,.06c-11.17,2.27-21.77,7.18-30.64,14.21-1.48,1.17-2.87,2.3701-4.19,3.59,1.55-2.86,3.43-5.74,5.73-8.57,12.73-15.68,29.6801-19.45,36.4301-20.35,9.33-1.32,18.33-4.13,26.74-8.34,9.44-4.74,17.86-11.09,25.03-18.89l.19-.22,.18-.23c10.61-14,25.76-22.36,40.53-22.36,5.22,0,10.03,1.07,14.29,3.19,9.63,4.77,14.63,14.05,16.99,20.18-.11,.16-.24,.33-.43,.53Z"/><path class="uuid-eb576e6f-6bb1-4147-a432-591deb8fd00c" d="M1207.5499,318.1599c-11.46,5.8-15.65,6.96-15.65,6.96-2.07,.58-5.27,1.3-9.42,1.54-11.25,.43-21.05,7.25-24.47,16.9901-3.31,9.45,0,19.89,8.36,26.33,5.72-1.44,11.45-2.88,17.17-4.32,0,0-5.01-20.9,11.1-26.89,16.11-5.9901,12.91-20.61,12.91-20.61Zm-14.97,15.09c-13.56,5.04-16.26,18.37-15.62,27.99l-3.44,.86-5.6,1.41c-4.83-4.87-6.54-11.65-4.35-17.91,2.62-7.47,10.31-12.72,19.14-13.06h.11c3.68-.21,7.27-.8,10.66-1.74,.3-.08,2.1201-.62,6.1201-2.35-1.55,2.05-3.8701,3.63-7.02,4.8Z"/><path class="uuid-eb576e6f-6bb1-4147-a432-591deb8fd00c" d="M1175.4099,475.0599c-5.39,12.92-10.79,25.84-16.1801,38.76,2.79,4.2,7.52,12.66,8.2,24.16,1.25,21-11.28,32.03-14.58,38.07-5.25,7.22-10.4901,14.43-15.73,21.65,4.94,14.74,9.87,29.49,14.81,44.23,1.04-5.75,2.76-12.69,5.7-20.29,2.91-7.53,5.47-11.97,9.35-18.69,9.38-15,20.09-26.64,24.16-47.42,8.04-41.04-11.07-73.25-15.73-80.47Zm9.69,79.29c-2.94,15-9.7401,25.03-16.95,35.65-2.1,3.1-4.27,6.3-6.39,9.68l-.06,.09-.05,.1c-3.87,6.71-6.66,11.55-9.76,19.55-.18,.47-.36,.94-.53,1.41l-3.0699-9.16-4.33-12.92,11.41-15.71,2.46-3.38,.23-.31,.18-.35c.49-.89,1.52-2.28,2.61-3.76,5.18-7.02,13.85-18.77,12.73-37.63-.51-8.47-3.07-16.82-7.45-24.35l2.46-5.89,7.6-18.21c6.6,13.8,14.36,37.4,8.91,65.19Z"/><path class="uuid-eb576e6f-6bb1-4147-a432-591deb8fd00c" d="M1566.6798,2527.05c-23.6699-67.6899-83.3699-196.4199-217.1899-298.1001-25.39-19.29-80.03-60.8101-161.14-89.9399l239.5799,50.0898v.02c0,6.8,5.51,12.3101,12.3,12.3101,6.8,0,12.3101-5.51,12.3101-12.3101s-5.51-12.3098-12.3101-12.3098c-5.05,0-9.3899,3.0398-11.28,7.3999l-299.1799-62.55c-.01,0-.03-.0098-.04-.0098-9.93-2.3401-20.15-4.4802-30.65-6.4102-.02,0-.05-.01-.07-.01l-5.41-1.1301v-18.21h-39.78v9.7603l-168.04-69.0502c.14-.74,.21-1.49,.21-2.2699,0-6.8-5.51-12.3101-12.3-12.3101-6.8,0-12.31,5.51-12.31,12.3101s5.51,12.3099,12.31,12.3099c4.24,0,7.98-2.15,10.19-5.42l161.06,66.1802c-43.5-4.75-90.93-6.4502-141.93-5.0701-8.79,.24-17.13,.5898-25.19,.9299-26.86,1.1201-52.23,2.1799-90.16-.8999-27.2401-2.21-77.9301-6.3301-132.48-23.96-83.11-26.8701-143.74-74.4602-179.97-109.6602-38.38-37.29-106.7-118-133.04-239.63-5.12-23.65-9.68-53.86-10.54-88.66h15.21v-39.77h-14.55c1.52-25.96,5.3-53.75,12.34-82.73,7.61-31.3199,53.23-192.3899,204.51-287.6199,70.86-44.6001,155.49-68.6702,207.94-72.7401,14.66-1.13,35.08-2.9,75.76-6.41l.19-.02c59.73-5.1499,71.5-6.4299,84.93-9.5699l-107.44,49.16c-2.17-2.86-5.57-4.75-9.44-4.87-6.79-.2101-12.47,5.13-12.67,11.9301-.21,6.7899,5.13,12.46,11.92,12.6699,6.8,.21,12.47-5.13,12.68-11.9199,.04-1.1401-.08-2.24-.34-3.29l135.45-61.99v6.8899h39.78v-25.0898l170.45-78.01c2.16,2.9399,5.61,4.8999,9.54,5.0199,6.8,.2101,12.47-5.13,12.68-11.9301,.21-6.7899-5.13-12.4599-11.93-12.6699-6.79-.21-12.47,5.13-12.67,11.9199-.03,1.0701,.07,2.1201,.3,3.1201l-142.32,65.1299c45.73-31.5898,73.85-69.5699,89.65-96.6099,31.39-53.73,39.7-105.96,41.14-140.32,.16-3.76,.24-7.54,.25-11.33,8.49-58.9-14.17-96.98-15.2-98.67-2.84-4.64-4.64-9.66-5.35-14.92l-.13-.89c-.61-4.45-1.25-9.05,1.02-13.38,2.11-4.02,6.28-8.23,10.48-12.18l.64-.66c4.83-4.99,8.64-8.93,12.78-21.35,9-26.97-1.33-50.95-6.24-60.1-6.53-14.12-9.67-29.68-9.1-45.01,.43-11.85,3.01-23.45,7.66-34.48,2.95-7,4.83-11.28,7.21-16.7,3.06-6.98,6.87-15.66,14.67-34.05,2.56-6.04,4.57-10.53,6.18-14.14,3.51-7.86,5.28-11.8,6.62-18.25,1.66-7.94,3.72-17.81,2.57-30.48-.2-2.25-.55-4.45-1.0099-6.6-.28-1.12-.55-2.23-.8-3.34-.02-.05-.03-.11-.04-.16-2-7.3-5.08-13.88-7.72-19.51-.81-1.74-1.58-3.39-2.27-4.94-1.15-2.61-2.12-4.7-2.98-6.55-2.3199-5-4.15-8.95-7.77-19.36-2.58-7.42-2.56-12.81-2.55-15.7,0-.6,0-1.11-.02-1.5-.17-4.11-.53-12.66,4.94-20.63,5.04-7.36,12.36-10.18,17.71-12.24,3.35-1.29,5.25-1.58,8.4-2.06,1.7-.25,3.81-.58,6.6-1.13,10.73-2.15,22.8799-4.58,32.23-11.49,7.96-5.89,13.82-15.19,16.95-26.91,.69-2.64,3.03-9.25,9.69-13.7401,5.47-3.7,11.11-4.11,13.99-4.03l18.35,.51-17.18-6.47c-5.33-2.01-19.4-5.97-34.82,.66-9.65,4.15-14,9.79-17.5,14.33-1.26,1.63-2.45,3.1801-3.77,4.5-3.9,3.53-8.2,6.05-12.79,7.51-4.59,1.45-8.14,1.41-11.91,1.37-1.1-.0099-2.2-.02-3.27,0-.15,0-16.25,.37-30.98,8.6-15.42,8.62-22.28,22.58-25.57,29.29-2.93,5.96-7.86,18.41-7.92,34.78-.09,22.34,7.61,34.93,14.4,46.04,1.49,2.44,2.9,4.75,4.2,7.08,5.86,11.08,9.43,22.96,10.59,35.32,2.07,21.9-.04,30.96-6.99,45.46-4.21,8.52-9.37,16.1-14.36,23.42-2.54,3.74-5.17,7.59-7.62,11.49-.64,.95-1.59,2.22-2.69,3.68-7.96,10.63-24.54,32.74-24.27,66.44,.21,27.52,11.77,48.21,18.71,58.15l4.93,8.64,.19,.22c.52,.62,5.09,6.23,3.31,13.04-.94,3.61-3.26,5.98-4.63,7.12-4.88,3.3-16.23,12.56-19.42,28.93-2.17,11.15,.39,20.52,2.93,26.42l17.77,31.6c13.84,24.58,21.66,77.2,22.96,86.53v.02c-.0099,.49-.03,.97-.05,1.46-1.4,33.46-9.5,84.31-40.06,136.62-16.38,28.05-46.37,68.1599-96.18,99.99-3.15,2.01-7.37,4.71-12.61,7.78v-4.38h-39.78v23.5499c-9.06,3.46-19.06,6.6901-29.94,9.3501-13.92,3.4099-23.54,4.51-85.84,9.8999l-.19,.01c-40.66,3.51-61.06,5.27-75.69,6.41-53.43,4.14-139.57,28.61-211.58,73.9401-66.62,41.9399-120.9,100.8099-161.35,175-29.52,54.1499-42.47,100.21-46.68,117.5-3.59,14.7899-6.35,29.2799-8.4,43.3799v-196.9299c5.6-1.16,9.81-6.12,9.81-12.0601,0-6.79-5.51-12.2999-12.31-12.2999-6.79,0-12.3,5.5099-12.3,12.2999,0,5.9401,4.21,10.9,9.8,12.0601v238.1699h-16.38v39.77h16.38v244.6101c-5.59,1.1599-9.8,6.1199-9.8,12.0599,0,6.7999,5.51,12.3099,12.3,12.3099,6.8,0,12.31-5.51,12.31-12.3099,0-5.9401-4.21-10.9-9.81-12.0599v-187.1001c1.72,11.98,3.76,22.97,5.9,32.8401,26.78,123.6899,96.25,205.76,135.28,243.6799,36.84,35.79,98.51,84.1899,183.09,111.53,55.43,17.9199,106.73,22.0898,134.29,24.3301,38.42,3.1199,64.03,2.0498,91.14,.9099,8.04-.3401,16.35-.6899,25.08-.9199,54.4901-1.4802,104.83,.5798,150.59,6.1399v19.2h39.78v-13.2898c.56,.0898,1.11,.1899,1.67,.2998,17.05,3.0701,33.35,6.6899,48.87,10.8601,102.98,27.6699,171.33,79.5999,200.51,101.77,132.15,100.4199,191.1,227.5398,214.48,294.3799,30.85,88.22,41.6801,184.1902,31.3099,277.54-9.49,85.45-37.08,169.9202-79.7899,244.29-41.2999,71.9099-98.01,136.55-164,186.9299-15.39,11.75-154.74,115.1001-306.4,124.8401-22.18,1.4199-74.73,2.78-119.63,3.0901-39.55,.2798-66.2-.29-85.65-.7002-11.07-.23-19.81-.4199-27.67-.3899-119.02,.3899-219.83,50.8201-230.93,56.5701-9,4.6499-17.82,9.6099-26.46,14.8799l52.61-44.05c2.08,1.6401,4.72,2.6201,7.59,2.6201,6.8,0,12.31-5.5,12.31-12.3s-5.5099-12.3101-12.31-12.3101-12.3,5.51-12.3,12.3101c0,2.1201,.54,4.1201,1.49,5.8599l-84.3,70.5801h-37.33v31.25l-116.49,97.53c-2.05-1.55-4.62-2.48-7.41-2.48-6.79,0-12.3,5.51-12.3,12.3101s5.5099,12.3,12.3,12.3c6.8,0,12.31-5.5,12.31-12.3,0-2.2102-.58-4.29-1.6-6.0801l81.69-68.3899c-9.8799,11.0498-19.35,22.6599-28.42,34.8198-29.95,40.1899-48.14,76.6301-58.12,100.1101-23.79,55.95-58.46,170.26-23.52,307.3101,26.84,105.26,82.95,178.1599,125.3,220.7898,19.5099,19.6499,71.35,71.8403,150.0699,102.5303,21.19,8.27,52.65,18.1699,77.94,26.1196,33.07,10.4102,53.98,16.1802,70.79,20.8203,11.4,3.1499,20.41,5.6396,29.82,8.6299,.74,.2402,74.88,24.21,140.8,75.6802,14.75,11.52,28.16,23.6396,40.37,36.1099v38.0698h32.99c44.1,57.4399,66.31,116.3501,76.81,152.8604,14.17,49.27,27.13,126.9697,8.38,217.3496-28.91,139.3901-115.78,224.8701-151.78,255.1504-32.52,27.3496-151.65,115.7798-319.14,105.2798-19.25-1.21-38.51-3.6899-57.51-7.3999v-16.75h-40v40h40v-15.0903c18.84,3.6104,37.93,6.0303,57.01,7.2202,9.52,.6001,19.02,.8999,28.49,.8999,65.98,0,130.69-14.46,192.75-43.0996,37.64-17.3701,74.41-40.4302,103.55-64.9404,36.64-30.8096,125.05-117.7998,154.47-259.6396,19.07-91.9902,5.89-171.0503-8.53-221.1904-9.51-33.0396-23.57-66.8896-40.68-97.8896-7.03-12.73-14.54-24.9902-22.52-36.7402l68.66,73.9004c-1.44,2.0195-2.3,4.5-2.3,7.1797,0,6.79,5.5099,12.2998,12.31,12.2998s12.31-5.5098,12.31-12.2998c0-6.7998-5.51-12.3101-12.31-12.3101-2.31,0-4.48,.6401-6.33,1.75l-86.85-93.48v-32.8398h-30.52l-3.43-3.6899-116.86-125.7803c1.44-2.0098,2.29-4.48,2.29-7.1396,0-6.79-5.51-12.3003-12.3-12.3003-6.8,0-12.31,5.5103-12.31,12.3003,0,6.7998,5.5099,12.3101,12.31,12.3101,2.3199,0,4.49-.6504,6.35-1.7603l79.52,85.5801c-.09-.0698-.19-.1499-.28-.2202-67.08-52.3896-142.54-76.7598-143.29-77-9.56-3.04-18.64-5.5498-30.13-8.7197-16.74-4.6201-37.58-10.3799-70.52-20.7402-25.16-7.9199-56.49-17.7798-77.43-25.9399-77.13-30.0801-128.11-81.3999-147.3-100.7202-41.64-41.9199-96.82-113.6196-123.21-217.1196-34.37-134.78-.27-247.1902,23.12-302.21,11.19-26.3201,45.87-98,114.36-162.4202h36.1v-30.5999c18.84-14.3401,39.66-27.79,62.6-39.6702,10.92-5.6599,110.14-55.28,227.28-55.6699,7.76-.03,16.46,.1599,27.47,.3899,19.5,.4102,46.22,.98,85.88,.7002,45.78-.3201,97.4-1.6602,120.08-3.1101,65.15-4.1799,135.14-25.28,208.04-62.6899,54.32-27.8801,92.35-55.8601,102.71-63.77,66.8201-51.02,124.25-116.49,166.0701-189.3101,43.26-75.3101,71.2-160.8601,80.8099-247.3801,10.5-94.5398-.4601-191.73-31.7101-281.0698Zm-447.4699-1757.6901l-17.55-31.16c-1.8-4.23-4.4301-12.67-2.48-22.66,2.78-14.25,12.77-22.29,16.93-25.09l.23-.17c3.35-2.72,5.77-6.42,6.81-10.42,2.39-9.17-2.86-16.46-4.39-18.34l-4.73-8.28-.15-.24c-6.52-9.31-17.48-28.82-17.68-54.79-.25-31.6201,15.48-52.61,23.05-62.69,1.15-1.54,2.14-2.87,2.92-4.03,2.4301-3.87,5.03-7.68,7.54-11.37,5.12-7.5,10.4-15.26,14.82-24.2,7.98-16.66,9.61-27.14,7.58-48.73-1.24-13.17-5.04-25.83-11.31-37.67-1.39-2.5-2.9-4.97-4.36-7.36-6.68-10.92-13.57-22.21-13.49-42.81,.06-15.7,5.11-27.67,7.28-32.09,3.02-6.15,9.3-18.95,23.05-26.63,13.26-7.41,27.9-7.81,28.05-7.81,1.06-.03,2.1-.01,3.13,0,4.09,.04,8.31,.08,13.84-1.67,5.46-1.73,10.55-4.71,15.12-8.86l.11-.1c1.61-1.62,2.94-3.33,4.35-5.15,3.37-4.39,6.87-8.92,15.05-12.44,6-2.57,11.77-3.3,16.71-3.16-.97,.5-1.95,1.08-2.93,1.74-8.38,5.66-11.32,13.96-12.19,17.26-2.76,10.35-7.83,18.49-14.66,23.54-8.24,6.09-19.68,8.38-29.78,10.4-2.64,.53-4.6,.83-6.32,1.09-3.31,.51-5.71,.87-9.68,2.4-5.76,2.21-14.45,5.56-20.58,14.5-6.62,9.66-6.19,19.96-6.01,24.36,.02,.33,.01,.74,.01,1.23-.01,3.03-.03,9.33,2.89,17.74,3.72,10.71,5.61,14.78,8.01,19.93,.89,1.91,1.81,3.89,2.93,6.44,.7,1.6,1.5,3.29,2.33,5.07,3.6,7.68,8.08,17.25,9.0099,27.55,1.07,11.77-.89,21.14-2.47,28.72-1.2,5.75-2.77,9.26-6.21,16.95-1.62,3.63-3.65,8.16-6.23,14.25-7.78,18.35-11.58,27.01-14.64,33.97-2.39,5.45-4.28,9.75-7.24,16.79-4.94,11.72-7.68,24.04-8.15,36.64-.6,16.33,2.76,32.89,9.71,47.91l.08,.17c4.52,8.38,14.13,30.54,5.87,55.3101-3.7,11.1-6.91,14.42-11.36,19.02l-.49,.51c-4.57,4.3-9.14,8.95-11.66,13.75-3.19,6.08-2.34,12.18-1.66,17.08l.12,.88c.83,6.11,2.92,11.93,6.2,17.29,.2,.33,16.11,27.07,16.14,69.64,0,5.1-.22,10.42-.73,15.96-.84-4.74-1.85-10.05-3.04-15.65-3.96-18.72-9.85-40.58-17.7-54.52Zm-163.09,339.04h23.78v23.7699h-23.78v-23.7699ZM315.0699,1632.4499v-23.77h23.77v23.77h-23.77Zm770.53,495.22h-23.78v-23.78h23.78v23.78Zm-106.4,2335.1301h23.78v23.7798h-23.78v-23.7798Zm-469.75-971.5701h-23.78v-23.78h23.78v23.78Z"/><path class="uuid-eb576e6f-6bb1-4147-a432-591deb8fd00c" d="M1228.9799,771.1699c.03,1.28,.09,16.35-12.7599,25.54-5.52,3.94-12.09,5.84-18.19,5.84-3.82,0-7.45-.75-10.54-2.2-14.39-6.77-20.51-32.14-11.17-57.9,2.14-4.87,4.89-6.9,9.12-11.62,3.09-3.44,4.32-4.4,5.93-6.61,4.29-5.92,5-12.2599,5.47-16.42,1.85-16.43-5.6-30.48-6.38-31.91-10.18-18.65-28.18-25.15-32.83-26.67,.86,4.14,1.61,10.06,.91,17.1-.5601,5.68-1.9,10.39-3.19,13.9,7.72,3.91,12.7599,11.33,13,19.38,.22,7.63-3.94,13.02-5.25,14.59-5.13,6.65-14.27,20.39-16.64,39.66-.66,5.42-5.01,45.76,22.34,63.37,1.41,.9,12.78,7.98,26.17,7.98,5.41,0,11.14-1.15,16.69-4.33,15.14-8.68,22.84-29.03,17.3199-49.7Zm-20.3799,44.36c-4.07,2.33-8.66,3.51-13.63,3.51-11.63,0-21.72-6.28-22.84-6.99-23.47-15.11-20.41-50.51-19.56-57.45,1.59-12.97,6.9-25.61,15.34-36.57,2.61-3.16,6.85-9.7,6.59-18.62-.26-8.57-4.67-16.58-11.82-21.87,.97-3.48,1.63-7.03,1.99-10.62,.26-2.6,.35-5.21,.28-7.81,6.65,3.65,14.68,9.79,20.11,19.73,.75,1.38,7.29,13.86,5.66,28.28-.42,3.74-1,8.88-4.33,13.48-.74,1.03-1.37,1.68-2.52,2.88-.78,.82-1.75,1.83-3.01,3.24-.97,1.08-1.87,2.02-2.73,2.9301-2.89,3.04-5.39,5.66-7.44,10.33l-.08,.18-.0699,.19c-4.82,13.28-6.08,27.28-3.5601,39.42,2.63,12.68,8.9901,21.96,17.89,26.15,3.87,1.82,8.41,2.78,13.16,2.78,7.73,0,15.46-2.48,21.76-6.99,.6-.42,1.17-.85,1.72-1.3-2.79,6.59-7.32,11.91-12.91,15.12Z"/><path class="uuid-eb576e6f-6bb1-4147-a432-591deb8fd00c" d="M1133.6999,425.8299c-3.79-9.02-6.73-11.11-12.54-24.17-6.33-14.21-9.4901-26.64-11.17-34.87-5.09,6.11-12.12,16.19-15.96,30.09-1.82,6.6-2.73,13.37-2.5,31.68,.14,11.79,.74,27.88,2.73,47.19,.51,5.31,.78,15.73-3.87,27.58-4.85,12.35-12.58,19.97-16.64,23.48-1.85,1.25-36.26,25.23-33.29,60.18,1.8,21.1,16.4,35.99,23.03,42.85,12.23,12.67,25.41,18.79,33.05,21.66-2.2401-3.36-5.09-8.5-6.84-15.27-1.26-4.87-1.59-9.19-1.59-12.54-2.34-2.15-17.56-18.42-15.05-46.43,1.9-21.11,11.02-30.92,32.68-48.63,6.35-4.43,24.54-21.4,31.83-48.55,.59-2.17,7.16-28-3.87-54.25Zm-2.07,52.65c-6.67,24.81-23.5,40.97-29.42,45.11l-.19,.13-.18,.15c-22.13,18.09-32.78,29.2-34.91,52.84-2.42,26.95,10.11,43.92,15.08,49.5,.18,3.91,.76,7.78,1.73,11.56,.06,.23,.13,.46,.19,.69-5.86-3.63-11.27-7.97-16.01-12.89l-.24-.24c-6.33-6.55-19.49-20.18-21.08-38.86-1.1-12.95,3.44-25.85,13.49-38.35,8.12-10.09,16.74-15.96,17.1-16.21l.3-.2,.28-.2401c5.65-4.88,13.41-13.33,18.35-25.89,3.77-9.61,5.24-20.12,4.26-30.46-1.6-15.62-2.51-31.31-2.7-46.63-.21-17.57,.6-23.88,2.29-29.98,1.64-5.96,4.08-11.69,7.2599-17.15,2.2401,7.79,5.02,15.42,8.3101,22.81,3.2,7.19,5.56,11.2,7.65,14.73,1.79,3.03,3.2,5.43,4.83,9.31,10.32,24.56,3.89,49.23,3.61,50.27Z"/><path class="uuid-eb576e6f-6bb1-4147-a432-591deb8fd00c" d="M1076.7099,700.3599c4.63-22.75,26.98-31.15,28.27-31.61-4.8199-.87-12.3199-2.81-20.37-7.6-8.06-4.8-13.35-10.47-16.41-14.29-3.96,.99-11.75,3.57-17.63,10.64-9.73,11.69-7.05,26.98-6.08,32.52,2.12,12.09,6.62,12.98,13.07,28.27,2.51,5.95,8.78,22.28,8.82,42.86,.01,8.68-1.07,22.73-7.6,39.2-.79,1.63-11.93,23.72-36.17,26.75-1.8199,.23-3.63,.34-5.44,.34-17.41,0-34.1299-10.33-42.58-27.09,.04,3.12,.66,22.96,16.71,36.17,9.79,8.05,20.78,9.91,29.23,9.91,5.18,0,9.4-.7,11.8-1.09,26.5-4.39,40.42-25.8799,42.86-29.79,4.85-7.43,15.06-25.34,14.89-49.85-.1-14.68-3.9-26.38-6.99-33.73-2.13-7.3-9.68-15.4-6.38-31.61Zm-6.67,111.82l-.04,.06-.03,.05c-3.36,5.39-16.07,23.24-38.64,26.97-2.29,.38-6.12,1.02-10.8,1.02-9.94,0-18.45-2.87-25.32-8.5099-2.5-2.06-4.58-4.32-6.3-6.64,8.44,5.41,18.22,8.46,28.2599,8.46,2.07,0,4.16-.1299,6.2-.3799,27.28-3.42,39.63-27.45,40.95-30.1801l.1-.2,.08-.21c5.35-13.51,8.06-27.46,8.03-41.49-.04-20.27-5.84-37.04-9.3-45.23-2.93-6.96-5.5099-11.16-7.59-14.53-2.54-4.14-4.08-6.64-5.09-12.41-.86-4.9301-3.15-18.03,4.75-27.52,3.22-3.87,7.27-6.15,10.85-7.5,4.46,4.9,9.59,9.1,15.32,12.5,2.58,1.54,5.25,2.89,7.99,4.06-7.54,5.66-15.97,14.83-18.78,28.63-2.86,14.06,1.34,23.02,4.41,29.56,.9,1.93,1.68,3.59,2.09,5l.1,.34,.14,.32c4.2401,10.09,6.4301,20.65,6.51,31.4,.14,20.57-7.48,36.61-13.89,46.43Z"/></g><path class="uuid-eb576e6f-6bb1-4147-a432-591deb8fd00c" d="M441.0677,5079.0631c-1.3245,.9678-4.4875,3.562-5.8089,8.0562-.2013,.6846-.5811,2.2129-.5811,4.1143,0,8.1597,6.62,14.7798,14.78,14.7798,1.58,0,3.1-.25,4.53-.71,22.31,33.0498,44.61,66.1001,66.91,99.1499,1.36,2.3101,.68,5.0103-.89,6-1.78,1.1304-5.03,.25-6.22-2.6699-10.98-11.9302-30.36-29.8198-59.33-42.6602-18.95-8.3999-36.28-12.0898-49.34-13.7798-.61-13.1602-2.76-30.2598-8.89-49.3301-4.14-12.8901-9.17-23.8101-14-32.6699l73.92-49.0801c6.21,7.9502,14.24,16.9102,24.42,25.8301,15.0699,13.2002,29.91,21.96,41.74,27.75-3.63,12.6499-7.12,30.02-6.95,50.75,.28,31.6899,9.01,56.5801,15.59,71.3901,2.2,2.25,1.72,5.5898-.02,6.77-1.53,1.0498-4.28,.5996-5.86-1.5601-21.42-33.5103-42.83-67-64.25-100.5103,2.1299-2.5698,3.41-5.8599,3.41-9.4497,0-8.1602-6.61-14.7803-14.77-14.7803-2.0094,0-3.9541,.5366-3.9542,.5366-1.4738,.4097-2.6403,.9819-3.4658,1.4634-.3233,.2031-.6467,.4067-.97,.6099Z"/><path class="uuid-eb576e6f-6bb1-4147-a432-591deb8fd00c" d="M450.4845,5019.1689l-67.3473,44.7873c-1.052,.6996-2.4315,.6574-3.4387-.1054l-14.1222-10.6939c-1.6307-1.2348-1.5549-3.7097,.1484-4.8424l77.0689-51.2523c1.7032-1.1327,4.0149-.2455,4.523,1.7358l4.4005,17.159c.3139,1.2238-.1806,2.5123-1.2327,3.2119Z"/></svg>