<?xml version="1.0" encoding="UTF-8"?><svg id="uuid-4a0cbc1e-8a2e-41e0-9c0e-656d24ad06ce" xmlns="http://www.w3.org/2000/svg" width="1922.0198" height="5527.0099" viewBox="0 0 1922.0198 5527.0099"><defs><style>.uuid-3b2f0b56-55f2-4d35-b1d6-e5175b8023d2{fill:#f09916;}.uuid-3f7602aa-7b53-4516-8932-b25e8adbbbe7{fill:#5a5a5a;}.uuid-c7467b93-5c54-46b9-87aa-732f0f4a8a7a{fill:#f59916;}.uuid-4a48ee65-cd85-4bf9-8b33-cd98648366af{fill:#f39719;}</style></defs><path class="uuid-c7467b93-5c54-46b9-87aa-732f0f4a8a7a" d="M685.9199,1893.5999l.8701-1.0399v-.0601c-.3,.37-.59,.73-.8701,1.1Z"/><path class="uuid-c7467b93-5c54-46b9-87aa-732f0f4a8a7a" d="M612.1,895.5599c-.14,3.48-.2,6.85-.2,10.09v-10.09h.2Z"/><g><path class="uuid-3f7602aa-7b53-4516-8932-b25e8adbbbe7" d="M1230.6899,247.2499c-10.01-2.05-19.62-3.08-28.55-3.08-27.96,0-41.24,9.9-43.45,11.72-2.45-.33-4.87-.51-7.19-.51-2.76,0-4.64,.25-5.4,.37-9.13-6.52-20.76-10.17-34.57-10.84-2.44-.12-5.05-.18-7.77-.18-15.33,0-30.13,1.91-30.28,1.93l-.48,.06-.2,.44c-1.56,3.43-.67,7.1-.63,7.25l.11,.43,.89,.36c1.52,.61,2.72,1.08,3.05,3.61,.03,.26,3.86,26.16,10.17,31.48,5.81,4.89,19.83,5.62,27.67,5.62,1.16,0,2.3-.02,3.4-.05,11.98-.32,17.5-5.84,19.32-7.66,2.78-2.78,7.94-16.73,8.8-20.75,.8-3.73,3.21-5.7,6.99-5.7,4.56,0,5.86,3.5,5.99,3.9,.09,.27,.26,.8199,.48,1.55,1.24,4.05,4.15,13.52,6.3,16.8,.19,.3,.39,.61,.59,.92,2.41,3.8,5.41,8.53,15.68,10.06,3.1801,.47,6.64,.71,10.3,.71,7.49,0,14.33-1.02,17.91-1.89,5.7-1.38,10.54-6.15,12.2-9.93,1.17-2.64,3.14-12.76,4.89-22.03,.39-2.04,.69-3.66,.83-4.2599,.45-2.04,2.96-2.67,2.98-2.68l.67-.16v-7.35l-.7-.14Zm-96.17,37.31c-3.43,6.47-15.14,7.83-24.35,7.83-.48,0-.96-.01-1.43-.01-9.77-.14-17.76-3.44-21.06-6.45-3.27-2.99-5.21-14.23-6.26-20.27-1.27-7.32,.1801-11.25,1.96-12.49,4.28-2.96,10.88-4.46,19.63-4.46,7.75,0,15.27,1.14,20.95,2.14,10.05,1.76,16.52,5.4,17.3,9.74,.93,5.21-2.77,16.5-6.74,23.97Zm82.16,.88c-2.47,4.68-17.33,6.79-27.1,6.79-8.78,0-14.82-1.52-19.73-9.32-4.57-7.2599-5.94-18.7599-6.26-22.11-.44-4.79,6.41-7.1,10.94-8.63,.68-.23,1.31-.44,1.85-.64,4-1.46,17.56-2.7,29.61-2.7,11.4,0,15.87,5.52,16.72,8.78,.9,3.5-3.21,22.48-6.03,27.83Z"/><path class="uuid-4a48ee65-cd85-4bf9-8b33-cd98648366af" d="M1178.9158,177.8368s5.3918,4.1942,11.6825,5.9907c6.2907,1.7977,23.365,10.7837,21.5674,27.858s1.7977,26.3604,9.8849,30.5545c0,0-6.8895-8.9871-3.5942-21.5673,3.2953-12.5814-1.7977-48.2277-29.9546-47.9278,0,0-3.8942,3.5942-9.586,5.0918h0Z"/><path class="uuid-4a48ee65-cd85-4bf9-8b33-cd98648366af" d="M1192.6951,170.0486s43.4347,2.0965,47.3289,36.2452c3.8942,34.1487,8.0872,41.0382,13.1802,47.6289,5.0919,6.5895,12.5813,28.1569,2.3965,44.0335-10.1848,15.8756-12.8813,24.2627,2.3965,42.2359,15.2767,17.9731,33.2499,18.572,21.2674,35.9452-11.9814,17.3743-30.2545,26.9603-20.3697,40.4394,9.886,13.4802,45.8312,25.4615,19.172,61.7068-26.6604,36.2463,20.6685,74.888,38.9406,43.4347,0,0-7.1884,8.6871-18.8709,2.0976-11.6825-6.5907-14.079-20.9685,5.3918-35.6464,19.4697-14.6778,11.6825-46.43-13.4802-59.3114-25.1615-12.8802-41.6371-17.3732-14.079-35.0464,27.5592-17.6743,26.3604-23.0662,17.6732-30.8534-8.6861-7.7883-48.2266-31.4533-35.9452-44.3335,12.2814-12.8802,30.5534-30.2545,5.0918-65.302-25.4615-35.0464-10.4837-33.5487-11.0825-50.9231-.6-17.3732-48.5277-59.3102-59.0114-32.3511h0Z"/><path class="uuid-4a48ee65-cd85-4bf9-8b33-cd98648366af" d="M1211.8663,179.035s14.3778,14.9779,11.0837,34.4487c-3.2953,19.4697,4.7919,23.6638,13.1802,31.7511,8.3872,8.0883,7.4884,26.0615-1.7977,34.1487-9.286,8.0883-32.9499,25.1627-9.286,54.8172,23.6639,29.6557-2.0965,28.7568-11.6825,38.9417-9.586,10.1848-41.0382,42.8359,5.0919,82.0764,46.1312,39.2405,4.4941,60.8079-9.5849,47.9277,0,0,9.286,12.8802,29.0557,3.8942,19.7708-8.9872,26.3604-38.6417-7.1884-56.0161-33.5498-17.3732-47.3289-51.8219-12.2824-66.7986,35.0475-14.9778,46.73-31.7522,29.9557-50.3242-16.7755-18.572-10.7837-34.1487-.8988-48.5277,9.8848-14.3778,1.1977-31.1523-7.4884-42.2359-8.6872-11.0837-4.1942-23.9639-3.8942-36.2452,.2988-12.2814-14.6779-26.3604-24.2638-27.858h0Z"/><path class="uuid-4a48ee65-cd85-4bf9-8b33-cd98648366af" d="M1164.1632,175.9647s13.7043,.4494,19.7697-6.0654c6.0665-6.516,15.9514-15.0525,26.2856-11.2331,0,0-2.246-16.625-14.1537-13.9296-11.9067,2.6965-14.1537,7.6389-16.3997,15.7262-2.247,8.0883-8.0883,13.7042-15.5019,15.5019h0Z"/><path class="uuid-4a48ee65-cd85-4bf9-8b33-cd98648366af" d="M1160.1194,175.0661s10.1101-3.5941,13.4801-13.4801c3.3689-9.8849,11.0078-22.9145,22.4662-19.7697,0,0-8.9871-12.1319-19.995-1.5724-11.009,10.5584-8.7619,12.5802-9.886,22.6903-1.123,10.1101-6.0654,12.1319-6.0654,12.1319h0Z"/><path class="uuid-4a48ee65-cd85-4bf9-8b33-cd98648366af" d="M1149.111,169.0002s8.3124-16.849-2.9206-28.5315c0,0,6.2907-9.6607,27.6339-1.3482,0,0-11.2331,6.2907-10.1101,14.8272,1.123,8.5377-2.247,18.6467-8.0883,21.7926l-6.5148-6.7401Z"/><path class="uuid-4a48ee65-cd85-4bf9-8b33-cd98648366af" d="M1261.5913,355.1695s.5988,16.7744-19.4709,26.3604c-20.0697,9.586-17.6732,22.4662-5.0918,33.8487,12.5802,11.3825,13.1802,35.0475,8.3872,38.6417,0,0,5.0918,5.6918,8.0872,13.779,0,0,16.4755-24.8616-5.0918-46.7289-21.5674-21.8673-3.5942-22.4662,12.2813-33.5498,15.8767-11.0825,19.1709-23.9638,.8989-32.3511h0Z"/><path class="uuid-4a48ee65-cd85-4bf9-8b33-cd98648366af" d="M1223.249,467.5001s-12.2814,12.5813-26.3604,1.7977c-14.079-10.7837,.3-19.7708,.3-19.7708,0,0-14.9778,5.9918-7.4895,22.7661,7.4895,16.7744,28.7569,17.6732,42.5359,11.6825,0,0-1.1977-11.0837-8.986-16.4755h0Z"/><path class="uuid-c7467b93-5c54-46b9-87aa-732f0f4a8a7a" d="M1118.4902,135.6159l.0026,3c12.522,.0007,22.9981,5.261,26.0684,13.0896,.5149,1.3127,.8268,2.7395,.9358,4.2542-3.7485-4.3413-7.8483-6.0141-8.6901-6.3247-.8849-.3734-6.6644-2.6841-14.1176-2.6841-9.6885,.0001-18.0934,3.9172-24.3061,11.3278-9.9689,11.8912-24.221,16.4029-30.7454,17.9178,.4138-2.9248,1.391-5.653,1.5996-6.2141,3.0574-6.1653,8.8102-14.9003,18.9216-21.7639,6.5964-4.4776,13.9595-7.4594,21.8731-8.8604,2.8489-.4926,5.6946-.7423,8.4581-.7423v-3m.0028,0c-2.884-.0002-5.8865,.2527-8.972,.7862-5.2229,.9247-13.9877,3.185-23.0469,9.3344-11.6885,7.9342-17.5207,18.0345-19.9904,23.0468,0,0-2.3956,6.1128-1.9825,11.0691,0,0,21.973-2.6983,36.181-19.6462,6.8239-8.1398,15.1727-10.2551,22.0071-10.2552,7.3954-.0001,13.0175,2.4765,13.0175,2.4765,0,0,6.5399,2.1942,10.4835,9.9126l1.2464,1.9825c2.0748-6.9365,.7487-11.5929-.0826-13.7124-3.4954-8.9123-14.7235-14.9934-28.8611-14.9942h0Z"/><path class="uuid-3b2f0b56-55f2-4d35-b1d6-e5175b8023d2" d="M1124.6369,157.1904c2.89,0,5.5549,.5943,7.9208,1.7665,5.3919,2.6713,8.158,7.8807,9.4461,11.2648-.3929,.7428-1.5451,1.8461-5.2977,2.852-1.4044,.3765-2.929,.5674-4.5312,.5674-3.763,0-6.8016-1.0536-7.1915-1.1946-2.9634-1.2975-6.0741-1.9554-9.2471-1.9554l-.2136,.001c-7.0391,.0666-12.1841,3.3986-14.6244,5.3788l-.1882,.1527-.1613,.1809c-2.675,3.002-5.722,5.6196-9.0563,7.7799-6.1124,3.9604-13.311,6.4115-20.8175,7.0882l-.1641,.0148-.1616,.0327c-6.0208,1.2183-11.7296,3.8643-16.5089,7.6519-1.3632,1.0803-2.5961,2.2051-3.7103,3.3504,.9894-2.1656,2.3085-4.3843,4.0612-6.5423,7.0001-8.619,16.3185-10.6929,20.0229-11.1877,5.0388-.7124,9.8939-2.227,14.4305-4.5015,5.0934-2.5537,9.6366-5.9833,13.5034-10.1934l.0959-.1044,.0856-.1131c5.8312-7.6954,14.1703-12.2896,22.3071-12.2896m0-3c-8.5458,0-17.9937,4.63-24.6981,13.4778-2.4342,2.6503-6.5625,6.4946-12.6385,9.5409-5.3051,2.6598-10.156,3.7392-13.5059,4.2129-2.437,.3254-13.6682,2.0923-21.9316,12.2668-7.9386,9.7746-7.6874,20.5972-7.5583,23.1707,1.1627-3.1279,4.2197-10.0463,11.3995-15.7363,5.9763-4.7361,12.0204-6.4111,15.2407-7.0627,4.9174-.4433,13.4854-1.9252,22.1794-7.5584,4.2067-2.7257,7.373-5.73,9.6648-8.3018,1.5314-1.2427,6.141-4.6459,12.7625-4.7085,.0618-.0006,.1238-.0009,.1852-.0009,3.5677,0,6.3981,.9754,8.1167,1.7356,0,0,3.6336,1.4145,8.3219,1.4145,1.6741,0,3.4822-.1803,5.3079-.6696,6.9388-1.86,7.4344-4.586,7.6823-5.825-.9211-2.7063-3.8951-10.2212-11.2756-13.8777-2.8124-1.3933-5.9659-2.0783-9.2527-2.0783h0Z"/><path class="uuid-c7467b93-5c54-46b9-87aa-732f0f4a8a7a" d="M1089.7455,218.8437c-.7419,1.2217-2.0499,2.4307-4.3145,3.2728-7.3382,2.7287-8.7342,10.0063-8.3487,15.1787l-1.4854,.3735-3.7023,.9311c-2.7443-2.7084-3.7259-6.5147-2.4946-10.0292,1.4499-4.1382,5.7031-7.0446,10.5834-7.2322l.0286-.0011,.0287-.0017c1.9876-.1145,3.9225-.4298,5.7511-.9372l-.001-.0038c.5765-.1622,1.8412-.6108,3.9547-1.5511m3.7525-5.122c-6.2336,3.1549-8.5082,3.786-8.5083,3.7861-1.1272,.3128-2.8641,.7029-5.1215,.8329-6.1169,.2351-11.444,3.9423-13.2994,9.238-1.7992,5.1353-.0004,10.8134,4.5433,14.3113,3.1115-.7825,6.2229-1.5649,9.3344-2.3474,0,0-2.726-11.3582,6.0302-14.6142,8.756-3.256,7.0215-11.2065,7.0214-11.2067h0Z"/><path class="uuid-c7467b93-5c54-46b9-87aa-732f0f4a8a7a" d="M1074.9388,305.0911c3.67,7.4363,8.275,20.6709,5.2047,36.3382-1.6117,8.2238-5.3297,13.704-9.266,19.506-1.1413,1.6822-2.3214,3.4217-3.4671,5.252l-.0289,.046-.0271,.0471c-2.0945,3.6321-3.6078,6.2563-5.2793,10.5767-.2169,.5605-.4257,1.1244-.6266,1.6917l-1.2451-3.7159-3.1465-9.3912,7.6413-10.5207,.1125-.1549,.0919-.168c.276-.5044,.8153-1.2353,1.4398-2.0816,2.7883-3.7787,7.4551-10.1031,6.8532-20.229-.2737-4.6054-1.6814-9.1472-4.0895-13.2309l3.8011-9.1012,2.0315-4.864m-.401-6.8243c-2.9325,7.0214-5.865,14.0429-8.7975,21.0643,1.517,2.2875,4.0892,6.8849,4.4607,13.1342,.6784,11.4129-6.1334,17.4091-7.9301,20.6926-2.8499,3.9238-5.6997,7.8475-8.5496,11.7712,2.6847,8.0127,5.3693,16.0254,8.054,24.0381,.5636-3.1228,1.4998-6.8974,3.0977-11.0278,1.5829-4.0917,2.9727-6.5058,5.0802-10.1604,5.1021-8.1506,10.9204-14.4764,13.1342-25.7728,4.3717-22.3078-6.0167-39.8157-8.5496-43.7394h0Z"/><path class="uuid-c7467b93-5c54-46b9-87aa-732f0f4a8a7a" d="M1068.4859,397.7183c3.7549,1.9678,8.4612,5.4056,11.5967,11.1488,.4136,.7575,4.0151,7.6304,3.1213,15.574-.2335,2.0757-.5533,4.9186-2.4216,7.4961-.4159,.5738-.7643,.9383-1.397,1.6-.4227,.4421-.9487,.9924-1.6291,1.751-.533,.5944-1.0197,1.1053-1.4902,1.5993-1.5513,1.6286-2.8911,3.0352-3.98,5.5179l-.0393,.0897-.0334,.0921c-5.405,14.8965-1.9891,30.6918,7.6143,35.2103,2.0538,.9663,4.4753,1.4771,7.0027,1.4771,4.1319,0,8.2626-1.3259,11.6313-3.7334,.6905-.4935,1.3231-1.0129,1.9024-1.5509-1.433,4.1372-4.0567,7.601-7.6168,9.6416-2.2655,1.2985-4.8156,1.9569-7.5795,1.9569-6.4186,0-11.986-3.4642-12.5997-3.8593-12.9351-8.3253-11.2568-27.7488-10.7889-31.558,.8734-7.1122,3.7814-14.0446,8.4097-20.0501,1.3887-1.6785,3.6475-5.1573,3.5064-9.8947-.1377-4.6282-2.562-8.9499-6.4767-11.7651,.5555-1.9423,.9362-3.9317,1.1354-5.94,.1586-1.5985,.2024-3.2028,.132-4.8032m-3.6129-4.786c.4679,2.2526,.8748,5.4705,.4956,9.2931-.3062,3.0867-1.0339,5.6502-1.7347,7.5583,4.1942,2.1263,6.9324,6.1555,7.0627,10.5322,.1235,4.148-2.1411,7.0804-2.8499,7.9301-2.7927,3.6149-7.7589,11.085-9.0452,21.5599-.3621,2.9482-2.7274,24.8754,12.1429,34.4463,.7626,.4909,6.9437,4.3366,14.2234,4.3366,2.9396,0,6.0569-.6264,9.0712-2.3541,8.2333-4.7191,12.417-15.7797,9.417-27.0119,.0149,.6935,.0466,8.8853-6.9388,13.8777-2.9963,2.1414-6.5679,3.1741-9.8869,3.1741-2.0746,0-4.0501-.4033-5.7255-1.1916-7.8228-3.6807-11.1517-17.471-6.0715-31.4725,1.1616-2.6485,2.6557-3.7539,4.9563-6.3193,1.6769-1.8698,2.3484-2.3886,3.2216-3.5933,2.332-3.2173,2.7194-6.6603,2.9738-8.9214,1.005-8.9315-3.0445-16.5688-3.4694-17.3471-5.5338-10.1363-15.316-13.669-17.8427-14.4972h0Z"/><path class="uuid-c7467b93-5c54-46b9-87aa-732f0f4a8a7a" d="M1037.5923,246.4695c1.2479,4.4846,2.8256,8.8768,4.7149,13.1194,1.7326,3.8907,3.0125,6.06,4.1417,7.974,.9785,1.6585,1.7513,2.9685,2.6481,5.1022,5.6558,13.457,2.1279,26.9799,1.975,27.5489-3.6519,13.5868-12.8787,22.4445-16.1257,24.7111l-.0935,.0652-.0882,.0721c-11.9509,9.7703-17.7063,15.7657-18.8492,28.4878-1.3192,14.6839,5.5916,23.8517,8.1915,26.7389,.0881,2.14,.4023,4.2646,.9374,6.332,.1057,.4084,.2197,.8139,.3421,1.2166-3.5039-2.0813-6.7258-4.6183-9.5291-7.5215l-.1273-.1318c-3.467-3.5893-10.6814-11.0581-11.5563-21.3335-1.484-17.4291,16.5969-29.8471,16.7798-29.9706l.1474-.0995,.1347-.1163c3.0404-2.6251,7.222-7.174,9.8771-13.9369,2.0303-5.1714,2.8259-10.8329,2.2982-16.3962-.8749-8.5011-1.3699-17.0396-1.4714-25.3783-.1166-9.588,.3312-13.0416,1.2551-16.3884,.9728-3.524,2.4454-6.9017,4.3977-10.0952m1.384-7.0589c-2.7646,3.3211-6.5883,8.8019-8.6735,16.3558-.9915,3.5916-1.4841,7.2685-1.363,17.2232,.0779,6.4066,.4069,15.1548,1.4869,25.6489,.2736,2.8855,.4235,8.5486-2.1064,14.9928-2.6357,6.7136-6.8384,10.8571-9.0452,12.7625-1.0041,.6778-19.7081,13.7132-18.0905,32.7116,.9767,11.4709,8.9101,19.5616,12.5146,23.2947,6.6462,6.8831,13.8108,10.2098,17.9666,11.7712-1.2162-1.8264-2.7649-4.6219-3.7172-8.3018-.6848-2.6461-.8664-4.9965-.8674-6.8149-1.2708-1.1693-9.5453-10.0148-8.1779-25.2358,1.0308-11.4741,5.9888-16.8102,17.7601-26.4336,3.4538-2.4108,13.3393-11.6348,17.3058-26.3923,.3172-1.1802,3.8904-15.2215-2.1064-29.49-2.0593-4.8996-3.6554-6.0392-6.8149-13.1342-3.4407-7.7264-5.1594-14.4849-6.0715-18.9579h0Z"/><path class="uuid-c7467b93-5c54-46b9-87aa-732f0f4a8a7a" d="M1015.2452,395.0926c2.4349,2.7132,5.2539,5.0299,8.4025,6.9026,1.5662,.9316,3.1899,1.739,4.863,2.4192-4.1627,2.9994-8.9955,8.0126-10.5646,15.7158-1.5335,7.5287,.7237,12.3405,2.3718,15.854,.4969,1.0593,.9261,1.9742,1.1572,2.7667l.0482,.1651,.0667,.1585c2.3242,5.523,3.5236,11.3085,3.565,17.1959,.0793,11.2695-4.0931,20.0509-7.6073,25.4332l-.0172,.0262-.0166,.0266c-1.8438,2.9572-8.8246,12.7655-21.2383,14.8181-1.2557,.2076-3.3574,.5551-5.926,.5551-5.4843,0-10.1885-1.5824-13.9821-4.7032-1.9239-1.5827-3.3865-3.3661-4.4982-5.1808,4.8428,3.5355,10.6643,5.5599,16.6545,5.5599,1.1096,0,2.2289-.0696,3.327-.2071,14.6432-1.8323,21.2801-14.7437,21.9886-16.2099l.0475-.0982,.0402-.1013c2.8953-7.3015,4.356-14.8459,4.3415-22.4237-.0211-10.9606-3.1587-20.0265-5.027-24.455-1.5854-3.7579-2.9802-6.0272-4.101-7.8507-1.4042-2.2847-2.2518-3.6638-2.8121-6.8649-.4767-2.7235-1.743-9.9582,2.6548-15.2408,1.8623-2.2371,4.2205-3.5231,6.2618-4.2611m1.0147-3.4407c-2.1502,.5372-6.3838,1.9404-9.5822,5.7823-5.2868,6.3506-3.8318,14.6633-3.3042,17.6775,1.1501,6.5707,3.5975,7.0531,7.104,15.3645,1.3653,3.2361,4.7696,12.1114,4.7911,23.2946,.009,4.7211-.5799,12.3587-4.1302,21.3121-.4273,.8842-6.4814,12.8894-19.66,14.5385-.9861,.1234-1.9719,.1838-2.9545,.1838-9.4643,0-18.5538-5.6159-23.1487-14.7223,.0251,1.6968,.3604,12.4814,9.0865,19.66,5.3207,4.3772,11.2958,5.3864,15.888,5.3864,2.8146,0,5.1105-.3795,6.4154-.5953,14.4022-2.3814,21.9706-14.0672,23.2946-16.1906,2.6369-4.0386,8.189-13.7764,8.0953-27.0944-.0562-7.9799-2.1188-14.3438-3.7998-18.3383-1.1565-3.9651-5.2646-8.3687-3.4694-17.1819,2.5188-12.3657,14.6654-16.9325,15.3646-17.1819-2.6161-.4698-6.6927-1.5273-11.0691-4.1302-4.3821-2.6064-7.2596-5.6886-8.9213-7.7649h0Z"/></g><g><path class="uuid-c7467b93-5c54-46b9-87aa-732f0f4a8a7a" d="M724.1501,2856.5197v-14.6797h14.6797v6.4697l2.2349-.2637c13.9297-1.6465,27.6621-4.334,41.1035-8.0371-13.5928,3.7471-27.481,6.457-41.5708,8.1045l-1.7676,.207v8.1992h-14.6797Zm98.9775-31.3584c2.9775-1.3545,5.9277-2.7578,8.8452-4.209-2.918,1.4512-5.8628,2.8525-8.8403,4.2061-.4199,.1914-.8423,.3818-1.2632,.5703,.4199-.1885,.8389-.377,1.2583-.5674Zm8.856-4.2148q.0352-.0176,0,0Zm.2031-.1006q.0044-.002,0,0Zm54.1255-35.4609q.0088-.0078,0,0Zm.1665-.1396c9.7866-8.2197,19.0444-17.1514,27.7446-26.7734,.1191-.1318,.2368-.2627,.3555-.3936l-.3525,.3906c-8.7007,9.624-17.9595,18.5557-27.7476,26.7764Zm77.4043-104.4526c.418-.9849,.8301-1.9727,1.2373-2.9634,.6055-1.4761,1.1992-2.9575,1.7793-4.4424-.5801,1.4849-1.1738,2.9678-1.7793,4.4438-.4072,.9893-.8193,1.9775-1.2373,2.9619Zm18.5146-64.4937c1.5664-9.833,2.6074-19.7769,3.1191-29.8071,.5088-9.9385,.4961-19.8301-.0361-29.6528,.5332,9.8232,.5488,19.7134,.042,29.6494-.5146,10.0303-1.5576,19.978-3.125,29.8105Zm-2.7607-102.9146c-2.4736-11.4146-5.6797-22.689-9.6113-33.7925-5.1025-14.4233-11.4434-28.5049-18.8467-41.8516l-.5361-.9673-11.5957-.6313,.4399-8.0132-.4316,8.0107,7.9272,.4277,6.7349,.3662-.1187,2.1821,3.8525,6.144-1.7437,.9883c5.5015,10.8032,10.3218,22.0205,14.3276,33.3394,3.9277,11.1069,7.1299,22.3828,9.6016,33.7974Zm14.5234-7.9048c-1.9639,0-3.5605-1.5923-3.5605-3.5498,0-1.0049,.4131-1.9375,1.1631-2.6265l.457-.4199,.6416-.2603c.4141-.168,.8506-.2534,1.2988-.2534,1.9629,0,3.5596,1.5972,3.5596,3.5601,0,1.9575-1.5967,3.5498-3.5596,3.5498Zm-40.3403-70.6494l.1167-2.0044,.3433-6.2358-.46,8.4585v-.2183Zm-13.8467-15.5532l-.3672-.5537c-2.7305-4.1104-5.625-8.2153-8.604-12.2007-.3823-.5122-.7671-1.0234-1.1504-1.5288l1.6357-1.1289,11.1382,17.7651,11.8887,.6479-.0005,.0044-14.6582-.7983-.1255,2.2207,.2432-4.4277Zm-46.3916-53.5005c-8.749-7.8208-16.4023-13.7305-21.9697-18.0293-1.0786-.8354-2.5259-1.939-4.312-3.2651,1.7852,1.3228,3.2349,2.4248,4.3184,3.2612,5.5435,4.2817,13.2031,10.1992,21.9634,18.0332Zm-2.252-25.3965c-1.957,0-3.5498-1.5967-3.5498-3.5601,0-1.9575,1.5928-3.5503,3.5498-3.5503,1.9629,0,3.5601,1.5928,3.5601,3.5503,0,1.1465-.5288,2.1914-1.4507,2.8657l-.4858,.3555-.7134,.2119c-.2837,.0845-.5898,.127-.9102,.127Zm-64.5903-22.2671c-11.8813-6.7637-20.2534-10.6626-28.2769-14.3594,8.001,3.6792,16.3521,7.562,28.2769,14.3594Zm-30.6855-15.4692c-6.4814-2.9897-13.2847-6.1792-21.936-10.8994,0,0-1.2222-.6675-1.8921-1.0356,.6787,.3721,1.2896,.7046,1.8271,.9976,8.7056,4.7524,15.5132,7.9424,22.001,10.9375Zm-68.0361-41.0796c-2.9434-2.3613-5.8867-4.8359-8.7881-7.4185-1.0908-.9712-2.2036-1.979-3.3369-3.0244,1.1328,1.0444,2.2471,2.0532,3.3379,3.0234,2.9062,2.5854,5.8481,5.0601,8.7871,7.4194Zm-62.4023-73.4453c-5.0986-8.8813-9.917-18.4854-14.2515-28.8223-14.1211-33.6919-20.959-69.4102-20.3242-106.1621,.0405-2.3257,.1157-4.7578,.2319-7.2861-.1162,2.5283-.1909,4.9614-.231,7.2871-.6353,36.7451,6.2031,72.4619,20.3247,106.1572,4.3354,10.3408,9.1533,19.9448,14.25,28.8262Zm-20.9087-214.2725c3.6851-11.0166,8.3101-22.4116,14.0913-33.9614,4.2256-8.4399,8.9634-16.73,14.0811-24.6387l-1.5972-1.1821,16.2588-19.2842c-11.1055,14.0288-20.77,29.1958-28.7388,45.104-5.7837,11.5513-10.4092,22.9453-14.0952,33.9624Zm-8.0269-16.1665c-1.9629,0-3.5601-1.5972-3.5601-3.5601,0-1.9575,1.5972-3.5498,3.5601-3.5498,.543,0,1.0591,.1187,1.5347,.3535l.6118,.3022,.436,.4639c.624,.6631,.9673,1.5264,.9673,2.4302,0,1.9629-1.5923,3.5601-3.5498,3.5601Zm52.1104-79.6699h12.8794l12.8086-15.1934,1.4355,1.3755c5.0298-4.627,10.0718-8.9014,15.0659-12.8457-8.9517,7.0771-18.0405,15.2021-26.9541,24.5103l-.5557,.5801v1.5732h-14.6797v14.6797h.4204l-.4204,.5239v-15.2036Zm90.063-56.8027c3.8159-1.8618,7.3936-3.4893,10.6763-4.8999,18.2129-7.8286,35.5264-12.7095,50.8496-15.8057-15.3237,3.0977-32.6343,7.98-50.8491,15.811-3.3306,1.4312-6.9038,3.0562-10.6768,4.8945Zm-19.6333-10.0874c-.5366,0-1.0435-.1138-1.5059-.3389l-.5923-.2876-.4829-.4927c-.6313-.6445-.979-1.5078-.979-2.4307,0-1.9634,1.5972-3.5601,3.5601-3.5601s3.5601,1.5967,3.5601,3.5601c0,1.957-1.5972,3.5498-3.5601,3.5498Zm190.0591-15.1792c13.7935,0,55.7563,0,90.2505-5.2339,46.8828-7.1094,84.9473-24.3496,107.9209-37.0249-22.9551,12.6748-60.998,29.9121-107.9199,37.0303-34.499,5.2285-76.4619,5.2285-90.251,5.2285h-.0005Zm-2.4771-.001h0Zm-2.2188-.0049c-14.8774-.0566-23.25-.5273-30.0332-.9087-4.8765-.2744-9.0054-.5073-14.0767-.5073-1.5557,0-3.1743,.022-4.8774,.0664,1.7554-.0474,3.4175-.0708,5.0088-.0708,5.0347,0,9.1396,.2324,13.8921,.502,6.8179,.3867,15.1909,.8618,30.0864,.9185Zm315.1572-150.2056c3.4609-5.6235,6.5254-11.0039,9.2236-16.0459,2.5352-4.7349,5.3193-10.272,8.1855-16.5493-2.8652,6.2788-5.6484,11.8164-8.1836,16.5527-2.6982,5.0405-5.7646,10.4209-9.2256,16.0425Zm46.0215-162.3013c.0293-8.1953-.2695-16.6064-.9482-25.2251-.252-3.1904-.5508-6.3447-.8926-9.4585,.3477,3.1504,.6455,6.3042,.8955,9.4629,.6777,8.6167,.9756,17.0269,.9453,25.2207Zm-14.457-94.3877c-7.9248-25.0527-17.9531-45.8169-27.0166-61.5825,11.1885,19.4443,20.251,40.1509,27.0166,61.5825Zm-34.8594-74.3823c-14.8086-22.7114-45.5752-62.8774-94.1855-94.0615-14.6143-9.3726-28.3379-16.3765-39.0938-21.2715,10.7256,4.8735,24.4316,11.8657,39.0947,21.2686,48.6133,31.1846,79.3779,71.3525,94.1846,94.0645Zm-66.1953-116.3579c-1.9141,0-3.4746-1.498-3.5518-3.4106l-.0254-.647,.2061-.627c.4795-1.457,1.834-2.4355,3.3711-2.4355,1.9629,0,3.5596,1.5972,3.5596,3.5601s-1.5967,3.5601-3.5596,3.5601Zm-125.6182-18.2202c-9.9375-2.1836-20.0996-4.0425-31.1475-6.063-.3779-.0669-1.415-.2627-1.415-.2627l-2.3691-.4443v-.1621l35.2852,4.9678-.3535,1.9644Zm-49.6123-9.3149v0Zm-1.7705-.2129c-21.4424-3.3472-42.1748-5.3169-63.3828-6.021-4.9502-.1631-9.5093-.2422-13.938-.2422-3.2354,0-6.1641,.0425-8.9121,.1074,2.769-.0674,5.7217-.1118,8.9839-.1118,4.4028,0,8.9375,.0801,13.8628,.2446,19.2837,.6333,38.1245,2.3149,57.6001,5.1396l5.6689,.8223,.1172,.061Zm1.7705-5.5518h0v0Zm-126.6904-.1504c-2.6011-.0811-5.2969-.187-8.106-.3179-23.2158-1.0869-41.5215-1.9443-62.2026-6.2793-4.8926-1.0278-11.1123-2.5381-18.3398-4.7251,7.2285,2.186,13.4473,3.6943,18.3384,4.7202,20.6694,4.3389,38.9736,5.1943,62.1475,6.2773,2.8447,.1333,5.5581,.2417,8.1626,.3247Zm-88.6509-11.3232c-.0034-.001-.0049-.0015,0,0Zm126.0317-26.1465c-1.9629,0-3.5601-1.5928-3.5601-3.5498,0-1.9634,1.5972-3.5605,3.5601-3.5605s3.5596,1.5972,3.5596,3.5605c0,.394-.0615,.7666-.1831,1.1064l-.2446,.6846-.377,.458c-.6797,.8267-1.6841,1.3008-2.7549,1.3008Zm-312.8501-101.6401c-1.9575,0-3.5503-1.5972-3.5503-3.5601,0-1.7349,1.2324-3.2065,2.9302-3.4985l.625-.1079,.6255,.1079c1.6973,.292,2.9297,1.7637,2.9297,3.4985,0,1.9629-1.5967,3.5601-3.5601,3.5601Zm4.2188-80.8379c-.5034-3.0376-.9204-5.9087-1.2651-8.5967l-1.9136,.1221v-30.7773c0-2.3921,.0337-4.7847,.1001-7.1431-.3164,11.46,.1304,22.7891,1.3315,33.7212,.4263,3.8735,.9941,8.1152,1.7471,12.6738Zm-10.5991-66.022h7.4204v-4.8052l1.915,.1157c1.6523-13.626,4.3945-27.2646,8.1494-40.5356,6.4238-22.7231,15.9551-44.6509,28.0874-64.8159-12.1318,20.1655-21.6626,42.0923-28.0869,64.8169-3.9878,14.1084-6.8252,28.5771-8.4326,43.0024l-.248,2.2217h-8.8047v0Zm5.7603-111.001c-1.6978-.2925-2.9302-1.7642-2.9302-3.499,0-1.9634,1.5928-3.5601,3.5503-3.5601,1.9634,0,3.5601,1.5967,3.5601,3.5601,0,1.7354-1.2324,3.2065-2.9297,3.499l-.6255,.1074-.625-.1074Zm63.02-31.6489c12.5234-14.9302,45.229-49.5288,95.1963-71.5391-51.0996,22.5381-84.8784,59.2759-95.1963,71.5391Zm195.0098-69.6802c-1.9624,0-3.5596-1.5972-3.5596-3.5601,0-1.9575,1.5972-3.5498,3.5596-3.5498,1.1655,0,2.2563,.5684,2.9175,1.5205l.3667,.5283,.1685,.6572c.0713,.2788,.1074,.5625,.1074,.8438,0,1.9629-1.5967,3.5601-3.5601,3.5601Zm-74.2075-11.6558c3.6714-1.1562,7.6499-2.3003,11.9165-3.375,1.771-.4453,3.478-.8511,5.1338-1.2217-1.6543,.3711-3.3604,.7773-5.1313,1.2231-4.2686,1.0747-8.2485,2.2188-11.9189,3.3735Zm111.5366-17.6694c4.3882-.9326,8.8735-2.0049,13.4795-3.2661l.1729-.0474c7.3911-2.0244,18.5605-5.084,31.1772-10.251l1.2417-.5083v-10.1021h0v11.0063l-14.8403,6.7339-.7261-1.8599c-6.7061,2.209-12.668,3.8394-17.021,5.0303-4.605,1.2607-9.0933,2.332-13.4839,3.2642Zm60.751-20.9092l2.9561-1.6089c10.1221-5.5112,19.5498-11.9272,28.1387-19.1431-6.5771,5.5303-13.6455,10.5928-21.1104,15.1157l.9326,1.7681-10.917,4.9541v-1.0859Zm86.8301-33.7256c-1.165,0-2.2227-.5464-2.9014-1.4995l-.3721-.5234-.1738-.6523c-.0752-.2793-.1123-.5771-.1123-.8848,0-1.958,1.5967-3.5503,3.5596-3.5503s3.5605,1.5923,3.5605,3.5503c0,1.9634-1.5977,3.5601-3.5605,3.5601Zm-41.1074-.7363c6.542-6.6743,14.5039-15.728,21.5303-27.6685-7.0293,11.9487-14.9922,21.002-21.5303,27.6685Zm36.9688-69.8188c.4785-2.7554,.8682-5.5312,1.167-8.3213l.0176-.1621-.0088-.1626c-.1445-2.5947-.3984-6.2388-.832-10.4082l2.0146-.019c-.1992,2.189-.4658,4.4497-.8086,6.7764l-.0156,.1348c-.3223,4.0894-.835,8.1489-1.5342,12.1621Z"/><path class="uuid-c7467b93-5c54-46b9-87aa-732f0f4a8a7a" d="M1055.18,577.48c.8603,0,1.56,.6954,1.56,1.55,0,.8603-.6997,1.56-1.56,1.56-.724,0-1.1297-.4603-1.2703-.6583l-.1644-.2311-.0803-.3013c-.03-.1117-.045-.236-.045-.3693,0-.8547,.6996-1.55,1.56-1.55m-184.91,83.96c.7357,0,1.1364,.4626,1.2747,.6617l.1614,.2324,.0786,.3073c.03,.1173,.0453,.2347,.0453,.3486,0,.8604-.6996,1.56-1.56,1.56s-1.56-.6996-1.56-1.56c0-.8547,.6997-1.55,1.56-1.55m-257.41,101.38c.8603,0,1.56,.6996,1.56,1.56,0,.7587-.534,1.4013-1.2697,1.528l-.2853,.0492-.2853-.0492c-.7357-.1267-1.2697-.7693-1.2697-1.528,0-.8604,.6953-1.56,1.55-1.56m.005,257.7828l.2853,.0492c.7357,.1267,1.2697,.7693,1.2697,1.528,0,.8604-.6997,1.56-1.56,1.56-.8547,0-1.55-.6996-1.55-1.56,0-.7587,.534-1.4013,1.2697-1.528l.2853-.0492m312.845,101.6672c.8604,0,1.56,.6997,1.56,1.5601,0,.1639-.0226,.3103-.067,.4347l-.1272,.3561-.1548,.1882c-.2986,.363-.74,.571-1.211,.571-.8604,0-1.56-.6954-1.56-1.55,0-.8604,.6996-1.5601,1.56-1.5601m264.54,70.91c.8603,0,1.56,.6997,1.56,1.5601s-.6997,1.5599-1.56,1.5599c-.823,0-1.52-.6693-1.5533-1.4919l-.0114-.2808,.0947-.288c.1733-.5273,.695-1.0593,1.47-1.0593m-431.03,612.83c.8603,0,1.56,.6997,1.56,1.5601,0,.8546-.6997,1.55-1.56,1.55-.2313,0-.4437-.0464-.6313-.1373l-.2815-.137-.2402-.2451c-.1857-.1897-.407-.5223-.407-1.0306,0-.8604,.6997-1.5601,1.56-1.5601m-122.54,146.5601c.2333,0,.4523,.0497,.6507,.1473l.285,.1406,.1896,.2017c.1937,.2061,.4247,.5574,.4247,1.0604,0,.8602-.6953,1.5599-1.55,1.5599-.8603,0-1.56-.6997-1.56-1.5599,0-.8547,.6997-1.55,1.56-1.55m254.65,382.7c.8604,0,1.56,.6953,1.56,1.55,0,.5017-.2307,.958-.6323,1.252l-.2044,.1497-.3853,.1147c-.0667,.02-.1793,.0437-.338,.0437-.8547,0-1.55-.6997-1.55-1.5601,0-.8547,.6953-1.55,1.55-1.55m102.83,165.0996c.8604,0,1.56,.7002,1.56,1.5605,0,.8545-.6996,1.5498-1.56,1.5498s-1.56-.6953-1.56-1.5498c0-.592,.3233-.9775,.516-1.1545l.1888-.1733,.3109-.1262c.1757-.0718,.354-.1064,.5443-.1064m-257.33,343.4705v10.6799h-10.68v-10.6799h10.68M1114.2445,178.9644c-2.9176,0-6.244,.5008-9.6946,1.9856-5.2,2.24-7.55,5.29-9.44,7.74-.7,.9-1.36,1.76-2.04,2.44-2.15,1.95-4.52,3.34-7.05,4.14-2.1264,.675-3.8541,.7663-5.5736,.7663-.3183,0-.6362-.0031-.9564-.0062-.3-.005-.5975-.0075-.8962-.0075s-.5988,.0025-.9037,.0075c-.36,.01-8.8101,.23-16.73,4.65-8.34,4.66-12.05,12.22-13.83,15.85-1.59,3.23-4.25,9.97-4.28,18.83-.05,12.09,4.12,18.91,7.79,24.93,.82,1.33,1.58,2.59,2.29,3.86,3.2,6.04,5.15,12.52,5.78,19.26,1.13,11.95-.02,16.89-3.81,24.81-2.3,4.64-5.11,8.76-7.82,12.75-1.39,2.03-2.81,4.12-4.15,6.24-.34,.52-.86,1.21-1.46,2.01-4.32,5.76-13.31,17.75-13.16,36.01,.11,14.92,6.38,26.13,10.14,31.52l2.61,4.57,.16,.23c.29,.34,2.82,3.45,1.84,7.24-.52,2.01-1.82,3.33-2.58,3.96-2.63,1.78-8.77,6.78-10.49,15.62-1.18,6.02,.21,11.08,1.58,14.26l9.65,17.16c6.65,11.81,8.52,35.11,9,43.71-.94,8.77-2.78,17.39-5.5,25.69-9.82,29.96-28.48,47.93-38.5,57.59-11.7,11.27-24.06,19.74-35.87,26.17v-1.9h-18.68v10.76c-12.6,5.16-23.6,8.16-31.12,10.22-17.02,4.66-32.46,6.73-47.4,8.73-10.89,1.46-19.48,2.23-27.06,2.92-13.19,1.19-23.61,2.13-38.6,5.9-17.15,4.32-29.64,9.73-36.35,12.63-52.27,22.61-86.09,59.06-98.2,73.68-23.25,28.05-40.85,61.67-50.9,97.22-4.08,14.42-6.67,28.14-8.21,40.84v-104.1c2.61-.45,4.59-2.73,4.59-5.47,0-3.07-2.49-5.56-5.56-5.56s-5.55,2.49-5.55,5.56c0,2.74,1.98,5.02,4.59,5.47v107.03h-7.42v18.68h7.62c-.14,3.48-.2,6.85-.2,10.09v111.06c-2.61,.45-4.59,2.73-4.59,5.47,0,3.0701,2.48,5.5601,5.55,5.5601s5.56-2.49,5.56-5.5601c0-2.74-1.98-5.02-4.59-5.47v-80.15c2.88,22.45,10.37,55.23,29.43,90.66,25.11,46.71,58.6,76.08,82.28,92.5,38.08,26.41,74.03,36.7,92.07,40.49,20.85,4.37,39.24,5.23,62.52,6.3199,8.3333,.3877,14.9671,.5237,20.6439,.5237,6.7692,0,12.1778-.1932,17.4861-.3837,5.3463-.1887,10.8051-.3813,17.6667-.3813,4.0477,0,8.5823,.067,13.8733,.2413,25.61,.8501,47.09,3.49,63.22,6.01v9.15h18.68v-5.97c.48,.09,.95,.1799,1.4,.26,28.87,5.2799,51.68,9.45,80.19,21.23,11.32,4.6899,28.82,12.84,47.89,25.0699,56.04,35.9501,88.21,83.91,99.44,102.86,16.68,28.16,37.54,74.12,42.2,133.2201,6.21,78.76-19.65,140.5599-35.62,170.38-17.12,32-49.07,77.61-104.0099,113.23-16.9301,10.97-62.9,37.5-123.96,46.76-32.9568,4.9995-72.5033,5.2111-89.9915,5.2111-.9462,0-1.826-.0006-2.6385-.0011-16.14-.02-24.93-.52-31.99-.92-4.8943-.2777-8.9512-.5059-14.0056-.5059-3.1349-.0001-6.6533,.0876-10.9944,.3059-18.53,.92-57.11,2.84-100.87,21.65-19.66,8.45-47.1,23.34-74.18,48.25l42.28-50.14c.72,.35,1.53,.54,2.38,.54,3.07,0,5.56-2.49,5.56-5.55,0-3.0699-2.49-5.5601-5.56-5.5601s-5.56,2.4901-5.56,5.5601c0,1.49,.58,2.84,1.55,3.83l-54.47,64.61h-13.95v16.55l-.87,1.04-46.82,55.53c-.73-.3601-1.55-.5601-2.42-.5601-3.07,0-5.56,2.48-5.56,5.55s2.49,5.5599,5.56,5.5599,5.55-2.49,5.55-5.5599c0-1.4701-.57-2.8-1.51-3.8l30.48-36.16c-5.19,8.02-9.92,16.3-14.19,24.8301-22.25,44.45-27.49,86.59-27.97,114.1097-.64,37.0303,6.25,73.0198,20.48,106.9702,19.19,45.77,47.78,77.23,68.38,95.5696,22.38,19.9204,47.08,33.3904,55.26,37.8604,9.42,5.1396,16.65,8.47,23.64,11.6902,8.99,4.1399,18.28,8.4199,32.35,16.6199,20.72,12.0796,35.75,23.27,41.24,27.52,12.73,9.8301,36.41,28.1299,59.01,58.3899,2.96,3.9602,5.81,8,8.54,12.1101l-1,18.2,12.49,.6799c7.36,13.27,13.62,27.1597,18.71,41.55,12.07,34.0801,17.24,69.79,15.38,106.1296-1.6,31.3503-8.41,61.8503-20.25,90.6804-12.07,29.3899-29.07,56.3301-50.53,80.0601-25.56,28.27-55.99,50.55-90.44,66.21-25.85,11.75-53.21,19.3799-81.47,22.72v-6.22h-18.68v18.6799h18.68v-8.4202c28.83-3.3699,56.74-11.1299,83.13-23.1199,34.95-15.8899,65.82-38.49,91.75-67.1699,21.76-24.0801,39.01-51.3999,51.26-81.22,12.01-29.25,18.92-60.2004,20.55-92,1.88-36.8701-3.37-73.0901-15.6-107.6699-4.08-11.5305-8.91-22.74-14.43-33.5801l32.92,52.49c-1.11,1.0198-1.81,2.48-1.81,4.1001,0,3.0698,2.49,5.5498,5.56,5.5498s5.56-2.48,5.56-5.5498-2.49-5.5605-5.56-5.5605c-.72,0-1.41,.1404-2.05,.4004l-36.48-58.1799,.9901-18.2004-12.85-.6995-49.15-78.3901c1.38-1.01,2.27-2.6399,2.27-4.48,0-3.0601-2.49-5.55-5.56-5.55s-5.55,2.49-5.55,5.55c0,3.0696,2.48,5.5601,5.55,5.5601,.51,0,1.01-.0701,1.48-.21l38.63,61.6199c-22.5601-29.78-45.94-47.8499-58.6-57.6299-5.56-4.2905-20.75-15.6001-41.67-27.8-14.24-8.3101-23.62-12.6301-32.69-16.8-6.94-3.2-14.11-6.5-23.47-11.6101-8.02-4.3699-32.41-17.6899-54.45-37.2998-20.3-18.0601-48.45-49.0503-67.35-94.1301-14.01-33.4299-20.8-68.8804-20.17-105.3499,.47-27.1101,5.63-68.6101,27.55-112.3901,8.18-16.33,18.09-31.77,29.58-46.09h15.3v-17.45c30.29-31.63,62.62-49.54,84.85-59.0901,43.1-18.5299,81.19-20.4299,99.49-21.34,4.1978-.2076,7.6166-.2913,10.6654-.2913,5.0273,0,9.0491,.2274,13.9045,.5012,7.1201,.4,15.97,.9,32.22,.92,.8123,.0005,1.6959,.0011,2.641,.0011,17.5765,0,57.3369-.212,90.589-5.2511,61.83-9.38,108.39-36.25,125.53-47.37,55.66-36.08,88.02-82.28,105.37-114.6899,16.17-30.2101,42.36-92.8101,36.08-172.5801-3.7401-47.39-18.52-94.0499-42.75-134.95-11.37-19.1901-43.96-67.78-100.72-104.1901-19.32-12.39-37.05-20.65-48.53-25.39-17.89-7.3999-33.52-11.83-49.75-15.3899l119.64,16.84c.12,2.96,2.56,5.33,5.55,5.33,3.0699,0,5.56-2.49,5.56-5.5599s-2.4901-5.5601-5.56-5.5601c-2.46,0-4.54,1.59-5.27,3.8101l-153.28-21.5801v-8.4099h-18.68v5.1799l-82.05-42.5699c.2-.5601,.3-1.16,.3-1.78,0-3.0701-2.49-5.5601-5.56-5.5601s-5.56,2.49-5.56,5.5601,2.49,5.55,5.56,5.55c1.73,0,3.28-.79,4.3-2.03l77.7401,40.34c-15.44-2.24-35-4.41-57.82-5.16-5.3076-.177-9.8646-.2452-13.93-.2452-6.9568,0-12.4772,.1996-17.88,.3953-5.4484,.1936-10.7357,.3815-17.2743,.3815-5.6185,0-12.1606-.1387-20.5258-.5315-23.11-1.08-41.36-1.9299-61.89-6.24-17.74-3.72-53.11-13.85-90.61-39.85-23.32-16.17-56.3-45.11-81.04-91.11-19.95-37.1-27.03-71.22-29.46-93.32-1.08-9.83-1.78-22.19-1.22-36.45h7.07v-18.68h-5.65c1.47-13.19,4.09-27.54,8.37-42.68,9.9-35.02,27.23-68.13,50.13-95.76,9.31-11.23,43.79-49.66,96.71-72.56,6.61-2.86,18.9-8.18,35.74-12.42,14.69-3.7,24.96-4.63,37.98-5.8,7.62-.69,16.25-1.47,27.23-2.94,15.07-2.02,30.65-4.1,47.93-8.83,4.57-1.25,10.41-2.85,17.12-5.06l-63.9,28.99c-1-1.44-2.67-2.38-4.56-2.38-3.07,0-5.56,2.49-5.56,5.55,0,3.07,2.49,5.56,5.56,5.56s5.56-2.49,5.56-5.56c0-.46-.06-.91-.17-1.34l76.01-34.49v2.58h18.68v-11.05l80.3-36.44c1.01,1.42,2.66,2.34,4.53,2.34,3.07,0,5.56-2.49,5.56-5.56s-2.49-5.55-5.56-5.55-5.56,2.48-5.56,5.55c0,.48,.06,.95,.18,1.4l-70.43,31.96c9.87-5.98,19.96-13.42,29.62-22.73,10.28-9.9,29.4-28.32,39.53-59.23,3.2-9.78,5.23-20.01,6.05-30.4,4.6-31.22-4.49-50.81-4.9-51.69l-.08-.14c-1.55-2.54-2.54-5.29-2.93-8.18l-.07-.48c-.34-2.44-.69-4.97,.57-7.37,1.16-2.21,3.44-4.52,5.78-6.72l.3-.31c2.6-2.69,4.66-4.82,6.9-11.54,4.89-14.64-.75-27.66-3.36-32.49-3.57-7.71-5.3-16.22-4.99-24.59,.24-6.47,1.65-12.79,4.18-18.8,1.61-3.81,2.63-6.14,3.92-9.09,1.67-3.79,3.74-8.51,7.97-18.5,1.4-3.28,2.49-5.73,3.37-7.69,1.9-4.26,2.86-6.4,3.58-9.89,.9-4.3,2.02-9.65,1.4-16.51-.56-6.16-3.13-11.64-5.19-16.04-.44-.94-.86-1.84-1.23-2.69-.63-1.41-1.15-2.53-1.62-3.56-1.27-2.72-2.27-4.87-4.23-10.54-1.42-4.06-1.41-7.01-1.4-8.59,0-.32,0-.59-.01-.81-.09-2.25-.29-6.93,2.71-11.31,2.78-4.05,6.79-5.59,9.71-6.72,1.84-.71,2.88-.86,4.61-1.13,.92-.14,2.06-.31,3.5699-.62,5.82-1.16,12.41-2.48,17.45-6.21,4.3-3.17,7.46-8.2,9.15-14.53,.39-1.45,1.67-5.09,5.34-7.57,2.7914-1.8826,5.6691-2.2257,7.3404-2.2257,.1309,0,.2542,.0021,.3696,.0057l8.94,.25-8.37-3.15c-1.6855-.6379-4.9882-1.6355-9.1054-1.6356h0Zm-33.7657,20.0719c1.9033,0,3.9258-.1013,6.4512-.9063,2.94-.93,5.68-2.54,8.2-4.83,.8701-.87,1.59-1.8,2.35-2.78,1.85-2.4,3.77-4.88,8.26-6.81,3.0422-1.3075,5.9752-1.746,8.5487-1.746,.438,0,.8653,.0127,1.2812,.0359-.72,.34-1.45,.74-2.18,1.24-4.51,3.04-6.09,7.5-6.56,9.28-1.51,5.67-4.29,10.12-8.03,12.89-4.51,3.33-10.75,4.58-16.25,5.68-1.45,.29-2.51,.45-3.45,.6-1.79,.27-3.08,.47-5.22,1.29-3.11,1.2-7.81,3.01-11.11,7.82-3.57,5.2-3.34,10.76-3.24,13.14,.01,.18,.01,.4,.01,.67-.01,1.64-.02,5.04,1.56,9.59,2.02,5.81,3.05,8.02,4.34,10.81,.48,1.02,.99,2.12,1.6,3.51,.38,.87,.81,1.79,1.27,2.75,1.96,4.19,4.4,9.41,4.91,15.04,.58,6.42-.49,11.53-1.35,15.66-.65,3.14-1.51,5.06-3.38,9.25-.89,1.97-1.99,4.43-3.39,7.74-4.22,9.97-6.29,14.68-7.95,18.47-1.3,2.96-2.33,5.29-3.94,9.12-2.68,6.35-4.16,13.03-4.42,19.86-.32,8.84,1.5,17.82,5.3,26.04,2.47,4.57,7.72,16.67,3.21,30.2-2.03,6.07-3.79,7.89-6.22,10.41l-.25,.25c-2.48,2.34-4.96,4.86-6.33,7.46-1.7,3.25-1.25,6.54-.88,9.19l.07,.47c.4399,3.26,1.55,6.38,3.29,9.26,.32,.69,3.07,7,4.68,17.58,1.04,6.83,1.61,15.46,.74,25.51-.4-3.79-.95-8.04-1.7-12.35-1.42-8.04-3.58-16.29-6.86-22.11l-9.55-16.94c-.98-2.32-2.43-6.94-1.36-12.43,1.52-7.81,7-12.22,9.28-13.75l.11-.08c1.27-1.03,2.9301-2.84,3.64-5.58,1.28-4.92-1.55-8.84-2.36-9.83l-2.58-4.51-.07-.11c-3.55-5.08-9.53-15.72-9.64-29.88-.14-17.25,8.44-28.69,12.56-34.19,.63-.83,1.16-1.55,1.58-2.18,1.33-2.1,2.7401-4.18,4.1-6.18,2.78-4.07,5.65-8.28,8.04-13.13,4.33-9.03,5.21-14.7,4.11-26.4-.67-7.14-2.73-14-6.13-20.41-.75-1.36-1.5699-2.7-2.37-3.99-3.64-5.96-7.4-12.12-7.35-23.36,.03-8.57,2.79-15.11,3.97-17.52,1.65-3.36,5.08-10.35,12.6-14.55,7.25-4.05,15.25-4.27,15.33-4.27,.29-.005,.575-.0075,.8587-.0075s.5663,.0025,.8513,.0075c.3372,.0031,.6761,.0063,1.0189,.0063h0Zm-124.8088,426.7036v-10.69h10.68v10.69h-10.68Zm-347.19,265.82v-10.68h10.69v10.68h-10.69Zm408.54,286.13v-10.6899h10.68v10.6899h-10.68Zm-326.23,713v-10.6801h10.68v10.6801h-10.68Zm261.03,544.14l-.95-.05-3.78-.21-5.93-.3201,.47-8.72,.11-1.9399,2.19,.1199,1.32,.0701,1.1299,.0601,6.03,.3301-.47,8.5398-.1201,2.0801v.04h0Z"/></g><path class="uuid-c7467b93-5c54-46b9-87aa-732f0f4a8a7a" d="M682.2391,2777.8831c-.6787,.4959-2.2995,1.8253-2.9766,4.1282-.1031,.3508-.2978,1.1339-.2978,2.1082,0,4.1812,3.3923,7.5735,7.5736,7.5735,.8096,0,1.5885-.1281,2.3213-.3638,11.4322,16.9355,22.8593,33.8713,34.2863,50.8069,.6969,1.1837,.3484,2.5674-.4561,3.0746-.9121,.5792-2.5775,.1281-3.1873-1.3681-5.6264-6.1133-15.5572-15.2804-30.4022-21.8601-9.7105-4.3043-18.5908-6.1951-25.283-7.0611-.3126-6.7436-1.4143-15.5059-4.5555-25.278-2.1214-6.6052-4.6989-12.2009-7.174-16.7409l37.8784-25.1499c3.1822,4.0739,7.2969,8.6652,12.5134,13.236,7.7222,6.7641,15.3266,11.2528,21.3886,14.2198-1.8601,6.4821-3.6485,15.383-3.5614,26.0056,.1435,16.2387,4.617,28.993,7.9887,36.5821,1.1273,1.153,.8814,2.8644-.0102,3.4691-.784,.5379-2.1932,.3073-3.0028-.7994-10.9762-17.1715-21.9472-34.3325-32.9233-51.504,1.0914-1.3168,1.7474-3.0027,1.7474-4.8423,0-4.1815-3.3871-7.5738-7.5685-7.5738-1.0297,0-2.0262,.275-2.0262,.275-.7552,.2099-1.353,.5032-1.776,.7499-.1657,.1041-.3314,.2084-.497,.3125Z"/><path class="uuid-c7467b93-5c54-46b9-87aa-732f0f4a8a7a" d="M687.0645,2747.1918l-34.5104,22.9501c-.5391,.3585-1.246,.3368-1.7621-.054l-7.2366-5.4798c-.8356-.6328-.7968-1.901,.076-2.4814l39.4921-26.263c.8728-.5804,2.0573-.1258,2.3177,.8895l2.2549,8.7927c.1608,.6271-.0926,1.2874-.6316,1.6459Z"/></svg>