<?xml version="1.0" encoding="UTF-8"?><svg id="uuid-264e1a53-6060-4abb-a2a2-3a38ec60bcae" xmlns="http://www.w3.org/2000/svg" width="1922.0198" height="5527.0099" viewBox="0 0 1922.0198 5527.0099"><defs><style>.uuid-3c30d3a5-bdbc-44d2-a7fd-fc81a04c372e{stroke:#d81a36;stroke-width:1.162px;}.uuid-3c30d3a5-bdbc-44d2-a7fd-fc81a04c372e,.uuid-bcd2293c-fbbc-46f9-b100-b6fcab71a666,.uuid-e8153518-44c8-4f7a-ad79-1df55a9b8b7d,.uuid-f8da2a14-b0c0-4155-b928-ab6c8b0e94e7,.uuid-847504dd-102a-4845-bf15-a46dc983c2e0,.uuid-117b13d7-86b2-48e1-8216-74484b05058b,.uuid-3a53fd7b-eef5-475b-ad3f-9e347187a436,.uuid-0a3f3934-6962-45b6-baf9-55e1ea15cae7{fill:none;stroke-miterlimit:10;}.uuid-bcd2293c-fbbc-46f9-b100-b6fcab71a666{stroke:#111acc;stroke-width:1.02px;}.uuid-e33a4afd-6bc1-4312-ad57-4217a75dabd1{fill:#f09916;}.uuid-e8153518-44c8-4f7a-ad79-1df55a9b8b7d{stroke:#686500;stroke-width:1.1242px;}.uuid-cd2fd46a-d76f-467a-8084-8157ef0002f5{fill:#5a5a5a;}.uuid-ebf9c13b-cbb7-4336-81d0-87b9299d4d9c{fill:#f59916;}.uuid-f8da2a14-b0c0-4155-b928-ab6c8b0e94e7{stroke-width:6px;}.uuid-f8da2a14-b0c0-4155-b928-ab6c8b0e94e7,.uuid-847504dd-102a-4845-bf15-a46dc983c2e0,.uuid-0a3f3934-6962-45b6-baf9-55e1ea15cae7{stroke:#f59916;}.uuid-a4716293-2cef-461d-9162-7f0d9b749ac7{fill:#f39719;}.uuid-847504dd-102a-4845-bf15-a46dc983c2e0{stroke-width:4px;}.uuid-117b13d7-86b2-48e1-8216-74484b05058b{stroke:#11d352;stroke-width:.8758px;}.uuid-3a53fd7b-eef5-475b-ad3f-9e347187a436{stroke:#e528b8;stroke-width:.7523px;}.uuid-0a3f3934-6962-45b6-baf9-55e1ea15cae7{stroke-width:5px;}</style></defs><g id="uuid-7bebac69-726a-4c15-9374-0f29c21c306e"><circle class="uuid-e8153518-44c8-4f7a-ad79-1df55a9b8b7d" cx="848.1426" cy="1171.3573" r="342.0128"/><circle class="uuid-117b13d7-86b2-48e1-8216-74484b05058b" cx="1002.991" cy="1952.2576" r="418.4271"/><circle class="uuid-3c30d3a5-bdbc-44d2-a7fd-fc81a04c372e" cx="885.0363" cy="2719.9579" r="353.5128"/><circle class="uuid-bcd2293c-fbbc-46f9-b100-b6fcab71a666" cx="657.1485" cy="3352.9003" r="310.3181"/><path class="uuid-3a53fd7b-eef5-475b-ad3f-9e347187a436" d="M1089.4791,589.9642c0,64.1767-28.3925,111.8226-37.308,125.2881-41.392,62.5165-114.8227,104.6829-191.5586,103.5784-111.9665-1.6115-228.8666-95.3168-228.8666-228.8665,0-126.3996,102.4671-228.8666,228.8666-228.8666s228.8666,102.467,228.8666,228.8666Z"/><circle class="uuid-bcd2293c-fbbc-46f9-b100-b6fcab71a666" cx="650.1186" cy="3586.1681" r="77.0502"/></g><g id="uuid-da100578-d4fb-480d-9e0b-6d9275d2566a"><g id="uuid-7047dfc3-d78b-417c-b645-77d15a0c6d75"><path class="uuid-f8da2a14-b0c0-4155-b928-ab6c8b0e94e7" d="M1086.0099,600.6766c.373,13.4084-.4726,32.6859-6.3774,54.8874-7.8278,29.4321-20.6338,49.2909-27.4614,59.6883-7.5273,11.463-27.5536,39.6545-63.4536,63.9447-6.8701,4.6484-35.2725,23.3295-76.2667,33.859-31.719,8.1472-72.4048,11.7811-83.7742,12.5095-3.7364,.2394-18.1656,.9995-37.2885,4.5432-9.4439,1.7501-42.7275,8.0906-78.3692,23.1613-14.3099,6.0508-53.11,23.7036-93.4125,60.0406-37.5313,33.8384-59.5653,68.7328-71.2263,90.0688-11.112,20.3314-25.8466,52.214-34.5175,93.4445-13.3783,63.6147-5.3298,115.9633,.0884,141.4874,5.9878,28.2075,21.565,83.9718,65.0397,139.515,49.3439,63.0416,107.3993,91.0122,137.5277,105.1046,83.7923,39.1934,165.2342,42.3193,191.2743,43.079,22.7384,.6633,52.8227-.1489,104.0017,3.9106,19.238,1.526,51.1464,4.057,76.4713,8.5159,84.4719,14.8727,146.2353,60.0917,165.8155,74.7396,80.3554,60.1139,117.6039,133.2748,131.5298,164.4708,13.9565,31.2646,43.0123,106.6804,34.8298,205.3101-3.0238,36.4486-13.108,99.8706-50.9427,168.1421-15.3829,27.7578-45.6292,74.8604-98.0529,118.4949-24.5416,20.427-98.1013,76.9917-196.1371,90.9343-45.8129,6.5154-94.6779,5.5427-94.678,5.5427-22.173-.4414-38.2447-2.019-79.1265-2.6907-18.112-.2976-36.1859-.5945-48.7402-.1614-58.7712,2.0278-106.1834,23.8386-123.4901,31.9912-64.8397,30.5439-104.3115,74.1973-122.4769,97.0271-19.1908,24.1187-52.9471,73.1877-67.7156,144.3083-6.4466,31.0447-7.5575,64.5754-7.5575,64.5754-.2632,7.6387-.4042,18.4353,.2169,31.3311,2.925,60.7258,19.7378,105.4592,24.1635,116.7717,4.9789,12.7268,23.6764,58.2947,65.2412,105.9656,41.654,47.7732,88.5725,75.4575,111.8278,87.8577,35.8789,19.1313,61.4625,25.5518,103.649,56.6699,9.857,7.2708,23.3745,17.3223,38.9342,32.7407,40.9283,40.5569,60.6746,83.2571,68.0032,100.7969,22.9182,54.8503,24.8436,104.0396,23.6325,132.7737-1.1868,28.1584-6.75,69.0393-26.7387,113.6899-8.914,19.9119-26.8705,54.3643-60.1082,88.771-18.8741,19.5378-47.7636,44.3279-87.8912,63.7546-57.3557,27.7673-110.2217,31.2891-140.0533,30.9382"/><g><rect class="uuid-ebf9c13b-cbb7-4336-81d0-87b9299d4d9c" x="738.0823" y="3738.681" width="23.855" height="23.8555"/><path class="uuid-ebf9c13b-cbb7-4336-81d0-87b9299d4d9c" d="M759.4373,3741.1815v18.8547h-18.8548v-18.8547h18.8548m5-5h-28.8548v28.8547h28.8548v-28.8547h0Z"/></g><circle class="uuid-ebf9c13b-cbb7-4336-81d0-87b9299d4d9c" cx="1095.9756" cy="735.0855" r="9.131"/><path class="uuid-ebf9c13b-cbb7-4336-81d0-87b9299d4d9c" d="M967.6383,788.0921v16.8548h-16.8548v-16.8548h16.8548m6-6h-28.8548v28.8548h28.8548v-28.8548h0Z"/><path class="uuid-ebf9c13b-cbb7-4336-81d0-87b9299d4d9c" d="M514.9809,1153.7246v16.8549h-16.8548v-16.8549h16.8548m6-6h-28.8548v28.8549h28.8548v-28.8549h0Z"/><path class="uuid-ebf9c13b-cbb7-4336-81d0-87b9299d4d9c" d="M1048.1309,1524.2616v16.8547h-16.8548v-16.8547h16.8548m6-6h-28.8548v28.8547h28.8548v-28.8547h0Z"/><path class="uuid-ebf9c13b-cbb7-4336-81d0-87b9299d4d9c" d="M617.2522,2481.8212v16.8547h-16.8549v-16.8547h16.8549m6-6h-28.8549v28.8547h28.8549v-28.8547h0Z"/><path class="uuid-ebf9c13b-cbb7-4336-81d0-87b9299d4d9c" d="M933.025,3217.6629l16.6658,2.5176-2.5175,16.6655-16.6658-2.5176,2.5175-16.6655m-5.0366-6.8289l-4.3098,28.531,28.5311,4.3098,4.3098-28.531-28.5312-4.3098h0Z"/><line class="uuid-847504dd-102a-4845-bf15-a46dc983c2e0" x1="843.6551" y1="849.5699" x2="1095.9756" y2="735.0855"/><circle class="uuid-ebf9c13b-cbb7-4336-81d0-87b9299d4d9c" cx="845.2321" cy="849.5699" r="9.131"/><circle class="uuid-ebf9c13b-cbb7-4336-81d0-87b9299d4d9c" cx="505.1926" cy="1354.3242" r="9.131"/><circle class="uuid-ebf9c13b-cbb7-4336-81d0-87b9299d4d9c" cx="505.1926" cy="977.4353" r="9.131"/><line class="uuid-847504dd-102a-4845-bf15-a46dc983c2e0" x1="505.1926" y1="977.4353" x2="505.1926" y2="1354.3242"/><circle class="uuid-ebf9c13b-cbb7-4336-81d0-87b9299d4d9c" cx="895.7877" cy="1459.121" r="9.131"/><circle class="uuid-ebf9c13b-cbb7-4336-81d0-87b9299d4d9c" cx="1290.2679" cy="1564.5808" r="9.131"/><line class="uuid-847504dd-102a-4845-bf15-a46dc983c2e0" x1="895.7877" y1="1459.121" x2="1037.5655" y2="1532.689"/><line class="uuid-847504dd-102a-4845-bf15-a46dc983c2e0" x1="1028.0846" y1="1528.9356" x2="1286.4352" y2="1565.2972"/><line class="uuid-847504dd-102a-4845-bf15-a46dc983c2e0" x1="527.3403" y1="2585.4409" x2="696.6795" y2="2384.5628"/><circle class="uuid-ebf9c13b-cbb7-4336-81d0-87b9299d4d9c" cx="696.6795" cy="2384.5628" r="9.131"/><circle class="uuid-ebf9c13b-cbb7-4336-81d0-87b9299d4d9c" cx="527.3403" cy="2585.4409" r="9.131"/><circle class="uuid-ebf9c13b-cbb7-4336-81d0-87b9299d4d9c" cx="993.6991" cy="3319.5541" r="9.131"/><polyline class="uuid-847504dd-102a-4845-bf15-a46dc983c2e0" points="868.3843 3087.9035 932.2581 3205.9773 993.6991 3319.5541"/><circle class="uuid-ebf9c13b-cbb7-4336-81d0-87b9299d4d9c" cx="869.2633" cy="3088.3816" r="9.131"/></g></g><g id="uuid-4dac665a-dfae-44c5-9be3-1394bc9149a0"><path class="uuid-ebf9c13b-cbb7-4336-81d0-87b9299d4d9c" d="M599.5699,2496.6501l.83-.9802v-.1099c-.27,.3599-.55,.72-.83,1.0901Zm17.14-20.8301c-1.81,2.04-3.55,4.04-5.23,6h.59l5.06-6,5.04-5.9702c-1.89,2.02-3.71,4.0103-5.46,5.9702Z"/><path class="uuid-ebf9c13b-cbb7-4336-81d0-87b9299d4d9c" d="M1030.5699,1531.31l.71,.3699v-.27l-.71-.0999Zm0,0l.71,.3699v-.27l-.71-.0999Z"/><path class="uuid-ebf9c13b-cbb7-4336-81d0-87b9299d4d9c" d="M599.5699,2496.6501l.83-.9802v-.1099c-.27,.3599-.55,.72-.83,1.0901Zm17.14-20.8301c-1.81,2.04-3.55,4.04-5.23,6h.59l5.06-6h-.42Z"/><polygon class="uuid-ebf9c13b-cbb7-4336-81d0-87b9299d4d9c" points="1031.2799 1531.4098 1031.2799 1531.6798 1030.5699 1531.31 1031.2799 1531.4098"/><path class="uuid-ebf9c13b-cbb7-4336-81d0-87b9299d4d9c" d="M1059.0299,1531.2799c-1.64-.1901-3.27-.3701-4.9-.55v-.14l4.9,.6901Z"/><path class="uuid-ebf9c13b-cbb7-4336-81d0-87b9299d4d9c" d="M1030.5699,1531.31l.71,.3699v-.27l-.71-.0999Zm28.46-.03l29.25,4.11c-9.21-1.61-19.27-2.9601-29.25-4.11Z"/></g><g id="uuid-b278c2f3-0fd2-42f0-9de1-ffeff9ac3ac8"><g><path class="uuid-cd2fd46a-d76f-467a-8084-8157ef0002f5" d="M1322.662,285.6199c-13.4589-2.7464-26.3659-4.1377-38.3638-4.1377-37.5781,0-55.423,13.3021-58.3931,15.755-3.2881-.4546-6.5341-.6855-9.6581-.6855-3.7064,0-6.2262,.3239-7.253,.4866-12.2709-8.7577-27.8982-13.6565-46.4577-14.5628-3.2678-.1582-6.7767-.2396-10.4308-.2396-20.5987,0-40.49,2.5634-40.6875,2.5896l-.6463,.0842-.2672,.5926c-2.0957,4.6098-.9034,9.5332-.8511,9.7409l.1423,.5708,1.2011,.4909c2.0391,.8133,3.6498,1.4553,4.0927,4.8523,.045,.3456,5.1936,35.1526,13.671,42.2923,7.8049,6.5719,26.6404,7.5522,37.1743,7.5522,1.5627,0,3.092-.0218,4.5734-.061,16.1037-.4357,23.5223-7.8529,25.9593-10.2913,3.7412-3.7413,10.666-22.4765,11.825-27.8894,1.0733-5.0092,4.3207-7.6582,9.3894-7.6582,6.1318,0,7.8775,4.7099,8.0562,5.2473,.1234,.366,.3471,1.0951,.6492,2.0812,1.6673,5.4347,5.5741,18.1645,8.4556,22.571,.2629,.4023,.5257,.8177,.793,1.2403,3.2402,5.1079,7.2748,11.4648,21.0794,13.517,4.2641,.6332,8.9203,.9542,13.8394,.9542,10.0648,0,19.2538-1.3652,24.061-2.5358,7.6568-1.8619,14.1648-8.2653,16.4-13.3442,1.5642-3.5525,4.2103-17.1464,6.5704-29.609,.5185-2.7435,.9281-4.9104,1.1096-5.7193,.6071-2.7377,3.9736-3.5946,4.0026-3.6018l.9005-.2135v-9.8775l-.9368-.1916Zm-90.1604,18.2037c-.5998-6.4295,8.6081-9.5347,14.7007-11.5883,.9092-.3079,1.7486-.5911,2.4821-.8583,5.3722-1.9708,23.5905-3.6352,39.7798-3.6352,15.3223,0,21.3321,7.4186,22.4678,11.8017,1.2185,4.6998-4.3033,30.2103-8.0954,37.3922-3.3215,6.2974-23.2942,9.1294-36.4147,9.1294-11.7989,0-19.919-2.0492-26.5126-12.5221-6.1434-9.7569-7.9893-25.2142-8.4076-29.7194m-107.7816-10.2435c5.7455-3.9838,14.6193-6.0025,26.3761-6.0025,10.4119,0,20.5129,1.5381,28.1508,2.8771,13.5039,2.3688,22.1919,7.2661,23.239,13.0987,1.2548,6.9946-3.7209,22.1658-9.051,32.2087-4.6083,8.6879-20.3387,10.5121-32.7243,10.5121-.6463,0-1.2868-.0058-1.92-.0145-13.122-.1873-23.865-4.6243-28.2918-8.6661-4.3962-4.0143-7.0105-19.1158-8.4135-27.2301-1.7051-9.8455,.2426-15.1262,2.6346-16.7834"/><path class="uuid-a4716293-2cef-461d-9162-7f0d9b749ac7" d="M1253.0897,192.3494s7.2452,5.6359,15.6981,8.0499c8.4529,2.4156,31.3962,14.4904,28.9807,37.4337-2.4156,22.9433,2.4156,35.4212,13.2826,41.057,0,0-9.2576-12.0762-4.8296-28.9806,4.428-16.906-2.4156-64.805-40.2508-64.4019,0,0-5.2327,4.8296-12.8809,6.842"/><path class="uuid-a4716293-2cef-461d-9162-7f0d9b749ac7" d="M1271.6052,181.8841s58.3644,2.8172,63.5971,48.7038c5.2327,45.8866,10.867,55.1442,17.7106,64.0003,6.8421,8.8545,16.9059,37.8352,3.2203,59.1691-13.6857,21.3325-17.309,32.6026,3.2202,56.7536,20.5277,24.151,44.6788,24.9557,28.5776,48.3006-16.0997,23.3464-40.6539,36.2274-27.3713,54.3395,13.2841,18.1137,61.5847,34.2134,25.762,82.9172-35.8243,48.7052,27.7729,100.6292,52.3256,58.3645,0,0-9.6593,11.6732-25.3573,2.8186-15.6981-8.856-18.9184-28.176,7.2452-47.899,26.162-19.723,15.6981-62.3894-18.1137-79.6984-33.8103-17.3075-55.9489-23.3449-18.9184-47.0928,37.0321-23.7495,35.4212-30.9947,23.748-41.4586-11.6717-10.4654-64.8035-42.2647-48.3006-59.5723,16.5028-17.3075,41.0554-40.6538,6.842-87.7482-34.2134-47.0929-14.0873-45.0804-14.8919-68.4268-.8062-23.3449-65.2081-79.6969-79.2953-43.471"/><path class="uuid-a4716293-2cef-461d-9162-7f0d9b749ac7" d="M1297.3662,193.9594s19.3199,20.1262,14.8934,46.2898c-4.428,26.162,6.439,31.7978,17.7106,42.6648,11.2701,10.8685,10.0623,35.0196-2.4156,45.8866-12.4779,10.8685-44.2757,33.8118-12.4779,73.6595,31.7978,39.8492-2.8172,38.6414-15.6981,52.327-12.881,13.6857-55.1442,57.5598,6.8421,110.2885,61.9878,52.7286,6.0389,81.7093-12.8795,64.4019,0,0,12.4779,17.3075,39.043,5.2327,26.5666-12.0763,35.4212-51.924-9.6593-75.2704-45.0819-23.3449-63.5971-69.6346-16.5043-89.7592,47.0943-20.1261,62.7925-42.6663,40.2523-67.6221-22.5417-24.9557-14.4904-45.8866-1.2078-65.208,13.2825-19.3199,1.6094-41.8602-10.0623-56.7536-11.6732-14.8935-5.6358-32.201-5.2327-48.7038,.4016-16.5028-19.7231-35.4212-32.604-37.4337"/><path class="uuid-a4716293-2cef-461d-9162-7f0d9b749ac7" d="M1233.2661,189.8338s18.4148,.6039,26.5651-8.1502c8.1518-8.7557,21.4343-20.2265,35.3208-15.0942,0,0-3.018-22.3394-19.0187-18.7176-15.9993,3.6234-19.0188,10.2647-22.0367,21.1317-3.0194,10.8685-10.8685,18.4148-20.8304,20.8303"/><path class="uuid-a4716293-2cef-461d-9162-7f0d9b749ac7" d="M1227.8323,188.6263s13.5852-4.8296,18.1137-18.1136c4.5269-13.2826,14.7915-30.7909,30.1885-26.5652,0,0-12.0763-16.302-26.8678-2.1128-14.7931,14.1876-11.7736,16.9044-13.284,30.4896-1.509,13.5852-8.1502,16.302-8.1502,16.302"/><path class="uuid-a4716293-2cef-461d-9162-7f0d9b749ac7" d="M1213.04,180.4754s11.1697-22.6405-3.9246-38.3387c0,0,8.4529-12.9814,37.1324-1.8116,0,0-15.0942,8.4529-13.5853,19.9238,1.509,11.4724-3.0194,25.0562-10.8685,29.2834l-8.7541-9.0568Z"/><path class="uuid-a4716293-2cef-461d-9162-7f0d9b749ac7" d="M1364.1831,430.6364s.8047,22.5402-26.1636,35.4212c-26.9682,12.881-23.748,30.1885-6.842,45.4835,16.9044,15.295,17.7106,47.0943,11.2701,51.9239,0,0,6.842,7.6483,10.867,18.5153,0,0,22.1386-33.4072-6.842-62.791-28.9807-29.3837-4.8296-30.1885,16.5028-45.0819,21.334-14.8919,25.7605-32.2009,1.2078-43.471"/><path class="uuid-a4716293-2cef-461d-9162-7f0d9b749ac7" d="M1312.6615,581.5783s-16.5028,16.9059-35.4212,2.4156c-18.9184-14.4904,.4031-26.5666,.4031-26.5666,0,0-20.1261,8.0513-10.0638,30.5915,10.0638,22.5402,38.6414,23.748,57.1567,15.6981,0,0-1.6094-14.8934-12.0748-22.1386"/><path class="uuid-ebf9c13b-cbb7-4336-81d0-87b9299d4d9c" d="M1171.8975,140.6159h0c16.4297,.0018,30.1459,6.8228,34.127,16.9738,.3121,.7957,.5657,1.6252,.7609,2.4849-4.4735-4.3067-8.8196-6.1095-9.9165-6.5193-1.2958-.5443-9.1956-3.677-19.3324-3.677-13.3145,.0002-24.8651,5.3835-33.4031,15.568-12.536,14.9534-30.2112,21.1065-39.369,23.412,.5244-2.8012,1.3523-5.3912,1.8325-6.6674,4.0609-8.178,11.6906-19.747,25.0845-28.8388,8.7499-5.9395,18.5178-9.8949,29.0124-11.7529,3.7749-.6527,7.5444-.9835,11.2038-.9833m.0002-5c-3.8754-.0002-7.9098,.3396-12.0559,1.0564-7.0181,1.2425-18.7956,4.2798-30.9687,12.5429-15.7062,10.6614-23.543,24.2335-26.8618,30.9687,0,0-3.2189,8.2139-2.6639,14.8739,0,0,29.5257-3.6259,48.6175-26.3992,9.1695-10.9377,20.3881-13.7801,29.5715-13.7802,9.9374-.0002,17.492,3.3278,17.492,3.3278,0,0,8.7879,2.9484,14.087,13.3199l1.6749,2.6639c2.788-9.3208,1.0059-15.5777-.111-18.4258-4.6968-11.9758-19.7844-20.1472-38.7816-20.1482h0Z"/><path class="uuid-e33a4afd-6bc1-4312-ad57-4217a75dabd1" d="M1180.1534,165.575c3.7328,0,7.1691,.7647,10.2134,2.273,6.7477,3.3429,10.3244,9.8089,12.0617,14.2107-.0317,.0359-.0667,.0735-.1055,.1137-.5743,.594-2.1439,1.7529-6.2026,2.8408-1.8055,.484-3.7697,.7294-5.8378,.7294-4.8328,0-8.7512-1.3387-9.3022-1.5359-4.097-1.7896-8.3983-2.6969-12.7867-2.6969l-.2962,.0014c-9.753,.0922-16.8751,4.7036-20.2525,7.4442l-.3137,.2545-.2688,.3016c-3.5369,3.9692-7.5651,7.4298-11.9727,10.2856-8.0819,5.2365-17.6027,8.4775-27.5333,9.3728l-.2736,.0246-.2692,.0545c-8.2393,1.6672-16.0518,5.2885-22.5932,10.4724-.2413,.1912-.4794,.3833-.7147,.5765,.7581-1.1716,1.6018-2.3403,2.54-3.4955,9.1872-11.312,21.4185-14.0342,26.2889-14.6848,6.8749-.972,13.4993-3.0385,19.6893-6.142,6.9496-3.4843,13.1484-8.1636,18.4243-13.9079l.1599-.1741,.1428-.1884c7.6535-10.1002,18.5703-16.1302,29.2024-16.1302m0-5c-11.4833,0-24.1786,6.2215-33.1875,18.1105-3.2709,3.5613-8.8183,8.7269-16.9828,12.8204-7.1286,3.5741-13.647,5.0245-18.1483,5.6609-3.2747,.4373-18.3663,2.8115-29.4702,16.4833-10.6674,13.1344-10.3297,27.677-10.1564,31.1351,1.5624-4.203,5.6701-13.4996,15.3178-21.1453,8.0305-6.3641,16.1522-8.6148,20.4793-9.4904,6.6076-.5957,18.1207-2.587,29.8032-10.1564,5.6528-3.6626,9.9074-7.6995,12.9869-11.1553,2.0579-1.6698,8.2518-6.2428,17.1493-6.3269,.083-.0008,.1664-.0012,.2489-.0012,4.794,0,8.5972,1.3107,10.9066,2.3322,0,0,4.8826,1.9007,11.1823,1.9007,2.2495,0,4.6791-.2422,7.1324-.8998,9.3239-2.4993,9.9899-6.1622,10.3229-7.8272-1.2377-3.6365-5.234-13.7345-15.1514-18.6478-3.7791-1.8722-8.0166-2.7927-12.433-2.7927h0Z"/><path class="uuid-ebf9c13b-cbb7-4336-81d0-87b9299d4d9c" d="M1128.3015,250.4498c-.3639,.1728-.7527,.3372-1.1677,.4915-10.0136,3.7236-12.2252,13.3636-11.894,20.5599l-5.6525,1.4215c-3.1318-3.3456-4.2128-7.8846-2.7428-12.0805,1.8177-5.1883,7.1804-8.8334,13.3441-9.0703l.0478-.0018,.0477-.0027c2.7396-.1578,5.408-.5928,7.9333-1.2936l.0841-.024m10.0098-9.8809c-8.3763,4.2393-11.4327,5.0874-11.4329,5.0874-1.5146,.4203-3.8485,.9445-6.8819,1.1192-8.2195,.3159-15.3777,5.2974-17.8708,12.4133-2.4176,6.9005-.0006,14.5303,6.105,19.2306,4.1809-1.0514,8.3619-2.1028,12.5428-3.1542,0,0-3.663-15.2623,8.1029-19.6375,11.7656-4.3751,9.435-15.0585,9.4349-15.0588h0Z"/><path class="uuid-ebf9c13b-cbb7-4336-81d0-87b9299d4d9c" d="M1113.432,365.7163c4.6689,10.1335,9.8022,26.7845,5.9835,46.2706-2.1276,10.8566-7.0696,18.141-12.3019,25.8531-1.5385,2.2677-3.1294,4.6126-4.6783,7.0872l-.048,.0767-.0452,.0784c-2.7905,4.8389-4.819,8.3565-7.0484,14.0641l-4.8722-14.5417,4.2303-5.8244,5.7442-7.9087,.1876-.2582,.1532-.28c.3394-.6203,1.0802-1.6242,1.8644-2.687,3.8246-5.1832,10.226-13.8582,9.3964-27.815-.3676-6.184-2.2186-12.2824-5.3828-17.7924l5.9431-14.23,.874-2.0928m-.5982-11.5417c-3.9404,9.4349-7.8809,18.8698-11.8214,28.3047,2.0384,3.0738,5.4948,9.2515,5.994,17.6488,.9116,15.3358-8.2417,23.393-10.6559,27.8052-3.8295,5.2725-7.6589,10.5449-11.4883,15.8173,3.6075,10.7669,7.2149,21.5338,10.8224,32.3007,.7573-4.1962,2.0152-9.2682,4.1625-14.8184,2.1271-5.4981,3.9944-8.742,6.8264-13.6529,6.8558-10.9522,14.6741-19.4524,17.6488-34.6316,5.8744-29.9757-8.0848-53.5015-11.4884-58.7739h0Z"/><path class="uuid-0a3f3934-6962-45b6-baf9-55e1ea15cae7" d="M1069.8217,570.2338c-4.292-7.6219-8.5839-15.2438-12.8759-22.8658-1.159-2.6957-3.6507-9.5109-1.998-17.9818,2.3618-12.1051,11.4079-18.4735,13.3199-19.7578,.976-.793,3.2987-2.9071,4.2179-6.4379,1.5937-6.121-2.4529-11.0354-2.886-11.5439-1.184-2.072-2.368-4.1439-3.552-6.216-3.9066-5.5858-13.1568-20.4218-13.3198-41.2915-.2141-27.4137,15.4778-44.2162,19.3138-49.9495,5.402-8.5839,11.4884-16.2058,16.2058-25.7517,5.439-11.3497,6.82-18.5762,5.3279-34.4097-1.1301-11.9927-5.0948-21.1717-7.9919-26.6397-5.5499-9.9899-13.3937-18.6453-13.3198-37.7396,.0494-12.7738,4.3869-22.0513,5.5499-24.4197,2.282-4.6475,7.1058-14.4715,17.7598-20.4238,10.3277-5.77,21.5336-5.9939,21.5337-5.9939,3.7361-.0747,7.0641,.3796,11.7659-1.11,4.6341-1.4681,8.0224-4.0069,10.2119-5.9939,3.8849-3.885,5.8608-9.4448,14.8739-13.3198,11.302-4.8591,21.5365-1.2789,23.7537-.444-1.7682-.0494-6.6819,.0472-11.5439,3.3299-5.8512,3.9505-7.5864,9.7869-7.9919,11.3219-2.9738,11.1614-8.6502,16.2874-11.5439,18.4258-6.4217,4.7455-14.933,6.4488-22.6438,7.9919-5.7002,1.1407-7.2233,.8642-11.3219,2.4419-4.0492,1.5588-9.9044,3.8128-13.9859,9.7679-4.4134,6.4393-4.1237,13.3698-3.996,16.4278,.0722,1.7281-.3717,6.3872,1.998,13.2089,3.663,10.5449,4.8288,12.0777,7.9209,19.0918,2.823,6.4038,7.5914,14.8759,8.466,24.5326,.8103,8.9465-.6611,15.9645-1.846,21.6399-1.3521,6.4763-3.2574,9.15-9.2129,23.2018-10.0256,23.6551-10.9915,25.2253-15.9838,37.0736-2.4102,5.72-5.3546,14.6881-5.7719,25.9737-.577,15.6019,3.9701,27.6759,6.8819,33.9656,2.071,3.8417,11.2322,21.8146,4.44,42.1796-2.9754,8.9211-5.634,11.4428-9.2129,15.1514-3.3936,3.1966-6.4478,6.3391-8.1029,9.4904-2.1194,4.0353-1.3777,8.1655-.888,11.7658,.7246,5.3276,2.7431,9.3533,4.218,11.7659,0,0,18.225,30.3352,8.5794,77.6467,0,0-4.9432-43.8493-16.3493-64.1048Z"/><path class="uuid-ebf9c13b-cbb7-4336-81d0-87b9299d4d9c" d="M1105.7132,489.4713c4.6319,2.6731,10.0175,7.0006,13.7209,13.7843,.5408,.9904,5.2496,9.9766,4.0819,20.3547-.3018,2.6823-.7151,6.3558-3.0758,9.6127-.5201,.7175-.9721,1.1904-1.7927,2.0487-.5728,.5991-1.2856,1.3448-2.2102,2.3757-.7065,.7878-1.3552,1.4689-1.9825,2.1275-2.0582,2.1608-4.0023,4.2018-5.5339,7.6939l-.0656,.1495-.0557,.1534c-3.5494,9.7827-4.4792,20.106-2.6179,29.0681,1.9552,9.4139,6.6956,16.3221,13.3479,19.4521,2.8878,1.3587,6.2843,2.077,9.8221,2.077,5.5919,0,11.1818-1.744,15.7972-4.9201-1.953,3.7943-4.779,6.9314-8.3282,8.9657-2.8958,1.6597-6.1603,2.5013-9.7031,2.5013-8.3478,0-15.606-4.5166-16.4062-5.0316-16.8947-10.8738-14.6765-36.455-14.0602-41.4727,1.1519-9.3801,4.9881-18.526,11.0963-26.4557,1.955-2.3671,5.1212-7.2592,4.9227-13.9291-.1877-6.3046-3.3782-12.2009-8.5597-16.1618,.6651-2.4597,1.1267-4.9711,1.3781-7.5045,.1614-1.627,.2362-3.2587,.2247-4.889m-5.8662-8.092c.6288,3.0269,1.1755,7.3509,.666,12.4874-.4114,4.1477-1.3893,7.5924-2.3309,10.1564,5.6359,2.8571,9.3153,8.2713,9.4904,14.1524,.1659,5.5739-2.8771,9.5142-3.8295,10.6559-3.7526,4.8574-10.4258,14.8952-12.1544,28.9707-.4865,3.9616-3.6648,33.4258,16.3168,46.2865,1.0248,.6596,9.3304,5.8272,19.1123,5.8272,3.9501,0,8.139-.8417,12.1894-3.1633,11.0633-6.3411,16.6851-21.2036,12.6539-36.2966,.02,.9319,.0626,11.9395-9.3239,18.6478-4.0262,2.8774-8.8256,4.2652-13.2853,4.2652-2.7877,0-5.4423-.542-7.6935-1.6012-10.5117-4.9458-14.9849-23.4763-8.1584-42.2905,1.5609-3.559,3.5685-5.0443,6.6599-8.4915,2.2532-2.5126,3.1557-3.2097,4.329-4.8284,3.1335-4.3232,3.6541-8.9496,3.996-11.9879,1.3504-12.0015-4.091-22.264-4.662-23.3098-7.4359-13.6204-20.5806-18.3675-23.9757-19.4803h0Z"/><path class="uuid-ebf9c13b-cbb7-4336-81d0-87b9299d4d9c" d="M1062.8846,287.0176c1.5806,5.3143,3.5046,10.5249,5.7551,15.5786,2.3506,5.2784,4.0853,8.2188,5.6158,10.8129,1.2963,2.1971,2.3201,3.9325,3.4997,6.7391,7.4723,17.7789,2.8132,35.64,2.6113,36.3915-4.8319,17.9774-17.0048,29.6725-21.2875,32.6619l-.1558,.1088-.1471,.1202c-16.2731,13.304-24.1114,21.4828-25.6801,38.9433-1.7648,19.6443,7.2596,32.1225,11.0198,36.3999,.1273,2.5769,.4932,5.1361,1.0925,7.6388-3.8348-2.489-7.3812-5.3994-10.5283-8.6587l-.1713-.1773c-4.5811-4.7426-14.1136-14.6113-15.26-28.0755-1.9464-22.8594,21.8833-39.2245,22.1242-39.3871l.2457-.1659,.2244-.1937c4.1681-3.5987,9.9008-9.8347,13.541-19.1067,2.7834-7.0898,3.8741-14.8513,3.15-22.4853-1.1727-11.3951-1.8362-22.8391-1.9721-34.0141-.1553-12.7675,.4343-17.3423,1.6516-21.752,1.0879-3.9408,2.6502-7.7437,4.671-11.3786m2.1642-11.9297c-3.7148,4.4626-8.8528,11.8273-11.6549,21.9778-1.3322,4.8261-1.9942,9.7668-1.8315,23.1433,.1047,8.6088,.5469,20.364,1.998,34.4651,.3677,3.8773,.5692,11.487-2.8304,20.1462-3.5417,9.0213-9.1889,14.5891-12.1544,17.1494-1.3492,.9107-26.4824,18.4268-24.3088,43.9555,1.3124,15.4138,11.9728,26.2855,16.8163,31.3018,8.9307,9.2491,18.5579,13.7192,24.1422,15.8173-1.6343-2.4542-3.7152-6.2106-4.9949-11.1554-.9202-3.5557-1.1642-6.7139-1.1655-9.1573-1.7077-1.5713-12.8264-13.4573-10.9889-33.9102,1.3851-15.4181,8.0474-22.5883,23.8647-35.5197,4.641-3.2394,17.9244-15.6339,23.2543-35.4641,.4262-1.5859,5.2277-20.4536-2.8305-39.6266-2.767-6.5837-4.9118-8.1151-9.1574-17.6488-4.6234-10.3821-6.9328-19.4638-8.1584-25.4742h0Z"/><path class="uuid-ebf9c13b-cbb7-4336-81d0-87b9299d4d9c" d="M1032.8871,485.4211c3.2337,3.5075,6.9452,6.5161,11.069,8.9688,1.659,.9868,3.3652,1.8719,5.1133,2.6535-5.3998,4.2226-11.2296,10.8745-13.2287,20.6889-2.1247,10.431,.9872,17.0647,3.2593,21.9084,.6506,1.3869,1.2125,2.5847,1.502,3.5773l.0803,.2751,.1112,.2642c3.0735,7.304,4.6598,14.954,4.7146,22.7376,.1049,14.9019-5.4153,26.5181-10.0646,33.6388l-.0286,.0438-.0276,.0443c-2.4233,3.8865-11.5949,16.7765-27.8744,19.4683-1.658,.2741-4.4329,.7329-7.8049,.7329-7.1389,0-13.2531-2.0521-18.1727-6.0992-.993-.8169-1.8912-1.675-2.7042-2.561,5.6407,3.0787,11.9601,4.7874,18.4235,4.7874,1.5312,0,3.0757-.0961,4.5908-.2857,20.1837-2.5256,29.3231-20.3026,30.2987-22.3213l.0791-.1637,.067-.169c3.9361-9.9263,5.9218-20.1847,5.902-30.4904-.0286-14.8978-4.2922-27.2178-6.8312-33.2357-2.159-5.1175-4.0546-8.2017-5.5778-10.6799-1.8885-3.0728-2.9288-4.7653-3.6498-8.8844-.6194-3.5388-2.2647-12.9391,3.3575-19.6926,2.1901-2.6308,4.9297-4.2326,7.3961-5.2066m1.6371-5.7624c-2.8893,.7218-8.5781,2.6074-12.8759,7.7699-7.104,8.5334-5.1489,19.7035-4.4399,23.7537,1.5455,8.8293,4.834,9.4774,9.5459,20.6458,1.8346,4.3484,6.4091,16.2745,6.4379,31.3017,.0122,6.3439-.7792,16.6067-5.5499,28.6377-.5742,1.1881-8.7092,17.3199-26.4177,19.5358-1.325,.1658-2.6497,.247-3.97,.247-12.7175,0-24.9313-7.5461-31.1057-19.7828,.0337,2.2801,.4843,16.7716,12.2098,26.4177,7.1497,5.8817,15.1785,7.2379,21.3491,7.2379,3.7821,0,6.8672-.5099,8.6206-.7999,19.3527-3.2,29.5226-18.9026,31.3016-21.7559,3.5433-5.4268,11.0038-18.5117,10.8779-36.4076-.0755-10.7228-2.8472-19.274-5.106-24.6417-1.554-5.3279-7.0742-11.2452-4.6619-23.0878,3.3845-16.6161,19.7062-22.7527,20.6458-23.0878-3.5154-.6313-8.9931-2.0522-14.8738-5.55-5.8884-3.5023-9.7549-7.644-11.9879-10.4339h0Z"/></g></g></svg>