<?xml version="1.0" encoding="UTF-8"?><svg id="uuid-5031a225-7ebf-42b8-bd05-fdf36324c189" xmlns="http://www.w3.org/2000/svg" width="315.3176" height="341.2649" viewBox="0 0 315.3176 341.2649"><defs><style>.uuid-b902d201-e5cd-4fae-b2ab-7402183cdef0{fill:#5a5a5a;}.uuid-aa37e10b-30e3-415f-a0e6-1d5828fbd3ac{fill:#f59916;}.uuid-9e9bb86d-529e-4487-88e8-5737603c1771{fill:#f39719;}</style></defs><path class="uuid-b902d201-e5cd-4fae-b2ab-7402183cdef0" d="M239.327,98.7178c-9.267-1.891-18.154-2.849-26.415-2.849-25.874,0-38.161,9.159-40.206,10.848-2.264-.313-4.499-.472-6.65-.472-2.552,0-4.287,.223-4.994,.335-8.449-6.03-19.209-9.403-31.988-10.027-2.25-.1089-4.666-.165-7.182-.165-14.183,0-27.879,1.765-28.015,1.783l-.445,.058-.184,.408c-1.443,3.174-.622,6.564-.586,6.707l.098,.393,.827,.338c1.404,.56,2.513,1.002,2.818,3.341,.031,.238,3.576,24.204,9.413,29.12,5.374,4.525,18.343,5.2,25.596,5.2,1.076,0,2.129-.015,3.149-.042,11.088-.3,16.196-5.407,17.874-7.086,2.576-2.576,7.344-15.476,8.142-19.203,.739-3.449,2.975-5.273,6.465-5.273,4.222,0,5.424,3.243,5.547,3.613,.085,.252,.239,.754,.447,1.433,1.148,3.742,3.838,12.507,5.822,15.541,.181,.277,.362,.563,.546,.854,2.231,3.517,5.009,7.894,14.514,9.307,2.936,.436,6.142,.657,9.529,.657,6.93,0,13.257-.94,16.567-1.746,5.272-1.282,9.753-5.691,11.292-9.188,1.077-2.446,2.899-11.806,4.524-20.387,.357-1.889,.639-3.381,.764-3.938,.418-1.885,2.736-2.475,2.756-2.48l.62-.147v-6.801l-.645-.132Zm-62.079,12.534c-.413-4.427,5.927-6.565,10.122-7.979,.626-.212,1.204-.407,1.709-.591,3.699-1.357,16.243-2.503,27.39-2.503,10.55,0,14.688,5.108,15.47,8.126,.839,3.236-2.963,20.801-5.574,25.746-2.287,4.336-16.039,6.286-25.073,6.286-8.124,0-13.715-1.411-18.255-8.622-4.23-6.718-5.501-17.361-5.789-20.463m-74.212-7.053c3.956-2.743,10.066-4.133,18.161-4.133,7.169,0,14.124,1.059,19.383,1.981,9.298,1.631,15.28,5.003,16.001,9.019,.864,4.816-2.562,15.262-6.232,22.177-3.173,5.982-14.004,7.238-22.532,7.238-.445,0-.886-.004-1.322-.01-9.035-.129-16.432-3.184-19.48-5.967-3.027-2.764-4.827-13.162-5.793-18.749-1.174-6.779,.167-10.415,1.814-11.556"/><path class="uuid-9e9bb86d-529e-4487-88e8-5737603c1771" d="M191.4874,37.8605s4.835,3.761,10.476,5.372c5.641,1.612,20.952,9.67,19.34,24.981s1.612,23.638,8.864,27.399c0,0-6.178-8.059-3.223-19.34,2.955-11.282-1.612-43.247-26.861-42.978,0,0-3.492,3.223-8.596,4.566"/><path class="uuid-9e9bb86d-529e-4487-88e8-5737603c1771" d="M203.8436,30.8767s38.949,1.88,42.441,32.502,7.9123,36.3442,11.819,42.71c10.4051,16.9548,11.8289,26.2834,2.149,39.486-10.0009,13.6403-11.551,21.757,2.149,37.874,13.699,16.117,29.816,16.654,19.071,32.233-10.744,15.58-27.8417,25.856-21.892,39.6135,6.417,14.8379,39.8458,9.5302,20.818,36.5524-23.2301,32.9902,18.534,67.154,34.919,38.949,0,0-6.446,7.79-16.922,1.881-10.476-5.91-12.625-18.803,4.835-31.965,17.459-13.162,8.9247-23.5764-12.088-37.7549-19.1961-12.9527-29.5534-16.78-8.4981-31.1045,24.2737-16.5141,20.2344-24.04,12.4445-31.023-7.789-6.984-38.1241-29.3389-27.1111-40.8889,11.013-11.55,21.5528-22.9626-1.2792-54.3906-22.832-31.427-9.401-30.084-9.938-45.664-.538-15.579-43.516-53.185-52.917-29.01"/><path class="uuid-9e9bb86d-529e-4487-88e8-5737603c1771" d="M221.0349,38.9349s12.893,13.431,9.939,30.8911c-2.955,17.459,4.297,21.22,11.819,28.472,7.521,7.253,6.715,23.37-1.612,30.622-8.327,7.253-29.547,22.564-8.327,49.156,21.22,26.593-1.88,25.787-10.476,34.92s-36.8,38.412,4.566,73.6c41.367,35.188-.4019,51.8225-13.0269,40.2725,0,0,8.327,11.55,26.055,3.492,17.729-8.059,28.0699-31.9455-2.0141-47.5255-30.085-15.579-42.441-46.47-11.014-59.9,31.428-13.431,41.904-28.473,26.862-45.127-15.043-16.654-9.67-30.622-.806-43.516,8.864-12.893,1.074-27.935-6.715-37.874-7.79-9.939-3.761-21.489-3.492-32.502,.268-11.013-13.162-23.638-21.758-24.981"/><path class="uuid-9e9bb86d-529e-4487-88e8-5737603c1771" d="M178.2583,36.1818s12.289,.403,17.728-5.439c5.44-5.843,14.304-13.498,23.571-10.073,0,0-2.014-14.908-12.692-12.491-10.677,2.418-12.692,6.85-14.706,14.1021-2.015,7.253-7.253,12.2889-13.901,13.9009"/><path class="uuid-9e9bb86d-529e-4487-88e8-5737603c1771" d="M174.6321,35.376s9.066-3.223,12.088-12.088c3.021-8.864,9.871-20.548,20.146-17.728,0,0-8.059-10.879-17.93-1.41-9.872,9.468-7.857,11.281-8.865,20.347-1.007,9.066-5.439,10.879-5.439,10.879"/><path class="uuid-9e9bb86d-529e-4487-88e8-5737603c1771" d="M164.7606,29.9365s7.454-15.1089-2.619-25.585c0,0,5.641-8.663,24.78-1.209,0,0-10.073,5.641-9.066,13.296,1.007,7.656-2.015,16.721-7.253,19.542l-5.842-6.044Z"/><path class="uuid-9e9bb86d-529e-4487-88e8-5737603c1771" d="M265.6246,196.8792s.537,15.042-17.46,23.638c-17.997,8.596-20.1465,22.1059-8.8645,32.3129,11.281,10.207,16.1175,29.4681,11.8195,32.6911,0,0,4.566,5.104,7.252,12.356,0,0,14.774-22.294-4.566-41.903-19.34-19.609-3.223-20.146,11.013-30.085,14.237-9.938,17.191-21.489,.806-29.01"/><path class="uuid-9e9bb86d-529e-4487-88e8-5737603c1771" d="M231.2421,297.609s-11.013,11.282-23.638,1.612c-12.625-9.67,.269-17.729,.269-17.729,0,0-13.431,5.373-6.716,20.415,6.716,15.042,25.787,15.848,38.143,10.476,0,0-1.074-9.939-8.058-14.774"/><path class="uuid-aa37e10b-30e3-415f-a0e6-1d5828fbd3ac" d="M137.3045,3h0c11.1015,.0012,20.3808,4.6391,23.0878,11.5411,.343,.8745,.583,1.8076,.7201,2.7892-3.2076-3.4052-6.5199-4.7682-7.2697-5.0465-.8291-.349-6.0538-2.4292-12.7751-2.4292-8.7825,0-16.4015,3.551-22.0332,10.2687-8.659,10.3287-20.9559,14.4094-26.9505,15.8576,.3448-2.0995,.9809-4.1,1.3337-5.0339,2.7261-5.4948,7.8531-13.2757,16.8599-19.3895,5.8787-3.9905,12.4411-6.6479,19.4929-7.8964,2.5381-.4388,5.073-.6613,7.5342-.6611M137.3047,0c-2.5862-.0002-5.2785,.2266-8.0454,.705-4.6835,.8292-12.5431,2.856-20.6667,8.3704-10.4814,7.1148-15.7112,16.172-17.9259,20.6667,0,0-2.1482,5.4815-1.7778,9.9259,0,0,19.7037-2.4197,32.4445-17.6172,6.1192-7.2992,13.6058-9.196,19.7343-9.1961,6.6316,0,11.6731,2.2208,11.6731,2.2208,0,0,5.8645,1.9676,9.4008,8.8889l1.1177,1.7778c1.8605-6.2202,.6713-10.3956-.0741-12.2963C160.0508,5.4538,149.9822,.0007,137.3047,0h0Z"/><path class="uuid-aa37e10b-30e3-415f-a0e6-1d5828fbd3ac" d="M142.814,19.6562c2.5434,0,4.8868,.5221,6.9653,1.5518,4.671,2.3141,7.107,6.8074,8.266,9.7972-.3782,.6015-1.4163,1.4612-4.4888,2.2848-1.2332,.3306-2.5733,.4982-3.983,.4982-3.3026,0-5.9747-.92-6.3334-1.0491-2.6942-1.1783-5.5222-1.7756-8.4076-1.7756l-.1944,.0009c-6.4064,.0606-11.0867,3.0914-13.3064,4.8926l-.1882,.1527-.1612,.1809c-2.3805,2.6714-5.0916,5.0005-8.0582,6.9226-5.4391,3.5241-11.8456,5.7053-18.5269,6.3076l-.1641,.0148-.1615,.0327c-5.4467,1.1021-10.6111,3.4959-14.935,6.9225-.7205,.571-1.4008,1.1557-2.0428,1.7498,.7542-1.394,1.673-2.7981,2.7904-4.1739,6.2071-7.6426,14.4704-9.4818,17.7579-9.9208,4.5516-.6435,8.9375-2.0117,13.0357-4.0664,4.6011-2.3068,8.7051-5.4049,12.1982-9.208l.0959-.1045,.0857-.113c5.1707-6.8238,12.5563-10.8977,19.7563-10.8977m0-3c-7.6632,0-16.1354,4.1519-22.1474,12.0858-2.1828,2.3766-5.8848,5.8239-11.3333,8.5556-4.7572,2.3851-9.1072,3.3531-12.1111,3.7778-2.1853,.2918-12.2566,1.8762-19.6667,11-7.1188,8.7651-6.8935,18.47-6.7778,20.7778,1.0427-2.8048,3.7839-9.0088,10.2222-14.1111,5.3591-4.247,10.779-5.749,13.6667-6.3333,4.4095-.3975,12.0927-1.7264,19.8889-6.7778,3.7723-2.4442,6.6116-5.1382,8.6667-7.4444,1.3733-1.1144,5.5068-4.1661,11.4444-4.2222,.0554-.0005,.111-.0008,.166-.0008,3.1992,0,5.7373,.8747,7.2784,1.5563,0,0,3.2584,1.2684,7.4625,1.2684,1.5012,0,3.1226-.1616,4.7598-.6005,6.2222-1.6679,6.6667-4.1123,6.8889-5.2234-.826-2.4268-3.4929-9.1656-10.1111-12.4444-2.5219-1.2494-5.3498-1.8636-8.2971-1.8636h0Z"/><path class="uuid-aa37e10b-30e3-415f-a0e6-1d5828fbd3ac" d="M109.6686,74.3925c-.6851,.8816-1.7552,1.7208-3.4105,2.3363-6.6088,2.4576-7.9255,8.9555-7.6151,13.6423l-4.4043,1.1075c-2.3553-2.3744-3.1901-5.6791-2.1207-8.7314,1.2756-3.6408,5.0232-6.1981,9.3255-6.3635l.0275-.0011,.0275-.0016c1.7952-.1034,3.5432-.3883,5.1995-.8479,.1445-.0403,1.0304-.3012,2.9705-1.1407m3.8869-5.0209c-5.5898,2.8291-7.6295,3.3951-7.6296,3.3951-1.0108,.2805-2.5683,.6303-4.5926,.7469-5.4852,.2108-10.2622,3.5352-11.9259,8.2839-1.6134,4.605-.0004,9.6966,4.0741,12.8333,2.7901-.7016,5.5802-1.4033,8.3704-2.1049,0,0-2.4444-10.1852,5.4074-13.1049,7.8517-2.9197,6.2963-10.0491,6.2963-10.0494h0Z"/><path class="uuid-aa37e10b-30e3-415f-a0e6-1d5828fbd3ac" d="M98.2699,152.7252c3.2145,6.7273,6.9956,18.2306,4.3416,31.7733-1.433,7.3125-4.7498,12.2013-8.2614,17.3772-1.025,1.5108-2.0849,3.073-3.1153,4.7191l-.0288,.0461-.0271,.0471c-1.8851,3.269-3.2471,5.6308-4.7546,9.5273-.0886,.2289-.1756,.4583-.2612,.6886l-.4852-1.4481-3.1201-9.3123,6.7584-9.305,.1125-.155,.0919-.168c.2374-.4339,.7383-1.1128,1.2687-1.8315,2.5252-3.4222,6.7517-9.15,6.2053-18.3421-.2454-4.1284-1.4947-8.2-3.631-11.8694l4.9062-11.7472m-.3811-6.872c-2.6296,6.2963-5.2593,12.5926-7.8889,18.8889,1.3603,2.0513,3.6669,6.1739,4,11.7778,.6083,10.2342-5.5,15.6111-7.1111,18.5556-2.5556,3.5185-5.1111,7.037-7.6667,10.5555,2.4074,7.1852,4.8148,14.3704,7.2222,21.5556,.5054-2.8002,1.3449-6.185,2.7778-9.8889,1.4195-3.6691,2.6657-5.8339,4.5555-9.1111,4.5752-7.3088,9.7926-12.9814,11.7778-23.1111,3.9202-20.004-5.3953-35.7037-7.6667-39.2222h0Z"/><path class="uuid-aa37e10b-30e3-415f-a0e6-1d5828fbd3ac" d="M128.9473,43.8081c-2.3715,2.6223-3.3474,5.4638-3.698,6.7912-1.2561,4.7145-3.5341,8.3993-6.5878,10.6559-3.7472,2.7692-8.9171,3.8038-13.9169,4.8044-1.2562,.2514-2.1894,.3937-3.0127,.5192-1.6454,.2509-2.945,.4491-5.032,1.2524-2.7974,1.0769-7.4794,2.8792-10.73,7.6221-3.5097,5.1209-3.2853,10.4911-3.1895,12.7842,.0058,.1402,.0039,.3167,.0033,.5279-.0047,1.5598-.0144,4.8052,1.4935,9.1461,1.8376,5.29,2.7732,7.3039,3.9577,9.8535,.4301,.9258,.8748,1.883,1.417,3.113,.3479,.7891,.7386,1.6242,1.1495,2.5016,1.7936,3.8301,3.8265,8.1712,4.2576,12.9305,.4991,5.5107-.3905,9.7716-1.1808,13.5574-.552,2.6439-1.2469,4.1982-2.9256,7.9531-.795,1.7783-1.7844,3.9914-3.0481,6.9729-3.7879,8.9374-5.64,13.155-7.1283,16.5439-1.168,2.6596-2.0905,4.7604-3.5409,8.2025-2.4769,5.8785-3.8514,12.0649-4.0852,18.3873-.303,8.1921,1.3804,16.5043,4.8681,24.0379l.0384,.0828,.0433,.0804c2.1091,3.9124,6.5999,14.2559,2.7578,25.7754-1.6958,5.0844-3.0873,6.5229-5.1935,8.7003l-.2171,.2246c-2.3121,2.1806-4.6272,4.5455-5.955,7.0737-1.9449,3.7031-1.3115,7.3483-.8924,9.7604,.4019,2.3128,1.0544,3.7306,1.6854,5.1018,.4276,.9292,.8315,1.8068,1.2071,3.0833,.9002,3.0591,1.5118,6.2112,1.8179,9.3685,.0366,.3778,.069,.7559,.097,1.1342-.4695-1.1865-.9629-2.3633-1.4796-3.5286-2.0025-4.5164-3.9588-7.6933-6.03-11.0567-.8388-1.3621-1.7052-2.769-2.6172-4.3322-.8055-1.9299-1.9372-5.6703-1.0768-10.0799,1.2818-6.5699,6.1544-10.2867,7.6172-11.2694l.1131-.076,.1058-.0859c1.8797-1.5273,3.2385-3.6115,3.8262-5.8688,1.2995-4.991-1.397-8.9622-2.3475-10.1635l-1.0621-1.8586-1.1852-2.0741-.0679-.1188-.0784-.1121c-3.0764-4.3987-8.2517-13.6075-8.3474-25.8596-.1164-14.9076,7.3468-24.8638,10.9335-29.6484,.5752-.7673,1.0719-1.43,1.4488-1.9933l.0233-.0349,.0224-.0355c1.1725-1.8633,2.4303-3.7092,3.6466-5.4944,2.5208-3.6997,5.1273-7.5253,7.3345-11.9922,3.9863-8.3184,4.847-13.8229,3.8369-24.5409-.6237-6.619-2.5311-12.9781-5.6692-18.9009l-.014-.0263-.0145-.026c-.6918-1.2453-1.4357-2.4625-2.1551-3.6396-3.2879-5.3798-6.3934-10.4612-6.3563-20.0771,.0284-7.34,2.3848-12.9251,3.3966-14.9857,1.4053-2.8619,4.3294-8.8171,10.6222-12.3329,6.0407-3.3748,12.7439-3.6128,12.9681-3.6196,.2019-.0041,.4017-.0055,.6005-.0055,.2957,0,.589,.0032,.882,.0063,.3135,.0033,.6267,.0066,.9419,.0066,1.8028,0,3.8105-.1075,6.2726-.8875,2.8685-.9088,5.5348-2.4693,7.925-4.6384l.0538-.0488,.0514-.0514c.8556-.8556,1.562-1.7714,2.2452-2.6571,1.6011-2.0756,3.1134-4.0359,6.7443-5.597,.7906-.3399,1.6014-.6195,2.4291-.8382m4.5588-3.5848c-2.4378,0-5.2519,.4111-8.1728,1.6669-6.0148,2.5859-7.3333,6.2963-9.9259,8.8889-1.4611,1.326-3.7223,3.0203-6.8148,4-2.0752,.6574-3.7494,.7474-5.3666,.7474-.6098,0-1.2118-.0128-1.8238-.0128-.219,0-.439,.0016-.6614,.0061-.0001,0-7.4783,.1494-14.3704,4-7.1098,3.9722-10.329,10.5282-11.8518,13.6296-.7761,1.5806-3.6707,7.7718-3.7037,16.2964-.0493,12.7424,5.1852,18.5185,8.8889,25.1852,1.9334,3.649,4.5791,9.7746,5.3333,17.7778,.9957,10.5663,.0741,15.3889-3.5555,22.963-3.1482,6.3704-7.2099,11.4568-10.8148,17.1852-2.5599,3.826-13.0317,15.039-12.8889,33.3333,.1088,13.9272,6.2818,23.8279,8.8889,27.5555,.7901,1.3827,1.5802,2.7655,2.3704,4.1482,.289,.3393,2.9895,3.6189,1.9259,7.7037-.6135,2.3563-2.1635,3.7671-2.8148,4.2963-1.2759,.8571-7.3128,5.107-8.8889,13.1852-1.1029,5.653,.5599,10.2011,1.3333,12,3.2407,5.5741,5.8567,9.0888,8.5926,15.2593,3.056,6.8924,4.8449,13.2192,5.9259,18.3704,1.0056-4.2994,1.877-10.3448,1.1852-17.4815-.3687-3.803-1.106-7.1396-1.9259-9.9259-1.0091-3.4294-2.2239-4.4511-2.8148-7.8519-.4081-2.3487-.8485-5.108,.5926-7.8518,1.1045-2.103,3.1427-4.2,5.4074-6.3333,2.3883-2.4749,4.1625-4.1578,6.1481-10.1111,4.5328-13.5904-1.5809-25.5844-2.963-28.1482-1.9432-4.1974-4.9777-12.2548-4.5926-22.6667,.2785-7.5313,2.2435-13.5162,3.8518-17.3333,3.3316-7.9069,3.9761-8.9547,10.6667-24.7407,3.9744-9.3773,5.2458-11.1616,6.1482-15.4835,.7907-3.7874,1.7727-8.4708,1.232-14.4412-.5837-6.4443-3.7659-12.0981-5.6497-16.3716-2.0635-4.6808-2.8415-5.7037-5.2859-12.7408-1.5814-4.5524-1.2852-7.6616-1.3333-8.8148-.0853-2.0407-.2786-6.6657,2.6667-10.963,2.7237-3.9741,6.6311-5.4782,9.3333-6.5185,2.7352-1.0529,3.7516-.8683,7.5555-1.6296,5.1457-1.0298,10.8257-2.1665,15.1111-5.3333,1.931-1.427,5.7192-4.8478,7.7037-12.2963,.2706-1.0244,1.4285-4.9192,5.3333-7.5556,2.9587-1.9976,5.9461-2.2273,7.3443-2.2273,.1351,0,.2554,.0021,.3594,.005-.9066-.3414-3.822-1.3706-7.6791-1.3706h0Z"/><path class="uuid-aa37e10b-30e3-415f-a0e6-1d5828fbd3ac" d="M92.7906,235.5612c3.2412,1.7792,7.1529,4.7723,9.7985,9.6183,.3661,.6706,3.5539,6.7547,2.7631,13.7827-.2056,1.8272-.4872,4.3296-2.1145,6.5748-.3605,.4974-.6678,.8189-1.2257,1.4024-.3806,.3981-.8542,.8935-1.4676,1.5775-.4827,.5382-.9242,1.0012-1.33,1.4272-1.4113,1.4816-2.6301,2.7611-3.6284,5.0374l-.0393,.0897-.0334,.0921c-4.8999,13.5046-1.7654,27.8417,6.9873,31.96,1.8827,.8858,4.0997,1.354,6.4114,1.354,3.7692,0,7.5373-1.2095,10.6101-3.4056,.2761-.1973,.5421-.3992,.7982-.605-1.3227,3.1343-3.461,5.7369-6.2566,7.3393-1.984,1.1372-4.2189,1.7138-6.6426,1.7138-5.6671,0-10.5883-3.0622-11.1308-3.4114-11.4434-7.3653-9.9504-24.617-9.5349-28.0006,.7763-6.3211,3.3611-12.4834,7.4759-17.8239,1.2737-1.5408,3.3411-4.7298,3.2118-9.0754-.1244-4.1778-2.2759-8.0816-5.7609-10.664,.4715-1.6935,.7964-3.425,.9698-5.1728,.1258-1.268,.1719-2.5402,.1386-3.8103m-3.5683-4.8192c.4196,2.02,.7845,4.9055,.4444,8.3333-.2746,2.7679-.9272,5.0667-1.5556,6.7778,3.7611,1.9067,6.2165,5.5198,6.3333,9.4445,.1107,3.7197-1.92,6.3492-2.5555,7.1111-2.5043,3.2415-6.9576,9.9402-8.1111,19.3333-.3247,2.6438-2.4457,22.3064,10.8889,30.8889,.6839,.4402,6.2266,3.8888,12.7544,3.8888,2.6361,0,5.4315-.5617,8.1344-2.111,7.383-4.2317,11.1346-14.15,8.4444-24.2222,.0134,.6219,.0418,7.9677-6.2222,12.4445-2.6868,1.9202-5.8896,2.8463-8.8658,2.8463-1.8603,0-3.6319-.3617-5.1342-1.0686-7.0148-3.3005-10-15.6667-5.4444-28.2222,1.0417-2.375,2.3814-3.3662,4.4444-5.6667,1.5037-1.6767,2.1059-2.1419,2.8889-3.2222,2.0911-2.8851,2.4385-5.9725,2.6667-8,.9012-8.0091-2.7301-14.8577-3.1111-15.5556-4.9623-9.0895-13.7343-12.2573-16-13h0Z"/><path class="uuid-aa37e10b-30e3-415f-a0e6-1d5828fbd3ac" d="M64.6562,100.1806c1.0908,3.7962,2.4445,7.5152,4.0476,11.1152,1.5609,3.505,2.7133,5.4584,3.7301,7.1818,.8715,1.4771,1.5598,2.6439,2.3559,4.5379,5.031,11.9703,1.8934,23.9973,1.7574,24.5034-3.2506,12.0942-11.4524,19.9709-14.3385,21.9854l-.0934,.0652-.0882,.0722c-10.7852,8.8174-15.9797,14.2328-17.0151,25.7578-1.1802,13.1363,4.9288,21.4081,7.3494,24.1281,.086,1.9034,.3693,3.7931,.8454,5.6327,.0292,.1127,.059,.2249,.0895,.3371-2.8576-1.772-5.4912-3.8875-7.8048-6.2836l-.1142-.1182c-3.0842-3.1929-9.5018-9.8368-10.277-18.9413-1.3155-15.4504,14.749-26.4826,14.9114-26.5923l.1475-.0995,.1347-.1163c2.7528-2.3768,6.5389-6.4954,8.943-12.6189,1.8383-4.6823,2.5586-9.8083,2.0807-14.8479-.7836-7.6144-1.227-15.2617-1.3178-22.7294-.1042-8.5606,.2935-11.6365,1.1143-14.6097,.8025-2.9073,1.988-5.7028,3.5422-8.3597m1.3438-7.1052c-2.4791,2.9781-5.9079,7.8929-7.7778,14.6667-.8891,3.2207-1.3308,6.5178-1.2222,15.4445,.0699,5.745,.3649,13.5897,1.3333,23,.2453,2.5875,.3798,7.6658-1.8889,13.4444-2.3636,6.0202-6.1321,9.7358-8.1111,11.4445-.9004,.6077-17.6728,12.297-16.2222,29.3333,.8758,10.2863,7.9899,17.5414,11.2222,20.8889,5.9598,6.1723,12.3845,9.1554,16.1111,10.5556-1.0906-1.6378-2.4793-4.1446-3.3333-7.4445-.6141-2.3728-.7769-4.4805-.7778-6.1111-1.1396-1.0485-8.5596-8.9806-7.3333-22.6296,.9244-10.2891,5.3704-15.0741,15.9259-23.7037,3.0971-2.1618,11.9617-10.4332,15.5185-23.6667,.2844-1.0583,3.4887-13.6495-1.8889-26.4444-1.8466-4.3936-3.2779-5.4155-6.1111-11.7778-3.0854-6.9284-4.6265-12.989-5.4444-17h0Z"/><path class="uuid-aa37e10b-30e3-415f-a0e6-1d5828fbd3ac" d="M44.6304,233.0425c2.172,2.3892,4.6759,4.4334,7.4657,6.0927,1.2593,.749,2.5598,1.4094,3.8961,1.9792-3.6742,2.7566-7.7835,7.2264-9.154,13.9547-1.3956,6.8517,.6536,11.2203,2.15,14.4101,.4401,.9383,.8202,1.7486,1.0208,2.4361l.0482,.1651,.0667,.1585c2.0683,4.915,3.1358,10.0633,3.1726,15.3019,.0705,10.0284-3.6433,17.8443-6.7713,22.635l-.0171,.0262-.0166,.0266c-1.6361,2.6239-7.8294,11.3267-18.8326,13.146-1.1166,.1846-2.9854,.4936-5.2635,.4936-4.8442,0-8.9963-1.3952-12.3412-4.1469-1.222-1.0053-2.2336-2.1032-3.0702-3.2368,4.1093,2.6372,8.8796,4.1258,13.7742,4.1258,1.0077,0,2.0244-.0633,3.0218-.1881,13.2935-1.6634,19.3154-13.3782,19.9582-14.7085l.0474-.0982,.0402-.1014c2.6109-6.5843,3.9281-13.3882,3.915-20.2227-.019-9.883-2.8477-18.0567-4.5322-22.0493-1.4308-3.3915-2.6884-5.4376-3.6989-7.0817-1.2399-2.0173-1.9882-3.2349-2.4805-6.0472-.4207-2.4036-1.5383-8.7884,2.3135-13.4152,1.5691-1.8848,3.5445-2.9987,5.2877-3.656m.9993-3.4486c-1.9281,.4817-5.7245,1.74-8.5926,5.1852-4.7408,5.6947-3.4361,13.1489-2.963,15.8518,1.0313,5.8922,3.226,6.3247,6.3704,13.7778,1.2243,2.9019,4.277,10.8606,4.2963,20.8889,.0081,4.2335-.52,11.0823-3.7037,19.1111-.3832,.7929-5.812,11.5583-17.6296,13.037-.8842,.1106-1.7682,.1649-2.6493,.1649-8.4869,0-16.6377-5.0359-20.7581-13.2019,.0225,1.5216,.3232,11.1924,8.1481,17.6296,4.7712,3.9251,10.1292,4.8301,14.2471,4.8301,2.5239,0,4.5827-.3403,5.7529-.5338,12.9148-2.1354,19.7016-12.6144,20.8889-14.5186,2.3646-3.6215,7.3433-12.3536,7.2593-24.2963-.0504-7.1558-1.9-12.8624-3.4074-16.4445-1.037-3.5556-4.7209-7.5044-3.1111-15.4074,2.2587-11.0886,13.1508-15.1838,13.7778-15.4074-2.3459-.4213-6.0015-1.3695-9.9259-3.7037-3.9296-2.3372-6.5098-5.1011-8-6.9629h0Z"/></svg>