<?xml version="1.0" encoding="UTF-8"?><svg id="uuid-a3627048-f939-4eca-8772-a96a3b4d6241" xmlns="http://www.w3.org/2000/svg" width="11.1237cm" height="16.2311cm" viewBox="0 0 315.3175 460.093"><defs><style>.uuid-abfdebd7-8bce-46c6-b0cb-53d87296e9cd{fill:#fff;}.uuid-2ce54f7c-b49a-462b-8ad2-4ac4d130916e{fill:#272525;}.uuid-21846a60-2614-4441-8350-a41089d5a25f{fill:#5a5a5a;}.uuid-abec3737-91c8-47bf-83ac-44ce41ee485c{fill:#f59916;}.uuid-a7df35d5-1007-4e69-ae23-70d8f4e94223{fill:#f39719;}</style></defs><g><path class="uuid-21846a60-2614-4441-8350-a41089d5a25f" d="M239.3269,217.5458c-9.267-1.891-18.154-2.849-26.415-2.849-25.874,0-38.161,9.159-40.206,10.848-2.264-.313-4.499-.472-6.65-.472-2.552,0-4.287,.223-4.994,.335-8.449-6.03-19.209-9.403-31.988-10.027-2.25-.1089-4.666-.165-7.182-.165-14.183,0-27.879,1.765-28.015,1.783l-.445,.058-.184,.408c-1.443,3.174-.622,6.564-.586,6.707l.098,.393,.827,.338c1.404,.56,2.513,1.002,2.818,3.341,.031,.238,3.576,24.204,9.413,29.12,5.374,4.525,18.343,5.2,25.596,5.2,1.076,0,2.129-.015,3.149-.042,11.088-.3,16.196-5.407,17.874-7.086,2.576-2.576,7.344-15.476,8.142-19.203,.739-3.449,2.975-5.273,6.465-5.273,4.222,0,5.424,3.243,5.547,3.613,.085,.252,.239,.754,.447,1.433,1.148,3.742,3.838,12.507,5.822,15.541,.181,.277,.362,.563,.546,.854,2.231,3.517,5.009,7.894,14.514,9.307,2.936,.436,6.142,.657,9.529,.657,6.93,0,13.257-.94,16.567-1.746,5.272-1.282,9.753-5.691,11.292-9.188,1.077-2.446,2.899-11.806,4.524-20.387,.357-1.889,.639-3.381,.764-3.938,.418-1.885,2.736-2.475,2.756-2.48l.62-.147v-6.801l-.645-.132h0Zm-62.079,12.534c-.413-4.427,5.927-6.565,10.122-7.979,.626-.212,1.204-.407,1.709-.591,3.699-1.357,16.243-2.503,27.39-2.503,10.55,0,14.688,5.108,15.47,8.126,.839,3.236-2.963,20.801-5.574,25.746-2.287,4.336-16.039,6.286-25.073,6.286-8.124,0-13.715-1.411-18.255-8.622-4.23-6.718-5.501-17.361-5.789-20.463m-74.212-7.053c3.956-2.743,10.066-4.133,18.161-4.133,7.169,0,14.124,1.059,19.383,1.981,9.298,1.631,15.28,5.003,16.001,9.019,.864,4.816-2.562,15.262-6.232,22.177-3.173,5.982-14.004,7.238-22.532,7.238-.445,0-.886-.004-1.322-.01-9.035-.129-16.432-3.184-19.48-5.967-3.027-2.764-4.827-13.162-5.793-18.749-1.174-6.779,.167-10.415,1.814-11.556"/><path class="uuid-a7df35d5-1007-4e69-ae23-70d8f4e94223" d="M191.4873,156.6885s4.835,3.761,10.476,5.372c5.641,1.612,20.952,9.67,19.34,24.981s1.612,23.638,8.864,27.399c0,0-6.178-8.059-3.223-19.34,2.955-11.282-1.612-43.247-26.861-42.978,0,0-3.492,3.223-8.596,4.566"/><path class="uuid-a7df35d5-1007-4e69-ae23-70d8f4e94223" d="M203.8435,149.7047s38.949,1.88,42.441,32.502,7.9123,36.3442,11.819,42.71c10.4051,16.9548,11.8289,26.2834,2.149,39.486-10.0009,13.6403-11.551,21.757,2.149,37.874,13.699,16.117,29.816,16.654,19.071,32.233-10.744,15.58-27.8417,25.856-21.892,39.6135,6.417,14.8379,39.8458,9.5302,20.818,36.5524-23.2301,32.9902,18.534,67.154,34.919,38.949,0,0-6.446,7.79-16.922,1.881-10.476-5.91-12.625-18.803,4.835-31.965,17.459-13.162,8.9247-23.5764-12.088-37.7549-19.1961-12.9527-29.5534-16.78-8.4981-31.1045,24.2737-16.5141,20.2344-24.04,12.4445-31.023-7.789-6.984-38.1241-29.3389-27.1111-40.8889s21.5528-22.9626-1.2792-54.3906c-22.832-31.427-9.401-30.084-9.938-45.664-.538-15.579-43.516-53.185-52.917-29.01"/><path class="uuid-a7df35d5-1007-4e69-ae23-70d8f4e94223" d="M221.0348,157.7629s12.893,13.431,9.939,30.8911c-2.955,17.459,4.297,21.22,11.819,28.472,7.521,7.253,6.715,23.37-1.612,30.622-8.327,7.253-29.547,22.564-8.327,49.156,21.22,26.593-1.88,25.787-10.476,34.92s-36.8,38.412,4.566,73.6c41.367,35.188-.4019,51.8225-13.0269,40.2725,0,0,8.327,11.55,26.055,3.492,17.729-8.059,28.0699-31.9455-2.0141-47.5255-30.085-15.579-42.441-46.47-11.014-59.9,31.428-13.431,41.904-28.473,26.862-45.127-15.043-16.654-9.67-30.622-.806-43.516,8.864-12.893,1.074-27.935-6.715-37.874-7.79-9.939-3.761-21.489-3.492-32.502,.268-11.013-13.162-23.638-21.758-24.981"/><path class="uuid-a7df35d5-1007-4e69-ae23-70d8f4e94223" d="M178.2582,155.0098s12.289,.403,17.728-5.439c5.44-5.843,14.304-13.498,23.571-10.073,0,0-2.014-14.908-12.692-12.491-10.677,2.418-12.692,6.85-14.706,14.1021-2.015,7.253-7.253,12.2889-13.901,13.9009"/><path class="uuid-a7df35d5-1007-4e69-ae23-70d8f4e94223" d="M174.632,154.204s9.066-3.223,12.088-12.088c3.021-8.864,9.871-20.548,20.146-17.728,0,0-8.059-10.879-17.93-1.41-9.872,9.468-7.857,11.281-8.865,20.347-1.007,9.066-5.439,10.879-5.439,10.879"/><path class="uuid-a7df35d5-1007-4e69-ae23-70d8f4e94223" d="M164.7605,148.7645s7.454-15.1089-2.619-25.585c0,0,5.641-8.663,24.78-1.209,0,0-10.073,5.641-9.066,13.296,1.007,7.656-2.015,16.721-7.253,19.542l-5.842-6.044Z"/><path class="uuid-a7df35d5-1007-4e69-ae23-70d8f4e94223" d="M265.6245,315.7072s.537,15.042-17.46,23.638c-17.997,8.596-20.1465,22.1059-8.8645,32.3129,11.281,10.207,16.1175,29.4681,11.8195,32.6911,0,0,4.566,5.104,7.252,12.356,0,0,14.774-22.294-4.566-41.903-19.34-19.609-3.223-20.146,11.013-30.085,14.237-9.938,17.191-21.489,.806-29.01"/><path class="uuid-a7df35d5-1007-4e69-ae23-70d8f4e94223" d="M231.242,416.437s-11.013,11.282-23.638,1.612,.269-17.729,.269-17.729c0,0-13.431,5.373-6.716,20.415,6.716,15.042,25.787,15.848,38.143,10.476,0,0-1.074-9.939-8.058-14.774"/><path class="uuid-abec3737-91c8-47bf-83ac-44ce41ee485c" d="M137.3044,121.828h0c11.1015,.0012,20.3808,4.6391,23.0878,11.5411,.343,.8745,.583,1.8076,.7201,2.7892-3.2076-3.4052-6.5199-4.7682-7.2697-5.0465-.8291-.349-6.0538-2.4292-12.7751-2.4292-8.7825,0-16.4015,3.551-22.0332,10.2687-8.659,10.3287-20.9559,14.4094-26.9505,15.8576,.3448-2.0995,.9809-4.1,1.3337-5.0339,2.7261-5.4948,7.8531-13.2757,16.8599-19.3895,5.8787-3.9905,12.4411-6.6479,19.4929-7.8964,2.5381-.4388,5.073-.6613,7.5342-.6611m.0001-3c-2.5862-.0002-5.2785,.2266-8.0454,.705-4.6835,.8292-12.5431,2.856-20.6667,8.3704-10.4814,7.1148-15.7112,16.172-17.9259,20.6667,0,0-2.1482,5.4815-1.7778,9.9259,0,0,19.7037-2.4197,32.4445-17.6172,6.1192-7.2992,13.6058-9.196,19.7343-9.1961,6.6316,0,11.6731,2.2208,11.6731,2.2208,0,0,5.8645,1.9676,9.4008,8.8889l1.1177,1.7778c1.8605-6.2202,.6713-10.3956-.0741-12.2963-3.1344-7.9921-13.203-13.4452-25.8805-13.4459h0Z"/><path class="uuid-abec3737-91c8-47bf-83ac-44ce41ee485c" d="M142.8139,138.4842c2.5434,0,4.8868,.5221,6.9653,1.5518,4.671,2.3141,7.107,6.8074,8.266,9.7972-.3782,.6015-1.4163,1.4612-4.4888,2.2848-1.2332,.3306-2.5733,.4982-3.983,.4982-3.3026,0-5.9747-.92-6.3334-1.0491-2.6942-1.1783-5.5222-1.7756-8.4076-1.7756l-.1944,.0009c-6.4064,.0606-11.0867,3.0914-13.3064,4.8926l-.1882,.1527-.1612,.1809c-2.3805,2.6714-5.0916,5.0005-8.0582,6.9226-5.4391,3.5241-11.8456,5.7053-18.5269,6.3076l-.1641,.0148-.1615,.0327c-5.4467,1.1021-10.6111,3.4959-14.935,6.9225-.7205,.571-1.4008,1.1557-2.0428,1.7498,.7542-1.394,1.673-2.7981,2.7904-4.1739,6.2071-7.6426,14.4704-9.4818,17.7579-9.9208,4.5516-.6435,8.9375-2.0117,13.0357-4.0664,4.6011-2.3068,8.7051-5.4049,12.1982-9.208l.0959-.1045,.0857-.113c5.1707-6.8238,12.5563-10.8977,19.7563-10.8977m0-3c-7.6632,0-16.1354,4.1519-22.1474,12.0858-2.1828,2.3766-5.8848,5.8239-11.3333,8.5556-4.7572,2.3851-9.1072,3.3531-12.1111,3.7778-2.1853,.2918-12.2566,1.8762-19.6667,11-7.1188,8.7651-6.8935,18.47-6.7778,20.7778,1.0427-2.8048,3.7839-9.0088,10.2222-14.1111,5.3591-4.247,10.779-5.749,13.6667-6.3333,4.4095-.3975,12.0927-1.7264,19.8889-6.7778,3.7723-2.4442,6.6116-5.1382,8.6667-7.4444,1.3733-1.1144,5.5068-4.1661,11.4444-4.2222,.0554-.0005,.111-.0008,.166-.0008,3.1992,0,5.7373,.8747,7.2784,1.5563,0,0,3.2584,1.2684,7.4625,1.2684,1.5012,0,3.1226-.1616,4.7598-.6005,6.2222-1.6679,6.6667-4.1123,6.8889-5.2234-.826-2.4268-3.4929-9.1656-10.1111-12.4444-2.5219-1.2494-5.3498-1.8636-8.2971-1.8636h0v-.0002Z"/><path class="uuid-abec3737-91c8-47bf-83ac-44ce41ee485c" d="M109.6685,193.2205c-.6851,.8816-1.7552,1.7208-3.4105,2.3363-6.6088,2.4576-7.9255,8.9555-7.6151,13.6423l-4.4043,1.1075c-2.3553-2.3744-3.1901-5.6791-2.1207-8.7314,1.2756-3.6408,5.0232-6.1981,9.3255-6.3635l.0275-.0011,.0275-.0016c1.7952-.1034,3.5432-.3883,5.1995-.8479,.1445-.0403,1.0304-.3012,2.9705-1.1407m3.8869-5.0209c-5.5898,2.8291-7.6295,3.3951-7.6296,3.3951-1.0108,.2805-2.5683,.6303-4.5926,.7469-5.4852,.2108-10.2622,3.5352-11.9259,8.2839-1.6134,4.605-.0004,9.6966,4.0741,12.8333,2.7901-.7016,5.5802-1.4033,8.3704-2.1049,0,0-2.4444-10.1852,5.4074-13.1049,7.8517-2.9197,6.2963-10.0491,6.2963-10.0494h0Z"/><path class="uuid-abec3737-91c8-47bf-83ac-44ce41ee485c" d="M98.2698,271.5532c3.2145,6.7273,6.9956,18.2306,4.3416,31.7733-1.433,7.3125-4.7498,12.2013-8.2614,17.3772-1.025,1.5108-2.0849,3.073-3.1153,4.7191l-.0288,.0461-.0271,.0471c-1.8851,3.269-3.2471,5.6308-4.7546,9.5273-.0886,.2289-.1756,.4583-.2612,.6886l-.4852-1.4481-3.1201-9.3123,6.7584-9.305,.1125-.155,.0919-.168c.2374-.4339,.7383-1.1128,1.2687-1.8315,2.5252-3.4222,6.7517-9.15,6.2053-18.3421-.2454-4.1284-1.4947-8.2-3.631-11.8694l4.9062-11.7472m-.3811-6.872c-2.6296,6.2963-5.2593,12.5926-7.8889,18.8889,1.3603,2.0513,3.6669,6.1739,4,11.7778,.6083,10.2342-5.5,15.6111-7.1111,18.5556-2.5556,3.5185-5.1111,7.037-7.6667,10.5555,2.4074,7.1852,4.8148,14.3704,7.2222,21.5556,.5054-2.8002,1.3449-6.185,2.7778-9.8889,1.4195-3.6691,2.6657-5.8339,4.5555-9.1111,4.5752-7.3088,9.7926-12.9814,11.7778-23.1111,3.9202-20.004-5.3953-35.7037-7.6667-39.2222h0Z"/><path class="uuid-abec3737-91c8-47bf-83ac-44ce41ee485c" d="M128.9472,162.6361c-2.3715,2.6223-3.3474,5.4638-3.698,6.7912-1.2561,4.7145-3.5341,8.3993-6.5878,10.6559-3.7472,2.7692-8.9171,3.8038-13.9169,4.8044-1.2562,.2514-2.1894,.3937-3.0127,.5192-1.6454,.2509-2.945,.4491-5.032,1.2524-2.7974,1.0769-7.4794,2.8792-10.73,7.6221-3.5097,5.1209-3.2853,10.4911-3.1895,12.7842,.0058,.1402,.0039,.3167,.0033,.5279-.0047,1.5598-.0144,4.8052,1.4935,9.1461,1.8376,5.29,2.7732,7.3039,3.9577,9.8535,.4301,.9258,.8748,1.883,1.417,3.113,.3479,.7891,.7386,1.6242,1.1495,2.5016,1.7936,3.8301,3.8265,8.1712,4.2576,12.9305,.4991,5.5107-.3905,9.7716-1.1808,13.5574-.552,2.6439-1.2469,4.1982-2.9256,7.9531-.795,1.7783-1.7844,3.9914-3.0481,6.9729-3.7879,8.9374-5.64,13.155-7.1283,16.5439-1.168,2.6596-2.0905,4.7604-3.5409,8.2025-2.4769,5.8785-3.8514,12.0649-4.0852,18.3873-.303,8.1921,1.3804,16.5043,4.8681,24.0379l.0384,.0828,.0433,.0804c2.1091,3.9124,6.5999,14.2559,2.7578,25.7754-1.6958,5.0844-3.0873,6.5229-5.1935,8.7003l-.2171,.2246c-2.3121,2.1806-4.6272,4.5455-5.955,7.0737-1.9449,3.7031-1.3115,7.3483-.8924,9.7604,.4019,2.3128,1.0544,3.7306,1.6854,5.1018,.4276,.9292,.8315,1.8068,1.2071,3.0833,.9002,3.0591,1.5118,6.2112,1.8179,9.3685,.0366,.3778,.069,.7559,.097,1.1342-.4695-1.1865-.9629-2.3633-1.4796-3.5286-2.0025-4.5164-3.9588-7.6933-6.03-11.0567-.8388-1.3621-1.7052-2.769-2.6172-4.3322-.8055-1.9299-1.9372-5.6703-1.0768-10.0799,1.2818-6.5699,6.1544-10.2867,7.6172-11.2694l.1131-.076,.1058-.0859c1.8797-1.5273,3.2385-3.6115,3.8262-5.8688,1.2995-4.991-1.397-8.9622-2.3475-10.1635l-1.0621-1.8586-1.1852-2.0741-.0679-.1188-.0784-.1121c-3.0764-4.3987-8.2517-13.6075-8.3474-25.8596-.1164-14.9076,7.3468-24.8638,10.9335-29.6484,.5752-.7673,1.0719-1.43,1.4488-1.9933l.0233-.0349,.0224-.0355c1.1725-1.8633,2.4303-3.7092,3.6466-5.4944,2.5208-3.6997,5.1273-7.5253,7.3345-11.9922,3.9863-8.3184,4.847-13.8229,3.8369-24.5409-.6237-6.619-2.5311-12.9781-5.6692-18.9009l-.014-.0263-.0145-.026c-.6918-1.2453-1.4357-2.4625-2.1551-3.6396-3.2879-5.3798-6.3934-10.4612-6.3563-20.0771,.0284-7.34,2.3848-12.9251,3.3966-14.9857,1.4053-2.8619,4.3294-8.8171,10.6222-12.3329,6.0407-3.3748,12.7439-3.6128,12.9681-3.6196,.2019-.0041,.4017-.0055,.6005-.0055,.2957,0,.589,.0032,.882,.0063,.3135,.0033,.6267,.0066,.9419,.0066,1.8028,0,3.8105-.1075,6.2726-.8875,2.8685-.9088,5.5348-2.4693,7.925-4.6384l.0538-.0488,.0514-.0514c.8556-.8556,1.562-1.7714,2.2452-2.6571,1.6011-2.0756,3.1134-4.0359,6.7443-5.597,.7906-.3399,1.6014-.6195,2.4291-.8382m4.5588-3.5848c-2.4378,0-5.2519,.4111-8.1728,1.6669-6.0148,2.5859-7.3333,6.2963-9.9259,8.8889-1.4611,1.326-3.7223,3.0203-6.8148,4-2.0752,.6574-3.7494,.7474-5.3666,.7474-.6098,0-1.2118-.0128-1.8238-.0128-.219,0-.439,.0016-.6614,.0061,0,0-7.4783,.1494-14.3704,4-7.1098,3.9722-10.329,10.5282-11.8518,13.6296-.7761,1.5806-3.6707,7.7718-3.7037,16.2964-.0493,12.7424,5.1852,18.5185,8.8889,25.1852,1.9334,3.649,4.5791,9.7746,5.3333,17.7778,.9957,10.5663,.0741,15.3889-3.5555,22.963-3.1482,6.3704-7.2099,11.4568-10.8148,17.1852-2.5599,3.826-13.0317,15.039-12.8889,33.3333,.1088,13.9272,6.2818,23.8279,8.8889,27.5555,.7901,1.3827,1.5802,2.7655,2.3704,4.1482,.289,.3393,2.9895,3.6189,1.9259,7.7037-.6135,2.3563-2.1635,3.7671-2.8148,4.2963-1.2759,.8571-7.3128,5.107-8.8889,13.1852-1.1029,5.653,.5599,10.2011,1.3333,12,3.2407,5.5741,5.8567,9.0888,8.5926,15.2593,3.056,6.8924,4.8449,13.2192,5.9259,18.3704,1.0056-4.2994,1.877-10.3448,1.1852-17.4815-.3687-3.803-1.106-7.1396-1.9259-9.9259-1.0091-3.4294-2.2239-4.4511-2.8148-7.8519-.4081-2.3487-.8485-5.108,.5926-7.8518,1.1045-2.103,3.1427-4.2,5.4074-6.3333,2.3883-2.4749,4.1625-4.1578,6.1481-10.1111,4.5328-13.5904-1.5809-25.5844-2.963-28.1482-1.9432-4.1974-4.9777-12.2548-4.5926-22.6667,.2785-7.5313,2.2435-13.5162,3.8518-17.3333,3.3316-7.9069,3.9761-8.9547,10.6667-24.7407,3.9744-9.3773,5.2458-11.1616,6.1482-15.4835,.7907-3.7874,1.7727-8.4708,1.232-14.4412-.5837-6.4443-3.7659-12.0981-5.6497-16.3716-2.0635-4.6808-2.8415-5.7037-5.2859-12.7408-1.5814-4.5524-1.2852-7.6616-1.3333-8.8148-.0853-2.0407-.2786-6.6657,2.6667-10.963,2.7237-3.9741,6.6311-5.4782,9.3333-6.5185,2.7352-1.0529,3.7516-.8683,7.5555-1.6296,5.1457-1.0298,10.8257-2.1665,15.1111-5.3333,1.931-1.427,5.7192-4.8478,7.7037-12.2963,.2706-1.0244,1.4285-4.9192,5.3333-7.5556,2.9587-1.9976,5.9461-2.2273,7.3443-2.2273,.1351,0,.2554,.0021,.3594,.005-.9066-.3414-3.822-1.3706-7.6791-1.3706h-.0001Z"/><path class="uuid-abec3737-91c8-47bf-83ac-44ce41ee485c" d="M92.7905,354.3892c3.2412,1.7792,7.1529,4.7723,9.7985,9.6183,.3661,.6706,3.5539,6.7547,2.7631,13.7827-.2056,1.8272-.4872,4.3296-2.1145,6.5748-.3605,.4974-.6678,.8189-1.2257,1.4024-.3806,.3981-.8542,.8935-1.4676,1.5775-.4827,.5382-.9242,1.0012-1.33,1.4272-1.4113,1.4816-2.6301,2.7611-3.6284,5.0374l-.0393,.0897-.0334,.0921c-4.8999,13.5046-1.7654,27.8417,6.9873,31.96,1.8827,.8858,4.0997,1.354,6.4114,1.354,3.7692,0,7.5373-1.2095,10.6101-3.4056,.2761-.1973,.5421-.3992,.7982-.605-1.3227,3.1343-3.461,5.7369-6.2566,7.3393-1.984,1.1372-4.2189,1.7138-6.6426,1.7138-5.6671,0-10.5883-3.0622-11.1308-3.4114-11.4434-7.3653-9.9504-24.617-9.5349-28.0006,.7763-6.3211,3.3611-12.4834,7.4759-17.8239,1.2737-1.5408,3.3411-4.7298,3.2118-9.0754-.1244-4.1778-2.2759-8.0816-5.7609-10.664,.4715-1.6935,.7964-3.425,.9698-5.1728,.1258-1.268,.1719-2.5402,.1386-3.8103m-3.5683-4.8192c.4196,2.02,.7845,4.9055,.4444,8.3333-.2746,2.7679-.9272,5.0667-1.5556,6.7778,3.7611,1.9067,6.2165,5.5198,6.3333,9.4445,.1107,3.7197-1.92,6.3492-2.5555,7.1111-2.5043,3.2415-6.9576,9.9402-8.1111,19.3333-.3247,2.6438-2.4457,22.3064,10.8889,30.8889,.6839,.4402,6.2266,3.8888,12.7544,3.8888,2.6361,0,5.4315-.5617,8.1344-2.111,7.383-4.2317,11.1346-14.15,8.4444-24.2222,.0134,.6219,.0418,7.9677-6.2222,12.4445-2.6868,1.9202-5.8896,2.8463-8.8658,2.8463-1.8603,0-3.6319-.3617-5.1342-1.0686-7.0148-3.3005-10-15.6667-5.4444-28.2222,1.0417-2.375,2.3814-3.3662,4.4444-5.6667,1.5037-1.6767,2.1059-2.1419,2.8889-3.2222,2.0911-2.8851,2.4385-5.9725,2.6667-8,.9012-8.0091-2.7301-14.8577-3.1111-15.5556-4.9623-9.0895-13.7343-12.2573-16-13h0Z"/><path class="uuid-abec3737-91c8-47bf-83ac-44ce41ee485c" d="M64.6561,219.0086c1.0908,3.7962,2.4445,7.5152,4.0476,11.1152,1.5609,3.505,2.7133,5.4584,3.7301,7.1818,.8715,1.4771,1.5598,2.6439,2.3559,4.5379,5.031,11.9703,1.8934,23.9973,1.7574,24.5034-3.2506,12.0942-11.4524,19.9709-14.3385,21.9854l-.0934,.0652-.0882,.0722c-10.7852,8.8174-15.9797,14.2328-17.0151,25.7578-1.1802,13.1363,4.9288,21.4081,7.3494,24.1281,.086,1.9034,.3693,3.7931,.8454,5.6327,.0292,.1127,.059,.2249,.0895,.3371-2.8576-1.772-5.4912-3.8875-7.8048-6.2836l-.1142-.1182c-3.0842-3.1929-9.5018-9.8368-10.277-18.9413-1.3155-15.4504,14.749-26.4826,14.9114-26.5923l.1475-.0995,.1347-.1163c2.7528-2.3768,6.5389-6.4954,8.943-12.6189,1.8383-4.6823,2.5586-9.8083,2.0807-14.8479-.7836-7.6144-1.227-15.2617-1.3178-22.7294-.1042-8.5606,.2935-11.6365,1.1143-14.6097,.8025-2.9073,1.988-5.7028,3.5422-8.3597m1.3438-7.1052c-2.4791,2.9781-5.9079,7.8929-7.7778,14.6667-.8891,3.2207-1.3308,6.5178-1.2222,15.4445,.0699,5.745,.3649,13.5897,1.3333,23,.2453,2.5875,.3798,7.6658-1.8889,13.4444-2.3636,6.0202-6.1321,9.7358-8.1111,11.4445-.9004,.6077-17.6728,12.297-16.2222,29.3333,.8758,10.2863,7.9899,17.5414,11.2222,20.8889,5.9598,6.1723,12.3845,9.1554,16.1111,10.5556-1.0906-1.6378-2.4793-4.1446-3.3333-7.4445-.6141-2.3728-.7769-4.4805-.7778-6.1111-1.1396-1.0485-8.5596-8.9806-7.3333-22.6296,.9244-10.2891,5.3704-15.0741,15.9259-23.7037,3.0971-2.1618,11.9617-10.4332,15.5185-23.6667,.2844-1.0583,3.4887-13.6495-1.8889-26.4444-1.8466-4.3936-3.2779-5.4155-6.1111-11.7778-3.0854-6.9284-4.6265-12.989-5.4444-17h0Z"/><path class="uuid-abec3737-91c8-47bf-83ac-44ce41ee485c" d="M44.6303,351.8705c2.172,2.3892,4.6759,4.4334,7.4657,6.0927,1.2593,.749,2.5598,1.4094,3.8961,1.9792-3.6742,2.7566-7.7835,7.2264-9.154,13.9547-1.3956,6.8517,.6536,11.2203,2.15,14.4101,.4401,.9383,.8202,1.7486,1.0208,2.4361l.0482,.1651,.0667,.1585c2.0683,4.915,3.1358,10.0633,3.1726,15.3019,.0705,10.0284-3.6433,17.8443-6.7713,22.635l-.0171,.0262-.0166,.0266c-1.6361,2.6239-7.8294,11.3267-18.8326,13.146-1.1166,.1846-2.9854,.4936-5.2635,.4936-4.8442,0-8.9963-1.3952-12.3412-4.1469-1.222-1.0053-2.2336-2.1032-3.0702-3.2368,4.1093,2.6372,8.8796,4.1258,13.7742,4.1258,1.0077,0,2.0244-.0633,3.0218-.1881,13.2935-1.6634,19.3154-13.3782,19.9582-14.7085l.0474-.0982,.0402-.1014c2.6109-6.5843,3.9281-13.3882,3.915-20.2227-.019-9.883-2.8477-18.0567-4.5322-22.0493-1.4308-3.3915-2.6884-5.4376-3.6989-7.0817-1.2399-2.0173-1.9882-3.2349-2.4805-6.0472-.4207-2.4036-1.5383-8.7884,2.3135-13.4152,1.5691-1.8848,3.5445-2.9987,5.2877-3.656m.9993-3.4486c-1.9281,.4817-5.7245,1.74-8.5926,5.1852-4.7408,5.6947-3.4361,13.1489-2.963,15.8518,1.0313,5.8922,3.226,6.3247,6.3704,13.7778,1.2243,2.9019,4.277,10.8606,4.2963,20.8889,.0081,4.2335-.52,11.0823-3.7037,19.1111-.3832,.7929-5.812,11.5583-17.6296,13.037-.8842,.1106-1.7682,.1649-2.6493,.1649-8.4869,0-16.6377-5.0359-20.7581-13.2019,.0225,1.5216,.3232,11.1924,8.1481,17.6296,4.7712,3.9251,10.1292,4.8301,14.2471,4.8301,2.5239,0,4.5827-.3403,5.7529-.5338,12.9148-2.1354,19.7016-12.6144,20.8889-14.5186,2.3646-3.6215,7.3433-12.3536,7.2593-24.2963-.0504-7.1558-1.9-12.8624-3.4074-16.4445-1.037-3.5556-4.7209-7.5044-3.1111-15.4074,2.2587-11.0886,13.1508-15.1838,13.7778-15.4074-2.3459-.4213-6.0015-1.3695-9.9259-3.7037-3.9296-2.3372-6.5098-5.1011-8-6.9629h-.0001Z"/></g><g><path class="uuid-abfdebd7-8bce-46c6-b0cb-53d87296e9cd" d="M291.0471,109.3641v.0091h.0091v-.0091h-.0091Z"/><path class="uuid-abfdebd7-8bce-46c6-b0cb-53d87296e9cd" d="M115.0657,3.7588c.0274-.0091,.0456-.0182,.073-.0365-.0913,.0274-.1369,.0548-.073,.0365Z"/><path class="uuid-abfdebd7-8bce-46c6-b0cb-53d87296e9cd" d="M250.5508,110.4116c5.9415,.2829,11.9104,.3103,17.861,.0548,.8396-.0274,1.6793-.073,2.519-.1187,1.2777-.0639,2.5463-.146,3.8241-.2464,3.5046-.2647,7.0002-.8761,10.2219-2.309,2.5646-1.1408,4.6364-2.8567,5.6038-5.5491,.5841-1.6063,.721-3.2947,.9035-4.9741,.2647-2.4003,.5111-4.8007,.7484-7.2009,.4563-4.6729,.867-9.3458,1.2412-14.0278,.7667-9.4279,1.3599-18.874,1.7889-28.3293,.219-4.7276,.3924-9.4553,.5202-14.1829,.1278-4.5816,.3468-9.1997,.1095-13.7814-.219-4.1252-.8123-8.5426-2.7928-12.2206-.867-1.6063-2.09-2.9845-3.6963-3.8789-1.6885-.9309-3.6233-1.2413-5.5308-1.3964-4.4813-.3651-9.0446-.1917-13.5349-.2555-4.7641-.0548-9.5374-.1187-14.3016-.1825-9.5374-.1187-19.0657-.2373-28.6032-.3651-19.1296-.2373-38.2592-.4837-57.398-.7301-9.6013-.1187-19.1935-.2464-28.7948-.3651-4.7641-.0639-9.5374-.1187-14.3016-.1825-4.3899-.0548-8.8164-.2829-13.1973-.1004-3.9427,.1643-8.1136,.9766-11.5088,3.0666-3.2947,2.017-4.3078,5.4213-4.3808,9.1084-.0912,4.5907,.1825,9.2088,.3012,13.7996,.1187,4.8189,.2464,9.6469,.3742,14.475,.2556,9.3458,.7575,18.7098,.5111,28.0555-.2464,8.9899-.9127,17.9796-.4746,26.9695,.1004,2.1448,.2464,4.3078,.5385,6.4343,.2373,1.7979,.6754,3.7146,1.9531,5.0653,1.2686,1.3416,3.094,1.8527,4.8645,2.09,2.0718,.2738,4.1709,.3742,6.261,.5294,9.0811,.7028,18.1713,1.2868,27.2615,1.7523,18.3173,.9401,36.6529,1.4238,54.9885,1.2595,4.253-.0456,8.5061-.1187,12.75-.2282l.3647,.2598c.7196,5.2554-.1573,11.0664-2.5831,15.7793-2.7264,5.3154-7.5507,9.4307-13.11,11.5521-.4486,.1782,.8726,.6656,.9773,.6999,.914,.2936,1.8987,.4785,2.8571,.5101,5.4223,.2078,10.853-.2557,16.1468-1.4569,16.4128-3.6994,30.5948-14.154,38.2304-29.2046l.487-.1748Z"/><path class="uuid-2ce54f7c-b49a-462b-8ad2-4ac4d130916e" d="M291.0471,109.3641v.0091h.0091v-.0091h-.0091Z"/><path class="uuid-2ce54f7c-b49a-462b-8ad2-4ac4d130916e" d="M115.0657,3.7588c.0274-.0091,.0456-.0182,.073-.0365-.0913,.0274-.1369,.0548-.073,.0365Z"/></g><g><path class="uuid-a7df35d5-1007-4e69-ae23-70d8f4e94223" d="M119.5128,45.5449h-4.6289v-13.3477h-4.1836v-3.7852h12.9844v3.7852h-4.1719v13.3477Z"/><path class="uuid-a7df35d5-1007-4e69-ae23-70d8f4e94223" d="M130.4464,27.3105v2.5898c0,.9844-.0215,1.8105-.0645,2.4785s-.084,1.1777-.123,1.5293h.2109c.2891-.4609,.6172-.8281,.9844-1.1016s.7734-.4707,1.2188-.5918,.9297-.1816,1.4531-.1816c.875,0,1.666,.168,2.373,.5039s1.2715,.8613,1.6934,1.5762,.6328,1.6465,.6328,2.7949v8.6367h-4.6055v-7.2422c0-.8828-.1289-1.5488-.3867-1.998s-.6562-.6738-1.1953-.6738c-.5547,0-.9922,.1582-1.3125,.4746s-.5469,.7773-.6797,1.3828-.1992,1.3457-.1992,2.2207v5.8359h-4.582V27.3105h4.582Z"/><path class="uuid-a7df35d5-1007-4e69-ae23-70d8f4e94223" d="M148.423,32.0332c1.6802,0,2.9927,.416,3.938,1.248s1.418,2.0176,1.418,3.5566v8.707h-3.1758l-.8789-1.7578h-.0938c-.3755,.4688-.7603,.8496-1.1548,1.1426s-.8457,.5078-1.3535,.6445-1.1289,.2051-1.8633,.2051c-.7656,0-1.4531-.1562-2.0625-.4688s-1.0898-.7852-1.4414-1.418-.5273-1.4336-.5273-2.4023c0-1.4219,.4922-2.4766,1.4766-3.1641s2.4102-1.0742,4.2773-1.1602l2.2148-.0703v-.1875c0-.5938-.1465-1.0156-.4395-1.2656s-.6855-.375-1.1777-.375c-.5234,0-1.1074,.0918-1.752,.2754s-1.291,.4199-1.9395,.709l-1.3242-3.0234c.7656-.3906,1.6328-.6875,2.6016-.8906s2.0547-.3047,3.2578-.3047Zm.7969,7.582l-1.0547,.0469c-.8438,.0312-1.4355,.1777-1.7754,.4395s-.5098,.6348-.5098,1.1191c0,.4531,.1211,.7871,.3633,1.002s.5625,.3223,.9609,.3223c.5547,0,1.0293-.1758,1.4238-.5273s.5918-.8086,.5918-1.3711v-1.0312Z"/><path class="uuid-a7df35d5-1007-4e69-ae23-70d8f4e94223" d="M165.2047,32.0332c1.3672,0,2.4844,.3867,3.3516,1.1602s1.3008,2.0117,1.3008,3.7148v8.6367h-4.582v-7.2422c0-.8828-.127-1.5488-.3809-1.998s-.6621-.6738-1.2246-.6738c-.8672,0-1.4492,.3535-1.7461,1.0605s-.4453,1.7207-.4453,3.041v5.8125h-4.582v-13.2773h3.457l.6211,1.7578h.1758c.2812-.4219,.6172-.7812,1.0078-1.0781s.8398-.5234,1.3477-.6797,1.0742-.2344,1.6992-.2344Z"/><path class="uuid-a7df35d5-1007-4e69-ae23-70d8f4e94223" d="M177.5797,27.3105v7.1719c0,.5391-.0215,1.1387-.0645,1.7988s-.1074,1.2598-.1934,1.7988h.0938c.1797-.2734,.4062-.6172,.6797-1.0312s.5195-.7578,.7383-1.0312l2.9766-3.75h5.1094l-4.6055,5.6484,4.8984,7.6289h-5.2383l-2.9062-4.7578-1.4883,1.1367v3.6211h-4.6055V27.3105h4.6055Z"/><path class="uuid-a7df35d5-1007-4e69-ae23-70d8f4e94223" d="M193.4234,32.2676h4.8281l2.25,7.6172c.0312,.1094,.0625,.2441,.0938,.4043s.0586,.3301,.082,.5098,.0391,.3555,.0469,.5273h.0938c.0391-.3203,.084-.5996,.1348-.8379s.0996-.4316,.1465-.5801l2.3086-7.6406h4.6758l-5.25,14.1211c-.4062,1.0781-.877,1.9824-1.4121,2.7129s-1.1953,1.2812-1.9805,1.6523-1.7598,.5566-2.9238,.5566c-.4219,0-.7832-.0215-1.084-.0645s-.5645-.0879-.791-.1348v-3.5977c.1719,.0312,.3828,.0625,.6328,.0938s.5117,.0469,.7852,.0469c.5078,0,.9199-.1016,1.2363-.3047s.5762-.4707,.7793-.8027,.3789-.6895,.5273-1.0723l.0469-.1172-5.2266-13.0898Z"/><path class="uuid-a7df35d5-1007-4e69-ae23-70d8f4e94223" d="M222.3453,38.8769c0,1.1094-.1523,2.0938-.457,2.9531s-.7461,1.582-1.3242,2.168-1.2773,1.0293-2.0977,1.3301-1.7461,.4512-2.7773,.4512c-.9609,0-1.8418-.1504-2.6426-.4512s-1.498-.7441-2.0918-1.3301-1.0527-1.3086-1.377-2.168-.4863-1.8438-.4863-2.9531c0-1.4688,.2676-2.7109,.8027-3.7266s1.3008-1.7891,2.2969-2.3203,2.1855-.7969,3.5684-.7969c1.2734,0,2.4062,.2656,3.3984,.7969s1.7715,1.3047,2.3379,2.3203,.8496,2.2578,.8496,3.7266Zm-8.6016,0c0,.7578,.0664,1.3965,.1992,1.916s.3457,.9141,.6387,1.1836,.6777,.4043,1.1543,.4043,.8555-.1348,1.1367-.4043,.4863-.6641,.6152-1.1836,.1934-1.1582,.1934-1.916-.0645-1.3906-.1934-1.8984-.3359-.8906-.6211-1.1484-.6699-.3867-1.1543-.3867c-.6953,0-1.1973,.2891-1.5059,.8672s-.4629,1.4336-.4629,2.5664Z"/><path class="uuid-a7df35d5-1007-4e69-ae23-70d8f4e94223" d="M237.8727,32.2676v13.2773h-3.457l-.5742-1.6523h-.2695c-.2734,.4453-.6191,.8066-1.0371,1.084s-.8809,.4805-1.3887,.6094-1.0352,.1934-1.582,.1934c-.8672,0-1.6504-.168-2.3496-.5039s-1.2539-.8633-1.6641-1.582-.6152-1.6445-.6152-2.7773v-8.6484h4.582v7.2539c0,.8594,.123,1.5137,.3691,1.9629s.6504,.6738,1.2129,.6738c.5781,0,1.0254-.1562,1.3418-.4688s.5371-.7734,.6621-1.3828,.1875-1.3516,.1875-2.2266v-5.8125h4.582Z"/><path d="M253.4586,34.2246h-3.1992v11.3203h-1.9453v-11.3203h-2.2734v-.9375l2.2734-.6445v-.8555c0-1.0781,.1602-1.9551,.4805-2.6309s.7852-1.1738,1.3945-1.4941,1.3516-.4805,2.2266-.4805c.4922,0,.9434,.043,1.3535,.1289s.7715,.1836,1.084,.293l-.5039,1.5352c-.2656-.0859-.5645-.166-.8965-.2402s-.6699-.1113-1.0137-.1113c-.7422,0-1.291,.2402-1.6465,.7207s-.5332,1.2324-.5332,2.2559v.9375h3.1992v1.5234Z"/><path d="M266.8883,39.0996c0,1.0547-.1367,1.9961-.4102,2.8242s-.668,1.5273-1.1836,2.0977-1.1387,1.0059-1.8691,1.3066-1.5566,.4512-2.4785,.4512c-.8594,0-1.6465-.1504-2.3613-.4512s-1.332-.7363-1.8516-1.3066-.9219-1.2695-1.207-2.0977-.4277-1.7695-.4277-2.8242c0-1.4062,.2383-2.6035,.7148-3.5918s1.1582-1.7422,2.0449-2.2617,1.9434-.7793,3.1699-.7793c1.1719,0,2.1973,.2617,3.0762,.7852s1.5625,1.2793,2.0508,2.2676,.7324,2.1816,.7324,3.5801Zm-9.7734,0c0,1.0312,.1367,1.9258,.4102,2.6836s.6953,1.3438,1.2656,1.7578,1.3047,.6211,2.2031,.6211c.8906,0,1.623-.207,2.1973-.6211s.998-1,1.2715-1.7578,.4102-1.6523,.4102-2.6836c0-1.0234-.1367-1.9082-.4102-2.6543s-.6953-1.3223-1.2656-1.7285-1.3086-.6094-2.2148-.6094c-1.3359,0-2.3145,.4414-2.9355,1.3242s-.9316,2.1055-.9316,3.668Z"/><path d="M276.0875,32.4668c.2578,0,.5273,.0137,.8086,.041s.5312,.0645,.75,.1113l-.2461,1.8047c-.2109-.0547-.4453-.0977-.7031-.1289s-.5-.0469-.7266-.0469c-.5156,0-1.002,.1035-1.459,.3105s-.8574,.5039-1.2012,.8906-.6133,.8516-.8086,1.3945-.293,1.1465-.293,1.8105v6.8906h-1.957v-12.8438h1.6172l.2109,2.3672h.082c.2656-.4766,.5859-.9121,.9609-1.3066s.8105-.709,1.3066-.9434,1.0488-.3516,1.6582-.3516Z"/><path d="M117.298,74.5796c-1.1562,0-2.1758-.2383-3.0586-.7148s-1.5703-1.2031-2.0625-2.1797-.7383-2.207-.7383-3.6914c0-1.5547,.2598-2.8262,.7793-3.8145s1.2363-1.7207,2.1504-2.1973,1.9531-.7148,3.1172-.7148c.6406,0,1.2598,.0645,1.8574,.1934s1.0879,.291,1.4707,.4863l-.5859,1.6289c-.3906-.1562-.8418-.2969-1.3535-.4219s-.9902-.1875-1.4355-.1875c-.8906,0-1.6309,.1914-2.2207,.5742s-1.0312,.9453-1.3242,1.6875-.4395,1.6562-.4395,2.7422c0,1.0391,.1426,1.9258,.4277,2.6602s.7109,1.2949,1.2773,1.6816,1.2754,.5801,2.127,.5801c.6797,0,1.293-.0723,1.8398-.2168s1.043-.3145,1.4883-.5098v1.7344c-.4297,.2188-.9082,.3867-1.4355,.5039s-1.1543,.1758-1.8809,.1758Z"/><path d="M134.7237,67.8999c0,1.0547-.1367,1.9961-.4102,2.8242s-.668,1.5273-1.1836,2.0977-1.1387,1.0059-1.8691,1.3066-1.5566,.4512-2.4785,.4512c-.8594,0-1.6465-.1504-2.3613-.4512s-1.332-.7363-1.8516-1.3066-.9219-1.2695-1.207-2.0977-.4277-1.7695-.4277-2.8242c0-1.4062,.2383-2.6035,.7148-3.5918s1.1582-1.7422,2.0449-2.2617,1.9434-.7793,3.1699-.7793c1.1719,0,2.1973,.2617,3.0762,.7852s1.5625,1.2793,2.0508,2.2676,.7324,2.1816,.7324,3.5801Zm-9.7734,0c0,1.0312,.1367,1.9258,.4102,2.6836s.6953,1.3438,1.2656,1.7578,1.3047,.6211,2.2031,.6211c.8906,0,1.623-.207,2.1973-.6211s.998-1,1.2715-1.7578,.4102-1.6523,.4102-2.6836c0-1.0234-.1367-1.9082-.4102-2.6543s-.6953-1.3223-1.2656-1.7285-1.3086-.6094-2.2148-.6094c-1.3359,0-2.3145,.4414-2.9355,1.3242s-.9316,2.1055-.9316,3.668Z"/><path d="M144.169,61.2671c1.5234,0,2.6758,.373,3.457,1.1191s1.1719,1.9434,1.1719,3.5918v8.3672h-1.9219v-8.2383c0-1.0703-.2441-1.8711-.7324-2.4023s-1.2363-.7969-2.2441-.7969c-1.4219,0-2.4219,.4023-3,1.207s-.8672,1.9727-.8672,3.5039v6.7266h-1.9453v-12.8438h1.5703l.293,1.8516h.1055c.2734-.4531,.6211-.834,1.043-1.1426s.8945-.543,1.418-.7031,1.0742-.2402,1.6523-.2402Z"/><path d="M156.9547,72.9858c.3203,0,.6484-.0273,.9844-.082s.6094-.1211,.8203-.1992v1.5117c-.2266,.1016-.541,.1875-.9434,.2578s-.7949,.1055-1.1777,.1055c-.6797,0-1.2969-.1191-1.8516-.3574s-.998-.6426-1.3301-1.2129-.498-1.3594-.498-2.3672v-7.6172h-1.8281v-.9492l1.8398-.7617,.7734-2.7891h1.1719v2.9766h3.7617v1.5234h-3.7617v7.5586c0,.8047,.1855,1.4062,.5566,1.8047s.8652,.5977,1.4824,.5977Z"/><path d="M166.1656,61.2905c1.5312,0,2.668,.3438,3.4102,1.0312s1.1133,1.7852,1.1133,3.293v8.7305h-1.418l-.375-1.8984h-.0938c-.3594,.4688-.7344,.8613-1.125,1.1777s-.8418,.5547-1.3535,.7148-1.1387,.2402-1.8809,.2402c-.7812,0-1.4746-.1367-2.0801-.4102s-1.082-.6875-1.4297-1.2422-.5215-1.2578-.5215-2.1094c0-1.2812,.5078-2.2656,1.5234-2.9531s2.5625-1.0625,4.6406-1.125l2.2148-.0938v-.7852c0-1.1094-.2383-1.8867-.7148-2.332s-1.1484-.668-2.0156-.668c-.6719,0-1.3125,.0977-1.9219,.293s-1.1875,.4258-1.7344,.6914l-.5977-1.4766c.5781-.2969,1.2422-.5508,1.9922-.7617s1.5391-.3164,2.3672-.3164Zm2.6016,6.7266l-1.957,.082c-1.6016,.0625-2.7305,.3242-3.3867,.7852s-.9844,1.1133-.9844,1.957c0,.7344,.2227,1.2773,.668,1.6289s1.0352,.5273,1.7695,.5273c1.1406,0,2.0742-.3164,2.8008-.9492s1.0898-1.582,1.0898-2.8477v-1.1836Z"/><path d="M179.8414,74.5796c-1.1562,0-2.1758-.2383-3.0586-.7148s-1.5703-1.2031-2.0625-2.1797-.7383-2.207-.7383-3.6914c0-1.5547,.2598-2.8262,.7793-3.8145s1.2363-1.7207,2.1504-2.1973,1.9531-.7148,3.1172-.7148c.6406,0,1.2598,.0645,1.8574,.1934s1.0879,.291,1.4707,.4863l-.5859,1.6289c-.3906-.1562-.8418-.2969-1.3535-.4219s-.9902-.1875-1.4355-.1875c-.8906,0-1.6309,.1914-2.2207,.5742s-1.0312,.9453-1.3242,1.6875-.4395,1.6562-.4395,2.7422c0,1.0391,.1426,1.9258,.4277,2.6602s.7109,1.2949,1.2773,1.6816,1.2754,.5801,2.127,.5801c.6797,0,1.293-.0723,1.8398-.2168s1.043-.3145,1.4883-.5098v1.7344c-.4297,.2188-.9082,.3867-1.4355,.5039s-1.1543,.1758-1.8809,.1758Z"/><path d="M190.3414,72.9858c.3203,0,.6484-.0273,.9844-.082s.6094-.1211,.8203-.1992v1.5117c-.2266,.1016-.541,.1875-.9434,.2578s-.7949,.1055-1.1777,.1055c-.6797,0-1.2969-.1191-1.8516-.3574s-.998-.6426-1.3301-1.2129-.498-1.3594-.498-2.3672v-7.6172h-1.8281v-.9492l1.8398-.7617,.7734-2.7891h1.1719v2.9766h3.7617v1.5234h-3.7617v7.5586c0,.8047,.1855,1.4062,.5566,1.8047s.8652,.5977,1.4824,.5977Z"/><path d="M195.7438,56.6968c.3203,0,.5957,.1035,.8262,.3105s.3457,.5293,.3457,.9668c0,.4297-.1152,.75-.3457,.9609s-.5059,.3164-.8262,.3164c-.3359,0-.6152-.1055-.8379-.3164s-.334-.5312-.334-.9609c0-.4375,.1113-.7598,.334-.9668s.502-.3105,.8379-.3105Zm.9492,4.8047v12.8438h-1.9453v-12.8438h1.9453Z"/><path d="M206.8883,61.2671c1.5234,0,2.6758,.373,3.457,1.1191s1.1719,1.9434,1.1719,3.5918v8.3672h-1.9219v-8.2383c0-1.0703-.2441-1.8711-.7324-2.4023s-1.2363-.7969-2.2441-.7969c-1.4219,0-2.4219,.4023-3,1.207s-.8672,1.9727-.8672,3.5039v6.7266h-1.9453v-12.8438h1.5703l.293,1.8516h.1055c.2734-.4531,.6211-.834,1.043-1.1426s.8945-.543,1.418-.7031,1.0742-.2402,1.6523-.2402Z"/><path d="M219.1109,80.1108c-1.6875,0-2.9883-.3145-3.9023-.9434s-1.3711-1.5098-1.3711-2.6426c0-.8047,.2559-1.4922,.7676-2.0625s1.2207-.9492,2.127-1.1367c-.3359-.1562-.623-.3906-.8613-.7031s-.3574-.6719-.3574-1.0781c0-.4688,.1309-.8809,.3926-1.2363s.6621-.6973,1.2012-1.0254c-.6719-.2734-1.2168-.7363-1.6348-1.3887s-.627-1.4121-.627-2.2793c0-.9219,.1914-1.709,.5742-2.3613s.9375-1.1504,1.6641-1.4941,1.6055-.5156,2.6367-.5156c.2266,0,.4551,.0098,.6855,.0293s.4512,.0469,.6621,.082,.3945,.0762,.5508,.123h4.4062v1.2539l-2.3672,.293c.2344,.3047,.4297,.6719,.5859,1.1016s.2344,.9062,.2344,1.4297c0,1.2812-.4336,2.2988-1.3008,3.0527s-2.0586,1.1309-3.5742,1.1309c-.3594,0-.7266-.0312-1.1016-.0938-.3828,.2109-.6738,.4453-.873,.7031s-.2988,.5547-.2988,.8906c0,.25,.0762,.4492,.2285,.5977s.373,.2559,.6621,.3223,.6367,.0996,1.043,.0996h2.2617c1.3984,0,2.4707,.293,3.2168,.8789s1.1191,1.4414,1.1191,2.5664c0,1.4219-.5781,2.5117-1.7344,3.2695s-2.8281,1.1367-5.0156,1.1367Zm.0586-1.5234c1.0625,0,1.9434-.1074,2.6426-.3223s1.2227-.5234,1.5703-.9258,.5215-.8809,.5215-1.4355c0-.5156-.1172-.9043-.3516-1.166s-.5781-.4375-1.0312-.5273-1.0078-.1348-1.6641-.1348h-2.2266c-.5781,0-1.082,.0898-1.5117,.2695s-.7598,.4453-.9902,.7969-.3457,.7891-.3457,1.3125c0,.6953,.293,1.2246,.8789,1.5879s1.4219,.5449,2.5078,.5449Zm.5039-10.2656c.9297,0,1.6289-.2344,2.0977-.7031s.7031-1.1523,.7031-2.0508c0-.9609-.2383-1.6816-.7148-2.1621s-1.1797-.7207-2.1094-.7207c-.8906,0-1.5762,.248-2.0566,.7441s-.7207,1.2207-.7207,2.1738c0,.875,.2422,1.5469,.7266,2.0156s1.1758,.7031,2.0742,.7031Z"/><path d="M248.7359,61.2671c1.4141,0,2.4805,.3691,3.1992,1.1074s1.0781,1.9238,1.0781,3.5566v8.4141h-1.9219v-8.3203c0-1.0391-.2246-1.8184-.6738-2.3379s-1.1152-.7793-1.998-.7793c-1.2422,0-2.1445,.3594-2.707,1.0781s-.8438,1.7773-.8438,3.1758v7.1836h-1.9336v-8.3203c0-.6953-.0996-1.2734-.2988-1.7344s-.4961-.8066-.8906-1.0371-.8926-.3457-1.4941-.3457c-.8516,0-1.5352,.1758-2.0508,.5273s-.8887,.873-1.1191,1.5645-.3457,1.541-.3457,2.5488v6.7969h-1.9453v-12.8438h1.5703l.293,1.8164h.1055c.2578-.4453,.582-.8203,.9727-1.125s.8281-.5352,1.3125-.6914,1-.2344,1.5469-.2344c.9766,0,1.7949,.1816,2.4551,.5449s1.1387,.916,1.4355,1.6582h.1055c.4219-.7422,1-1.2949,1.7344-1.6582s1.5391-.5449,2.4141-.5449Z"/><path d="M261.9547,61.2671c1.0938,0,2.0312,.2422,2.8125,.7266s1.3789,1.1621,1.793,2.0332,.6211,1.8887,.6211,3.0527v1.207h-8.8711c.0234,1.5078,.3984,2.6562,1.125,3.4453s1.75,1.1836,3.0703,1.1836c.8125,0,1.5312-.0742,2.1562-.2227s1.2734-.3672,1.9453-.6562v1.7109c-.6484,.2891-1.291,.5-1.9277,.6328s-1.3887,.1992-2.2559,.1992c-1.2344,0-2.3105-.252-3.2285-.7559s-1.6309-1.2441-2.1387-2.2207-.7617-2.1719-.7617-3.5859c0-1.3828,.2324-2.5801,.6973-3.5918s1.1211-1.791,1.9688-2.3379,1.8457-.8203,2.9941-.8203Zm-.0234,1.5938c-1.0391,0-1.8672,.3398-2.4844,1.0195s-.9844,1.6289-1.1016,2.8477h6.7969c-.0078-.7656-.127-1.4395-.3574-2.0215s-.5801-1.0352-1.0488-1.3594-1.0703-.4863-1.8047-.4863Z"/><path d="M270.193,73.1264c0-.5469,.1328-.9355,.3984-1.166s.5977-.3457,.9961-.3457c.3906,0,.7207,.1152,.9902,.3457s.4043,.6191,.4043,1.166c0,.5391-.1348,.9316-.4043,1.1777s-.5996,.3691-.9902,.3691c-.3984,0-.7305-.123-.9961-.3691s-.3984-.6387-.3984-1.1777Zm2.0508-3.5391h-1.2773l-.5391-12.375h2.3555l-.5391,12.375Z"/></g></svg>